<svg width="245" height="184" viewBox="0 0 245 184" fill="none" xmlns="http://www.w3.org/2000/svg">
<g clip-path="url(#clip0)">
<rect x="-2" y="-1" width="247" height="185" rx="2" fill="#F6F6F6"/>
<path d="M95.749 88.6792C95.7323 88.6792 95.7155 88.6792 95.6955 88.6792C93.5855 88.6792 91.8734 90.3879 91.8734 92.5013C91.8734 94.6146 93.5821 96.3233 95.6955 96.3233C95.7155 96.3233 95.7323 96.3233 95.7523 96.3233H149.248C149.265 96.3233 149.281 96.3233 149.301 96.3233C151.411 96.3233 153.123 94.6146 153.123 92.5013C153.123 90.3879 151.415 88.6792 149.301 88.6792C149.281 88.6792 149.265 88.6792 149.244 88.6792H95.749Z" fill="white"/>
<path d="M126.322 65.7501C126.322 65.7334 126.322 65.7167 126.322 65.6966C126.322 63.5866 124.613 61.8746 122.5 61.8746C120.387 61.8746 118.678 63.5833 118.678 65.6966C118.678 65.7167 118.678 65.7334 118.678 65.7535V65.7501V119.249C118.678 119.266 118.678 119.282 118.678 119.303C118.678 121.412 120.387 123.125 122.5 123.125C124.613 123.125 126.322 121.416 126.322 119.303C126.322 119.282 126.322 119.266 126.322 119.246V119.249V65.7501Z" fill="white"/>
<path d="M122.499 39C92.9957 39 69 62.9991 69 92.4989C69 121.999 92.9991 145.998 122.499 145.998C152.002 145.998 175.998 121.999 175.998 92.4989C175.998 62.9991 151.999 39 122.499 39ZM122.499 46.6441C147.872 46.6441 168.357 67.1321 168.357 92.5022C168.357 117.872 147.872 138.36 122.499 138.36C97.1254 138.36 76.6408 117.876 76.6408 92.5022C76.6408 67.1288 97.1254 46.6441 122.499 46.6441V46.6441Z" fill="white"/>
</g>
<defs>
<clipPath id="clip0">
<rect width="245" height="184" fill="white"/>
</clipPath>
</defs>
</svg>
