<svg width="52" height="52" viewBox="0 0 52 52" fill="none" xmlns="http://www.w3.org/2000/svg">
<path d="M13 24.1426C12.9919 24.1426 12.9837 24.1426 12.974 24.1426C11.9486 24.1426 11.1166 24.973 11.1166 26C11.1166 27.027 11.947 27.8574 12.974 27.8574C12.9837 27.8574 12.9919 27.8574 13.0016 27.8574H38.9984C39.0065 27.8574 39.0146 27.8574 39.0244 27.8574C40.0497 27.8574 40.8818 27.027 40.8818 26C40.8818 24.973 40.0514 24.1426 39.0244 24.1426C39.0146 24.1426 39.0065 24.1426 38.9967 24.1426H13Z" fill="white"/>
<path d="M27.8574 13C27.8574 12.9919 27.8574 12.9838 27.8574 12.974C27.8574 11.9486 27.027 11.1166 26 11.1166C24.973 11.1166 24.1426 11.947 24.1426 12.974C24.1426 12.9838 24.1426 12.9919 24.1426 13.0016V13V38.9984C24.1426 39.0065 24.1426 39.0146 24.1426 39.0244C24.1426 40.0498 24.973 40.8818 26 40.8818C27.027 40.8818 27.8574 40.0514 27.8574 39.0244C27.8574 39.0146 27.8574 39.0065 27.8574 38.9968V38.9984V13Z" fill="white"/>
<path d="M25.9994 0C11.662 0 0.000999451 11.6626 0.000999451 25.9984C0.000999451 40.3341 11.6636 51.9967 25.9994 51.9967C40.3367 51.9967 51.9977 40.3341 51.9977 25.9984C51.9977 11.6626 40.3351 0 25.9994 0ZM25.9994 3.71475C38.3299 3.71475 48.2846 13.6711 48.2846 26C48.2846 38.3289 38.3299 48.2853 25.9994 48.2853C13.6689 48.2853 3.71412 38.3305 3.71412 26C3.71412 13.6695 13.6689 3.71475 25.9994 3.71475Z" fill="white"/>
</svg>
