<svg width="75" height="64" viewBox="0 0 75 64" fill="none" xmlns="http://www.w3.org/2000/svg">
<path d="M72.5 63.64H2.5C2.05772 63.6384 1.62371 63.52 1.24193 63.2967C0.860143 63.0734 0.544136 62.7532 0.325906 62.3685C0.107675 61.9838 -0.00503131 61.5483 -0.000800665 61.106C0.00342998 60.6637 0.124447 60.2304 0.349997 59.85L35.35 1.21999C35.5714 0.846936 35.886 0.537897 36.2629 0.323248C36.6399 0.108599 37.0662 -0.00427246 37.5 -0.00427246C37.9338 -0.00427246 38.3601 0.108599 38.7371 0.323248C39.114 0.537897 39.4286 0.846936 39.65 1.21999L74.65 59.85C74.8756 60.2304 74.9966 60.6637 75.0008 61.106C75.005 61.5483 74.8923 61.9838 74.6741 62.3685C74.4559 62.7532 74.1399 63.0734 73.7581 63.2967C73.3763 63.52 72.9423 63.6384 72.5 63.64V63.64ZM6.9 58.64H68.1L37.5 7.37999L6.9 58.64ZM40.9 21.43V26.23L39.4 44.78H35.58L34.09 26.23V21.43H40.9ZM34.4 54.21V47.84H40.58V54.21H34.4Z" fill="#6A6A6A"/>
</svg>
