<svg width="68" height="66" viewBox="0 0 68 66" fill="none" xmlns="http://www.w3.org/2000/svg">
<path d="M51.5427 14.2017H66.7507V32.7336H63.5163H62.5163V33.7336V65H40.9337H26.8181H5.23449V33.7336V32.7336H4.23449H1V14.2017H16.2091H18.4384L16.956 12.5367C16.7178 12.2692 16.5168 11.9916 16.3503 11.702L16.3495 11.7007C15.7889 10.7293 15.2708 8.98221 16.6156 6.36749L16.6157 6.36737C18.5727 2.56113 20.7294 1 22.9114 1C24.1959 1 25.5929 1.54281 27.1074 2.78103C28.6258 4.02245 30.2103 5.92275 31.8371 8.52223C32.2538 9.18831 32.6436 9.85106 33.0034 10.4936L33.8759 12.0518L34.7484 10.4936C35.1082 9.85106 35.4982 9.18796 35.9142 8.52128C37.5414 5.92225 39.1257 4.0223 40.6439 2.78106C42.1584 1.54291 43.5557 1 44.8415 1C47.0233 1 49.179 2.56092 51.1349 6.36718L51.1352 6.36775C52.481 8.98239 51.9628 10.7293 51.4023 11.7007L51.4015 11.702C51.235 11.9916 51.034 12.2692 50.7958 12.5367L49.3134 14.2017H51.5427ZM38.1093 64.0653H39.1093V63.0653V16.1342V15.1342H38.1093H29.6414H28.6414V16.1342V63.0653V64.0653H29.6414H38.1093ZM36.6048 9.0285L36.6047 9.02867C35.8275 10.2675 35.1416 11.5092 34.5775 12.607L34.3607 13.0291L34.5505 13.464C34.5826 13.5375 34.6163 13.6043 34.6374 13.6461L34.6404 13.6521L34.9177 14.2015H35.5332H40.9337H45.9042H46.0648L46.2172 14.1513C48.2725 13.4739 49.949 12.5174 50.7122 11.194C50.837 10.9789 51.1158 10.4889 51.1616 9.71038C51.2066 8.94563 51.023 7.9988 50.4244 6.83427L50.4241 6.83368C49.6512 5.33228 48.8209 4.13158 47.92 3.29478C47.0119 2.45138 45.979 1.93237 44.8415 1.93237C43.4354 1.93237 42.0262 2.71248 40.703 3.89942C39.3579 5.10605 37.9744 6.84612 36.6048 9.0285ZM17.0382 11.1916L17.0382 11.1917C17.8014 12.5158 19.4772 13.4733 21.5357 14.1514L21.6882 14.2017H21.8486H26.8182H32.2198H32.8484L33.1209 13.6353C33.1421 13.5913 33.1677 13.5381 33.1938 13.4812L33.3967 13.039L33.174 12.6064C32.6091 11.5092 31.9232 10.2676 31.1461 9.02881L31.1461 9.02879C29.7769 6.84635 28.3938 5.10627 27.0489 3.89963C25.726 2.71273 24.317 1.93251 22.9114 1.93251C21.7731 1.93251 20.7397 2.45124 19.8312 3.29486C18.93 4.13177 18.1 5.33261 17.3275 6.83407L17.3275 6.83409C16.7285 7.99858 16.5447 8.94507 16.5899 9.70994C16.6359 10.4885 16.9154 10.9786 17.0382 11.1916ZM2.82334 15.1342H1.82334V16.1342V30.8011V31.8011H2.82334H26.8181H27.8181V30.8011V16.1342V15.1342H26.8181H2.82334ZM6.05783 63.0653V64.0653H7.05783H26.8181H27.8181V63.0653V33.7336V32.7336H26.8181H7.05783H6.05783V33.7336V63.0653ZM60.694 64.0653H61.694V63.0653V33.7336V32.7336H60.694H40.9337H39.9337V33.7336V63.0653V64.0653H40.9337H60.694ZM64.9285 31.8011H65.9285V30.8011V16.1342V15.1342H64.9285H40.9337H39.9337V16.1342V30.8011V31.8011H40.9337H64.9285Z" stroke="white" stroke-width="2"/>
</svg>
