<svg width="44" height="52" viewBox="0 0 44 52" fill="none" xmlns="http://www.w3.org/2000/svg">
<path d="M12.559 9.01139C13.0789 9.70458 13.6565 10.0512 14.292 10.0512C15.3317 10.0512 15.9671 9.01139 16.0249 8.95363C16.1404 8.72257 18.9132 3.92804 17.469 1.44413C16.8914 0.462123 15.8516 0 14.3497 0C12.9633 0 11.9236 0.462123 11.4037 1.38637C9.90179 3.87028 12.4435 8.72257 12.559 8.95363V9.01139ZM12.2124 1.84849C12.559 1.21307 13.3099 0.924245 14.3497 0.924245C15.505 0.924245 16.256 1.21307 16.6603 1.90626C17.6423 3.58145 15.9671 7.22067 15.2162 8.43374C15.2162 8.43374 14.8118 9.06916 14.292 9.06916C13.9454 9.06916 13.5988 8.72257 13.3677 8.43374C12.6745 7.1629 11.2304 3.52369 12.2124 1.84849Z" fill="#555555"/>
<path d="M10.2484 11.7841H10.3061C10.3639 11.7841 10.4217 11.7841 10.4794 11.7841C11.2881 11.7841 11.8658 11.553 12.2702 11.0331C12.8478 10.2822 12.559 9.24241 12.5012 9.06912C12.3857 8.83806 10.3061 3.06152 7.24458 3.06152C6.32033 3.06152 5.39608 3.58141 4.58737 4.56342C3.66312 5.66096 3.3743 6.70074 3.72089 7.68275C4.64513 10.5133 10.0173 11.7263 10.2484 11.7841ZM5.28055 5.25661C5.91597 4.50566 6.55139 4.1013 7.18681 4.1013C9.2086 4.1013 10.9993 7.97158 11.577 9.41571C11.577 9.41571 11.7503 10.1089 11.4614 10.4555C11.2881 10.6865 10.8838 10.8021 10.3639 10.8021C8.91977 10.4555 5.22279 9.30018 4.58737 7.45169C4.35631 6.7585 4.58737 6.06532 5.28055 5.25661Z" fill="#555555"/>
<path d="M4.81844 18.0227C7.41788 18.0227 10.7683 15.481 10.8838 15.3655L10.9416 15.3077C11.5192 14.6723 11.808 13.9791 11.6348 13.3437C11.4037 12.3617 10.4217 11.9574 10.3061 11.8996C10.1906 11.8418 7.70671 10.9753 5.51163 10.9753C4.06749 10.9753 2.96995 11.3797 2.33453 12.1306C1.75688 12.8238 1.52582 13.8636 1.75688 15.1344C2.219 17.5028 3.66313 18.0227 4.81844 18.0227ZM3.08548 12.7083C3.5476 12.1884 4.35632 11.8996 5.51163 11.8996C7.59118 11.8996 9.95956 12.7661 9.95956 12.7661C9.95956 12.7661 10.595 13.0549 10.7105 13.517C10.7683 13.8058 10.6527 14.1524 10.2484 14.5568C9.90179 14.7879 6.95576 16.9829 4.81844 16.9829C3.60537 16.9829 2.96995 16.3475 2.73889 14.9034C2.56559 13.9791 2.68112 13.2282 3.08548 12.7083Z" fill="#555555"/>
<path d="M12.3857 15.1923C11.8081 15.1923 11.2882 15.4233 11.2304 15.4811C10.9994 15.5966 6.20483 18.3694 6.20483 21.2576C6.20483 22.3552 6.89802 23.3372 8.16886 24.0881C8.86204 24.4925 9.55522 24.7235 10.1329 24.7235C13.8299 24.7235 14.1765 17.5606 14.1765 17.2718V17.214C14.0032 15.4233 12.9056 15.1923 12.3857 15.1923ZM10.1906 23.7415C9.72852 23.7415 9.2664 23.5682 8.68874 23.2794C7.64897 22.7018 7.18684 22.0663 7.18684 21.3154C7.18684 19.4091 10.4795 17.0985 11.6925 16.3476C11.6925 16.3476 12.0391 16.1743 12.3857 16.1743C12.559 16.1743 13.1367 16.1743 13.2522 17.2718C13.1944 19.1203 12.5013 23.7415 10.1906 23.7415Z" fill="#555555"/>
<path d="M18.8554 12.0152H18.7977C17.9312 12.304 17.4113 12.7084 17.238 13.3438C16.9492 14.2681 17.5846 15.1923 17.7001 15.3078C17.7001 15.3078 17.8156 15.4811 18.0467 15.6544C17.9889 15.5967 17.9312 15.5389 17.8734 15.5389L17.8156 15.4811C17.238 15.1923 16.7759 15.019 16.3715 15.019C15.2162 15.019 14.6385 16.1743 14.523 16.8097C14.4653 17.0408 13.7721 21.8931 15.5628 23.9726C16.0827 24.6081 16.7759 24.8969 17.6423 24.8969C18.1622 24.8969 18.7399 24.7814 19.3753 24.4925C20.7039 23.9726 21.4549 23.1639 21.6282 22.1241C21.917 20.3334 20.4151 18.3116 19.202 16.9253C20.4151 18.0228 22.0903 19.2359 23.6499 19.2359C24.5742 19.2359 25.845 18.8315 26.596 16.752C27.0581 15.4811 27.0003 14.4414 26.4227 13.6326C25.3829 12.1307 22.899 11.8419 20.9927 11.8419C19.8374 11.8997 18.9132 12.0152 18.8554 12.0152ZM20.7039 21.9509C20.5884 22.644 20.0685 23.2217 19.0865 23.5683C18.5666 23.7993 18.1045 23.8571 17.7001 23.8571C17.1225 23.8571 16.7181 23.6838 16.3715 23.2217C15.1584 21.7776 15.3317 18.1383 15.5628 16.8675C15.5628 16.8097 15.7361 15.8855 16.4293 15.8855C16.6603 15.8855 16.9492 16.001 17.238 16.1743C18.3355 17.2141 21.0505 20.0446 20.7039 21.9509ZM25.6717 14.2103C26.0761 14.788 26.0761 15.4811 25.7295 16.4054C25.2674 17.6762 24.632 18.2539 23.7077 18.2539C21.8014 18.2539 19.202 15.6544 18.3933 14.6147C18.3933 14.6147 17.9889 14.037 18.1045 13.5749C18.22 13.2861 18.5088 13.055 19.0287 12.8817C19.202 12.8817 20.0107 12.7662 21.0505 12.7662C23.4189 12.8239 25.0363 13.3438 25.6717 14.2103Z" fill="#555555"/>
<path d="M16.4293 8.8958C16.0827 9.70451 16.1404 10.3977 16.487 10.9753C17.0647 11.7841 18.1622 11.8418 18.2778 11.8418C18.5088 11.8418 24.0543 11.6685 25.4407 9.12686C25.9605 8.14485 25.845 6.98954 25.0363 5.7187C24.2854 4.50563 23.4189 3.92798 22.3213 3.92798C19.4331 3.92798 16.6026 8.66474 16.4293 8.83803C16.4293 8.83803 16.4293 8.83803 16.4293 8.8958ZM17.2957 9.24239C18.0467 7.97155 20.3573 4.79446 22.3213 4.79446C23.0145 4.79446 23.6499 5.25658 24.2276 6.12306C24.863 7.10507 24.9785 7.91379 24.6319 8.60697C23.7077 10.2822 19.7797 10.7443 18.3355 10.8021C18.1045 10.8021 17.5846 10.6865 17.3535 10.3399C17.1225 10.1666 17.1225 9.76228 17.2957 9.24239Z" fill="#555555"/>
<path d="M16.6603 12.8239C16.6603 11.6108 15.6783 10.571 14.4075 10.571C13.1944 10.571 12.1546 11.5531 12.1546 12.8239C12.1546 14.037 13.1366 15.0767 14.4075 15.0767C15.6783 15.0767 16.6603 14.0947 16.6603 12.8239ZM13.1366 12.8239C13.1366 12.1307 13.7143 11.5531 14.4075 11.5531C15.1006 11.5531 15.6783 12.1307 15.6783 12.8239C15.6783 13.5171 15.1006 14.0947 14.4075 14.0947C13.7143 14.0947 13.1366 13.5171 13.1366 12.8239Z" fill="#555555"/>
<path d="M25.3252 21.1999C24.6897 22.1819 24.632 23.1061 25.0363 23.8571C25.6718 25.0124 27.2892 25.4745 28.6178 25.7056C28.56 25.7056 28.4445 25.7056 28.3867 25.7056C26.3072 25.7056 24.9208 26.1677 24.2854 27.0919C23.8233 27.7274 23.7655 28.5361 24.1121 29.4603C24.6897 31.02 25.6718 31.3666 26.3649 31.3666C27.1737 31.3666 27.9824 30.9622 28.7333 30.4423C28.0979 31.3088 27.578 32.4064 27.7513 33.3884C27.8668 34.1971 28.4445 34.8325 29.4843 35.2369C29.9464 35.4102 30.4085 35.5257 30.8129 35.5257C31.4483 35.5257 32.0259 35.2946 32.4303 34.7747C33.1812 33.9082 33.3545 32.4641 33.3545 31.251C33.6434 32.9262 34.3366 35.4102 36.3006 35.4102C36.7627 35.4102 37.2826 35.2369 37.8025 34.948C38.8423 34.3704 39.3044 33.6194 39.3044 32.7529C39.3044 31.4821 38.0913 30.269 37.0515 29.4026C37.9758 29.9224 39.1311 30.4423 40.1709 30.4423C41.4417 30.4423 42.3082 29.6336 42.5392 28.2472C42.7125 27.2652 42.5392 26.4565 42.0771 25.9366C41.615 25.359 40.7485 25.0702 39.651 25.0702C39.2466 25.0702 38.8423 25.1279 38.4379 25.1857C39.5354 24.7236 40.6907 23.9726 41.0951 22.9328C41.3839 22.1241 41.1529 21.3154 40.4597 20.5067C39.8243 19.7557 39.1311 19.3514 38.3801 19.3514C37.1671 19.3514 36.185 20.4489 35.4919 21.6042C35.8385 20.4489 36.0118 19.0626 35.4341 18.1383C35.0297 17.4451 34.221 17.0408 33.1813 17.0408C32.0259 17.0408 31.2172 17.4451 30.7551 18.1961C29.9464 19.6402 30.8706 21.8931 31.4483 23.1061C30.7551 22.0664 29.0799 19.929 27.3469 19.929C26.596 19.8713 25.9028 20.3334 25.3252 21.1999ZM26.4227 30.4423C26.1916 30.4423 25.4985 30.4423 25.0363 29.1715C24.8053 28.5361 24.8053 28.0162 25.0941 27.6696C25.4985 27.0342 26.7115 26.6876 28.3867 26.6876C29.0799 26.6876 29.6576 26.7453 29.8309 26.7453C30.0619 26.8031 30.3507 26.9764 30.4085 27.1497C30.4663 27.3808 30.293 27.7274 30.2352 27.7851C29.5998 28.5361 27.7513 30.4423 26.4227 30.4423ZM31.7371 34.1971C31.5061 34.4859 31.2172 34.6014 30.8129 34.6014C30.524 34.6014 30.1775 34.5437 29.8309 34.3704C29.1377 34.0815 28.7911 33.735 28.7333 33.2728C28.5023 31.9442 30.4663 29.9224 31.275 29.2293C31.5061 29.1137 31.6794 29.056 31.7949 29.056C32.1992 29.056 32.3148 29.6336 32.3148 29.6336C32.4303 30.5579 32.6036 33.1573 31.7371 34.1971ZM38.4379 32.7529C38.4379 33.2728 38.0913 33.6772 37.3981 34.0815C36.9938 34.3126 36.6472 34.4281 36.3583 34.4281C34.7987 34.4281 34.2788 31.02 34.221 29.8069C34.3366 29.1137 34.6254 29.1137 34.7409 29.1137C34.9142 29.1137 35.1453 29.1715 35.203 29.2293C36.0695 29.7491 38.4379 31.4243 38.4379 32.7529ZM35.6074 28.4205C35.5496 28.4205 35.1453 28.1895 34.6831 28.1895C34.3366 28.1895 33.4701 28.305 33.239 29.5181C33.239 29.4603 33.239 29.4603 33.239 29.4603C33.1235 28.9982 32.7191 28.074 31.7949 28.074C31.5638 28.074 31.3328 28.1317 31.1017 28.1895C31.275 27.9007 31.4483 27.4385 31.275 26.9186C31.1595 26.4565 30.7551 26.1677 30.2352 25.9366C30.293 25.9366 30.3507 25.9366 30.3507 25.9366C30.4663 25.9366 31.3328 25.8789 31.7371 25.2435C31.9682 24.8969 32.0259 24.377 31.8526 23.8571C31.9682 24.0304 32.4303 24.6658 33.1813 24.6658C33.5856 24.6658 33.99 24.4925 34.3366 24.0881C34.2788 24.377 34.2788 24.8969 34.5676 25.3012C34.7409 25.5323 35.0875 25.8211 35.7807 25.8789C35.4919 26.0522 35.0875 26.3988 34.972 26.9186C35.0297 27.4385 35.203 27.9007 35.6074 28.4205ZM41.4417 26.5721C41.7305 26.9186 41.7883 27.4385 41.6728 28.1317C41.4417 29.4026 40.8063 29.5759 40.2286 29.5759C38.7267 29.5759 36.5894 28.074 36.3006 27.8429C36.1273 27.6696 35.954 27.3808 36.0118 27.2075C36.0695 26.9764 36.4161 26.8031 36.4739 26.7453C36.4739 26.7453 38.2068 26.1099 39.7087 26.1099C40.5752 26.0522 41.1529 26.2255 41.4417 26.5721ZM38.4957 20.2756C38.9 20.2756 39.3621 20.5645 39.8243 21.0843C40.2864 21.662 40.4597 22.1241 40.2864 22.5862C39.8243 23.8571 37.1671 24.7236 36.1273 24.9546H36.0695C35.8385 24.9546 35.5496 24.8969 35.4341 24.7813C35.2608 24.608 35.3763 24.2037 35.3763 24.1459C35.7807 23.1061 37.1093 20.2756 38.4957 20.2756ZM31.6794 18.6004C31.9104 18.1383 32.4303 17.965 33.239 17.965C33.99 17.965 34.4521 18.1383 34.6831 18.6004C35.3763 19.7557 34.3366 22.3552 33.8167 23.2794C33.6434 23.4527 33.4701 23.6838 33.239 23.6838C33.008 23.6838 32.7191 23.395 32.6614 23.2794C32.257 22.4129 30.9862 19.8135 31.6794 18.6004ZM27.4047 20.7955C28.7333 20.7955 30.4085 23.0484 30.9862 23.9726C31.0439 24.2037 31.1595 24.4925 31.0439 24.6658C30.9284 24.8391 30.524 24.8969 30.4085 24.9546C29.3687 24.9546 26.5382 24.608 25.9028 23.395C25.6718 22.9328 25.7295 22.4129 26.1916 21.7198C26.5382 21.0843 26.9426 20.7955 27.4047 20.7955Z" fill="#555555"/>
<path d="M33.239 24.8391C32.3148 24.8391 31.506 25.5901 31.506 26.5721C31.506 27.5541 32.257 28.305 33.239 28.305C34.1632 28.305 34.972 27.5541 34.972 26.5721C34.972 25.5901 34.1632 24.8391 33.239 24.8391ZM33.239 27.323C32.8346 27.323 32.4881 26.9764 32.4881 26.5721C32.4881 26.1677 32.8346 25.8211 33.239 25.8211C33.6434 25.8211 33.99 26.1677 33.99 26.5721C33.99 26.9764 33.6434 27.323 33.239 27.323Z" fill="#555555"/>
<path d="M43.9256 38.8761C43.8678 38.7028 43.7523 38.5873 43.579 38.5873C42.4814 38.2407 41.3261 38.0674 40.2864 38.0674C36.5316 38.0674 34.3365 40.2625 33.5278 41.36C34.5098 37.3742 34.1055 34.6592 34.1055 34.4859C34.0477 34.1971 33.8166 34.0238 33.5856 34.0816C33.2968 34.1394 33.1235 34.3704 33.1812 34.6015C33.1812 34.6592 33.5278 36.9121 32.7769 40.3202C31.9682 38.3562 30.0041 35.5257 25.2096 34.8903C25.0363 34.8903 24.9208 34.9481 24.8053 35.0636C24.6897 35.1791 24.632 35.3524 24.6897 35.5257C24.7475 35.8146 26.596 42.8042 31.9682 42.8042C32.0259 42.8042 32.0837 42.8042 32.1415 42.8042C31.3327 45.2881 30.0041 48.1186 27.7513 51.0068C27.7513 51.0068 27.7513 51.0068 27.6935 51.0646L27.6358 51.1224L27.578 51.1801C27.578 51.1801 27.578 51.1801 27.5202 51.1801H27.4625C27.3469 51.1801 27.2314 51.1224 27.1736 51.0646C12.8478 38.7028 14.4653 23.4528 14.4653 23.2795C14.523 22.9906 14.292 22.7596 14.0609 22.7596C13.7721 22.7018 13.541 22.9329 13.541 23.1639C13.541 23.2217 13.1944 26.5721 14.1764 31.3089C13.6565 30.4424 10.7105 26.3988 4.76068 26.3988C3.37432 26.3988 1.87242 26.6299 0.370519 27.092C0.197223 27.1498 0.0816925 27.2653 0.0239271 27.3808C-0.0338382 27.5541 0.0239274 27.6696 0.0816927 27.8429C0.254989 28.074 4.52962 33.3884 9.84403 33.3884C11.3459 33.3884 12.7901 32.984 14.1187 32.1176C14.2342 32.0598 14.292 32.002 14.292 31.8865C15.5628 37.5475 18.7977 45.057 26.596 51.6423C26.8848 51.8733 27.2314 52.0466 27.578 51.9888C27.578 51.9888 27.578 51.9888 27.6358 51.9888C27.9246 51.9888 28.2134 51.8733 28.4445 51.6423C28.5022 51.5845 28.56 51.5267 28.56 51.469C31.1017 48.2341 32.488 45.057 33.2968 42.3998C33.2968 42.3998 33.3545 42.4576 33.4123 42.4576C34.3943 43.093 35.4918 43.4396 36.5894 43.4396C40.5174 43.4396 43.6945 39.4538 43.8678 39.3382C43.9256 39.1649 43.9833 38.9916 43.9256 38.8761ZM32.0259 41.7066C28.3289 41.7066 26.4804 37.6053 25.9028 35.8723C30.8128 36.7966 32.0259 40.378 32.3725 41.7066C32.1992 41.7066 32.1415 41.7066 32.0259 41.7066ZM9.84403 32.4642C5.97376 32.4642 2.5656 29.1715 1.35253 27.8429C2.50784 27.5541 3.66314 27.3808 4.76068 27.3808C9.67074 27.3808 12.3857 30.5001 13.1944 31.5977C12.0969 32.1753 10.9993 32.4642 9.84403 32.4642ZM36.5894 42.4576C35.8384 42.4576 35.0875 42.2843 34.3365 41.8799C35.0297 41.0134 36.936 38.9339 40.3441 38.9339C41.0373 38.9339 41.846 39.0494 42.597 39.2227C41.615 40.3202 39.2466 42.4576 36.5894 42.4576Z" fill="#555555"/>
</svg>
