<svg width="64" height="65" viewBox="0 0 64 65" fill="none" xmlns="http://www.w3.org/2000/svg">
<g filter="url(#filter0_d)">
<path d="M27.4869 5.99996C27.3415 6.0277 27.2106 6.10592 27.1172 6.22081C27.0239 6.33569 26.9741 6.47986 26.9767 6.62786V27.9767H5.62791C5.46138 27.9767 5.30168 28.0429 5.18393 28.1606C5.06618 28.2784 5.00002 28.4381 5 28.6046V37.3953C5.00002 37.5618 5.06618 37.7215 5.18393 37.8393C5.30168 37.957 5.46138 38.0232 5.62791 38.0232H26.9767V59.372C26.9768 59.5386 27.0429 59.6983 27.1607 59.816C27.2784 59.9338 27.4381 59.9999 27.6047 60H36.3953C36.5619 59.9999 36.7216 59.9338 36.8393 59.816C36.9571 59.6983 37.0232 59.5386 37.0233 59.372V38.0232H58.3721C58.5386 38.0232 58.6983 37.957 58.8161 37.8393C58.9338 37.7215 59 37.5618 59 37.3953V28.6046C59 28.4381 58.9338 28.2784 58.8161 28.1606C58.6983 28.0429 58.5386 27.9767 58.3721 27.9767H37.0233V6.62786C37.0232 6.46134 36.9571 6.30164 36.8393 6.18389C36.7216 6.06613 36.5619 5.99997 36.3953 5.99996H27.6047C27.5655 5.99627 27.5261 5.99627 27.4869 5.99996V5.99996ZM28.2326 7.25577H35.7674V28.6046C35.7675 28.7711 35.8336 28.9308 35.9514 29.0486C36.0691 29.1663 36.2288 29.2325 36.3953 29.2325H57.7442V36.7674H36.3953C36.2288 36.7674 36.0691 36.8336 35.9514 36.9513C35.8336 37.0691 35.7675 37.2288 35.7674 37.3953V58.7441H28.2326V37.3953C28.2325 37.2288 28.1664 37.0691 28.0486 36.9513C27.9309 36.8336 27.7712 36.7674 27.6047 36.7674H6.25581V29.2325H27.6047C27.7712 29.2325 27.9309 29.1663 28.0486 29.0486C28.1664 28.9308 28.2325 28.7711 28.2326 28.6046V7.25577Z" stroke="#39891C" stroke-width="2"/>
</g>
<defs>
<filter id="filter0_d" x="0" y="0.997192" width="64" height="64.0028" filterUnits="userSpaceOnUse" color-interpolation-filters="sRGB">
<feFlood flood-opacity="0" result="BackgroundImageFix"/>
<feColorMatrix in="SourceAlpha" type="matrix" values="0 0 0 0 0 0 0 0 0 0 0 0 0 0 0 0 0 0 127 0"/>
<feOffset/>
<feGaussianBlur stdDeviation="2"/>
<feColorMatrix type="matrix" values="0 0 0 0 0 0 0 0 0 0 0 0 0 0 0 0 0 0 0.5 0"/>
<feBlend mode="normal" in2="BackgroundImageFix" result="effect1_dropShadow"/>
<feBlend mode="normal" in="SourceGraphic" in2="effect1_dropShadow" result="shape"/>
</filter>
</defs>
</svg>
