<svg width="85" height="85" viewBox="0 0 85 85" fill="none" xmlns="http://www.w3.org/2000/svg">
<path d="M37.4869 15.0028C37.3415 15.0305 37.2106 15.1087 37.1172 15.2236C37.0239 15.3385 36.9741 15.4827 36.9767 15.6307V36.9795H15.6279C15.4614 36.9795 15.3017 37.0457 15.1839 37.1634C15.0662 37.2812 15 37.4409 15 37.6074V46.3981C15 46.5646 15.0662 46.7243 15.1839 46.8421C15.3017 46.9598 15.4614 47.026 15.6279 47.026H36.9767V68.3749C36.9768 68.5414 37.0429 68.7011 37.1607 68.8188C37.2784 68.9366 37.4381 69.0027 37.6047 69.0028H46.3953C46.5619 69.0027 46.7216 68.9366 46.8393 68.8188C46.9571 68.7011 47.0232 68.5414 47.0233 68.3749V47.026H68.3721C68.5386 47.026 68.6983 46.9598 68.8161 46.8421C68.9338 46.7243 69 46.5646 69 46.3981V37.6074C69 37.4409 68.9338 37.2812 68.8161 37.1634C68.6983 37.0457 68.5386 36.9795 68.3721 36.9795H47.0233V15.6307C47.0232 15.4641 46.9571 15.3044 46.8393 15.1867C46.7216 15.0689 46.5619 15.0028 46.3953 15.0028H37.6047C37.5655 14.9991 37.5261 14.9991 37.4869 15.0028V15.0028ZM38.2326 16.2586H45.7674V37.6074C45.7675 37.7739 45.8336 37.9336 45.9514 38.0514C46.0691 38.1691 46.2288 38.2353 46.3953 38.2353H67.7442V45.7702H46.3953C46.2288 45.7702 46.0691 45.8364 45.9514 45.9541C45.8336 46.0719 45.7675 46.2316 45.7674 46.3981V67.747H38.2326V46.3981C38.2325 46.2316 38.1664 46.0719 38.0486 45.9541C37.9309 45.8364 37.7712 45.7702 37.6047 45.7702H16.2558V38.2353H37.6047C37.7712 38.2353 37.9309 38.1691 38.0486 38.0514C38.1664 37.9336 38.2325 37.7739 38.2326 37.6074V16.2586Z" stroke="#39891C" stroke-width="2"/>
<rect x="0.5" y="0.5" width="84" height="84" rx="2.5" stroke="#C4C4C4"/>
</svg>
