<svg width="44" height="44" viewBox="0 0 44 44" fill="none" xmlns="http://www.w3.org/2000/svg">
<path d="M21.9999 9.99158C15.3797 9.99158 9.99158 15.3779 9.99158 21.9999C9.99158 28.6219 15.3779 34.0082 21.9999 34.0082C28.6219 34.0082 34.0082 28.6219 34.0082 21.9999C34.0082 15.3779 28.6201 9.99158 21.9999 9.99158ZM21.9999 32.1749C16.3899 32.1749 11.8249 27.6117 11.8249 21.9999C11.8249 16.3881 16.3899 11.8249 21.9999 11.8249C27.6099 11.8249 32.1749 16.3881 32.1749 21.9999C32.1749 27.6117 27.6099 32.1749 21.9999 32.1749Z" fill="#555555"/>
<path d="M22.9167 0H21.0834V5.5H22.9167V0Z" fill="#555555"/>
<path d="M22.9167 38.5H21.0834V44H22.9167V38.5Z" fill="#555555"/>
<path d="M44 21.0834H38.5V22.9167H44V21.0834Z" fill="#555555"/>
<path d="M5.5 21.0834H0V22.9167H5.5V21.0834Z" fill="#555555"/>
<path d="M33.0182 9.68413L34.3146 10.9805L38.2037 7.09146L36.9073 5.79513L33.0182 9.68413Z" fill="#555555"/>
<path d="M5.79645 36.9092L7.09277 38.2056L10.9817 34.3164L9.68541 33.02L5.79645 36.9092Z" fill="#555555"/>
<path d="M33.017 34.3158L36.9066 38.2043L38.2027 36.9078L34.3131 33.0193L33.017 34.3158Z" fill="#555555"/>
<path d="M10.9814 9.68282L7.09186 5.79431L5.7957 7.09085L9.68528 10.9794L10.9814 9.68282Z" fill="#555555"/>
</svg>
