<svg width="38" height="38" viewBox="0 0 38 38" fill="none" xmlns="http://www.w3.org/2000/svg">
<path d="M20.0977 38C14.7295 38 9.6825 35.8976 5.88651 32.0799C2.09061 28.2623 0 23.1865 0 17.7877C0 10.4567 3.96143 3.68518 10.3384 0.115961C10.6914 -0.08166 11.1319 -0.022493 11.4209 0.261398C11.7101 0.545381 11.7793 0.986653 11.5912 1.34643C10.2237 3.96135 9.5008 6.91447 9.5008 9.8865C9.5008 20.0184 17.697 28.2613 27.7714 28.2613C30.8763 28.2613 33.9437 27.463 36.6421 25.9526C36.9953 25.7551 37.4355 25.8143 37.7247 26.0982C38.0138 26.3821 38.0831 26.8234 37.8949 27.1832C34.4055 33.8552 27.586 38 20.0977 38ZM8.73599 3.39798C4.41564 6.85337 1.82706 12.1379 1.82706 17.7877C1.82706 27.9196 10.0232 36.1625 20.0976 36.1625C25.8953 36.1625 31.2522 33.4293 34.6737 28.8714C32.4725 29.6792 30.1315 30.0988 27.7713 30.0988C22.4029 30.0988 17.3561 27.9964 13.5601 24.1787C9.76417 20.3611 7.67356 15.2854 7.67356 9.8865C7.67365 7.6784 8.03659 5.47948 8.73599 3.39798Z" fill="#555555"/>
</svg>
