<svg width="20" height="22" viewBox="0 0 20 22" fill="none" xmlns="http://www.w3.org/2000/svg">
<path d="M12.8703 17.673C12.8703 19.0068 11.789 20.0881 10.4552 20.0881H9.40009C8.06667 20.0881 6.98571 19.0072 6.98571 17.6737C6.98571 16.7673 6.45137 15.9654 5.75924 15.3801C4.32408 14.1664 3.45523 12.3607 3.45523 10.4378C3.45523 6.86946 6.35888 3.96558 9.92813 3.96558C13.4964 3.96558 16.4001 6.86922 16.4001 10.4378C16.4001 12.3602 15.531 14.1657 14.0959 15.3799C13.4041 15.9652 12.8703 16.7669 12.8703 17.673ZM7.69199 19.3818H9.94431C11.1705 19.3818 12.1645 18.3878 12.1645 17.1616V15.9774C12.1645 15.8403 12.2436 15.7156 12.3677 15.6572C14.388 14.7104 15.6938 12.6618 15.6938 10.438C15.6938 7.25864 13.1075 4.6721 9.92813 4.6721C6.74853 4.6721 4.16152 7.25864 4.16152 10.438C4.16152 12.6625 5.46751 14.7112 7.48836 15.6572C7.61244 15.7151 7.69176 15.8397 7.69176 15.9766V19.3816C7.69176 19.3817 7.69186 19.3818 7.69199 19.3818Z" fill="#FB9F35"/>
<path d="M11.5487 21.1444C11.3588 21.6585 10.8687 22 10.3206 22H9.62249C9.07439 22 8.58431 21.6585 8.39445 21.1444C8.07881 20.2896 8.71128 19.3818 9.62249 19.3818H10.3206C11.2318 19.3818 11.8643 20.2896 11.5487 21.1444ZM9.05706 20.8999C9.14451 21.1367 9.37021 21.2939 9.62264 21.2939H10.3203C10.5727 21.2939 10.7984 21.1367 10.8858 20.9C11.0313 20.5063 10.74 20.0881 10.3203 20.0881H9.62264C9.20296 20.0881 8.91166 20.5062 9.05706 20.8999Z" fill="#FB9F35"/>
<path d="M10.8542 16.4981H7.69177C7.4968 16.4981 7.33875 16.6562 7.33875 16.8512C7.33875 17.0461 7.4968 17.2042 7.69177 17.2042H10.8542C11.0492 17.2042 11.2073 17.0461 11.2073 16.8512C11.2073 16.6562 11.0492 16.4981 10.8542 16.4981Z" fill="#FB9F35"/>
<path d="M10.8542 17.8662H7.69177C7.4968 17.8662 7.33875 18.0243 7.33875 18.2193C7.33875 18.4142 7.4968 18.5723 7.69177 18.5723H10.8542C11.0492 18.5723 11.2073 18.4142 11.2073 18.2193C11.2073 18.0243 11.0492 17.8662 10.8542 17.8662Z" fill="#FB9F35"/>
<path d="M9.55226 15.2556V11.6073C9.55226 11.4123 9.39416 11.2542 9.19912 11.2542C9.00409 11.2542 8.84598 11.4123 8.84598 11.6073V15.2556C8.84598 15.4506 9.00409 15.6087 9.19912 15.6087C9.39416 15.6087 9.55226 15.4506 9.55226 15.2556Z" fill="#FB9F35"/>
<path d="M10.9646 15.2556V11.6073C10.9646 11.4123 10.8065 11.2542 10.6114 11.2542C10.4164 11.2542 10.2583 11.4123 10.2583 11.6073V15.2556C10.2583 15.4506 10.4164 15.6087 10.6114 15.6087C10.8065 15.6087 10.9646 15.4506 10.9646 15.2556Z" fill="#FB9F35"/>
<path d="M10.5671 11.6072H9.17687C8.62949 11.6072 8.18393 11.1619 8.18393 10.6143C8.18393 10.0669 8.62949 9.62134 9.17687 9.62134H10.5671C11.1147 9.62134 11.56 10.0669 11.56 10.6143C11.56 11.1619 11.1147 11.6072 10.5671 11.6072ZM9.17711 10.3274C9.01915 10.3274 8.89021 10.4563 8.89021 10.6143C8.89021 10.7722 9.01915 10.9012 9.17711 10.9012H10.5673C10.7253 10.9012 10.8542 10.7722 10.8542 10.6143C10.8542 10.4563 10.7253 10.3274 10.5673 10.3274H9.17711Z" fill="#FB9F35"/>
<path d="M1.99461 9.62134H0.406003C0.211033 9.62134 0.0529785 9.77939 0.0529785 9.97436C0.0529785 10.1693 0.211033 10.3274 0.406003 10.3274H1.99461C2.18958 10.3274 2.34763 10.1693 2.34763 9.97436C2.34763 9.77939 2.18958 9.62134 1.99461 9.62134Z" fill="#FB9F35" fill-opacity="0.3"/>
<path d="M19.647 9.62134H18.0584C17.8634 9.62134 17.7054 9.77939 17.7054 9.97436C17.7054 10.1693 17.8634 10.3274 18.0584 10.3274H19.647C19.842 10.3274 20 10.1693 20 9.97436C20 9.77939 19.842 9.62134 19.647 9.62134Z" fill="#FB9F35" fill-opacity="0.3"/>
<path d="M3.4747 17.0268L4.59785 15.903C4.73572 15.7651 4.73566 15.5415 4.59771 15.4036C4.45976 15.2658 4.23616 15.2658 4.09829 15.4038L2.97514 16.5276C2.83727 16.6655 2.83733 16.8891 2.97528 17.027C3.11323 17.1648 3.33682 17.1648 3.4747 17.0268Z" fill="#FB9F35" fill-opacity="0.3"/>
<path d="M15.9549 4.54419L17.0785 3.42087C17.2164 3.28303 17.2164 3.05951 17.0786 2.92163C16.9408 2.78374 16.7172 2.78371 16.5794 2.92155L15.4557 4.04487C15.3178 4.18271 15.3178 4.40623 15.4556 4.54411C15.5935 4.682 15.817 4.68203 15.9549 4.54419Z" fill="#FB9F35" fill-opacity="0.3"/>
<path d="M10.3794 1.94223V0.353143C10.3794 0.158107 10.2213 0 10.0263 0C9.83123 0 9.67313 0.158107 9.67313 0.353142V1.94223C9.67313 2.13726 9.83123 2.29537 10.0263 2.29537C10.2213 2.29537 10.3794 2.13726 10.3794 1.94223Z" fill="#FB9F35" fill-opacity="0.3"/>
<path d="M17.0791 16.5292L15.9555 15.4048C15.8177 15.2669 15.5941 15.2668 15.4562 15.4046C15.3183 15.5424 15.3182 15.766 15.456 15.9039L16.5797 17.0283C16.7175 17.1663 16.941 17.1663 17.079 17.0285C17.2169 16.8907 17.217 16.6672 17.0791 16.5292Z" fill="#FB9F35" fill-opacity="0.3"/>
<path d="M4.59688 4.04573L3.47339 2.92144C3.33552 2.78348 3.11191 2.7834 2.97394 2.92127C2.83597 3.05914 2.83589 3.28275 2.97376 3.42072L4.09726 4.545C4.23513 4.68297 4.45874 4.68305 4.59671 4.54518C4.73467 4.40731 4.73475 4.1837 4.59688 4.04573Z" fill="#FB9F35" fill-opacity="0.3"/>
</svg>
