<svg width="32" height="35" viewBox="0 0 32 35" fill="none" xmlns="http://www.w3.org/2000/svg">
<path d="M20.3911 28.1162C20.3911 30.2381 18.6709 31.9583 16.549 31.9583H14.8703C12.749 31.9583 11.0293 30.2386 11.0293 28.1173C11.0293 26.6752 10.1792 25.3994 9.07806 24.4683C6.79485 22.5375 5.4126 19.6647 5.4126 16.6055C5.4126 10.9287 10.032 6.30884 15.7104 6.30884C21.3872 6.30884 26.0067 10.9283 26.0067 16.6055C26.0067 19.6639 24.6241 22.5363 22.3409 24.468C21.2404 25.3991 20.3911 26.6746 20.3911 28.1162ZM12.1529 30.8347H15.7361C17.6869 30.8347 19.2683 29.2533 19.2683 27.3026V25.4186C19.2683 25.2005 19.3942 25.0021 19.5915 24.9092C22.8057 23.4029 24.883 20.1437 24.883 16.6059C24.883 11.5478 20.7685 7.43285 15.7104 7.43285C10.6519 7.43285 6.53623 11.5478 6.53623 16.6059C6.53623 20.1448 8.61396 23.4041 11.8289 24.9092C12.0263 25.0013 12.1525 25.1994 12.1525 25.4173V30.8343C12.1525 30.8345 12.1527 30.8347 12.1529 30.8347Z" fill="#7D7D7D"/>
<path d="M18.2887 33.6388C17.9866 34.4568 17.207 35 16.335 35H15.2243C14.3524 35 13.5727 34.4568 13.2706 33.6388C12.7685 32.2789 13.7747 30.8347 15.2243 30.8347H16.335C17.7846 30.8347 18.7908 32.2789 18.2887 33.6388ZM14.3248 33.2498C14.4639 33.6266 14.823 33.8767 15.2246 33.8767H16.3345C16.736 33.8767 17.0951 33.6266 17.2342 33.25C17.4657 32.6236 17.0022 31.9584 16.3345 31.9584H15.2246C14.5569 31.9584 14.0935 32.6235 14.3248 33.2498Z" fill="#7D7D7D"/>
<path d="M17.1839 26.2472H12.1527C11.8425 26.2472 11.5911 26.4986 11.5911 26.8088C11.5911 27.119 11.8425 27.3705 12.1527 27.3705H17.1839C17.4941 27.3705 17.7455 27.119 17.7455 26.8088C17.7455 26.4986 17.4941 26.2472 17.1839 26.2472Z" fill="#7D7D7D"/>
<path d="M17.1839 28.4236H12.1527C11.8425 28.4236 11.5911 28.675 11.5911 28.9852C11.5911 29.2954 11.8425 29.5468 12.1527 29.5468H17.1839C17.4941 29.5468 17.7455 29.2954 17.7455 28.9852C17.7455 28.675 17.4941 28.4236 17.1839 28.4236Z" fill="#7D7D7D"/>
<path d="M15.1124 24.2701V18.4661C15.1124 18.1558 14.8609 17.9043 14.5506 17.9043C14.2403 17.9043 13.9888 18.1558 13.9888 18.4661V24.2701C13.9888 24.5804 14.2403 24.8319 14.5506 24.8319C14.8609 24.8319 15.1124 24.5804 15.1124 24.2701Z" fill="#7D7D7D"/>
<path d="M17.3595 24.2701V18.4661C17.3595 18.1558 17.1079 17.9043 16.7977 17.9043C16.4874 17.9043 16.2358 18.1558 16.2358 18.4661V24.2701C16.2358 24.5804 16.4874 24.8319 16.7977 24.8319C17.1079 24.8319 17.3595 24.5804 17.3595 24.2701Z" fill="#7D7D7D"/>
<path d="M16.7272 18.466H14.5155C13.6446 18.466 12.9358 17.7575 12.9358 16.8863C12.9358 16.0155 13.6446 15.3066 14.5155 15.3066H16.7272C17.5984 15.3066 18.3068 16.0155 18.3068 16.8863C18.3068 17.7575 17.5984 18.466 16.7272 18.466ZM14.5158 16.4299C14.2646 16.4299 14.0594 16.635 14.0594 16.8863C14.0594 17.1376 14.2646 17.3427 14.5158 17.3427H16.7275C16.9788 17.3427 17.184 17.1376 17.184 16.8863C17.184 16.635 16.9788 16.4299 16.7275 16.4299H14.5158Z" fill="#7D7D7D"/>
<path d="M3.08896 15.3066H0.561629C0.25145 15.3066 0 15.5581 0 15.8683C0 16.1784 0.25145 16.4299 0.561629 16.4299H3.08896C3.39914 16.4299 3.65059 16.1784 3.65059 15.8683C3.65059 15.5581 3.39914 15.3066 3.08896 15.3066Z" fill="#7D7D7D"/>
<path d="M31.1722 15.3066H28.6449C28.3347 15.3066 28.0833 15.5581 28.0833 15.8683C28.0833 16.1784 28.3347 16.4299 28.6449 16.4299H31.1722C31.4824 16.4299 31.7338 16.1784 31.7338 15.8683C31.7338 15.5581 31.4824 15.3066 31.1722 15.3066Z" fill="#7D7D7D"/>
<path d="M5.44353 27.0883L7.23036 25.3004C7.4497 25.081 7.4496 24.7253 7.23014 24.5059C7.01067 24.2866 6.65495 24.2867 6.43561 24.5061L4.64878 26.294C4.42944 26.5135 4.42954 26.8692 4.649 27.0885C4.86847 27.3079 5.22419 27.3078 5.44353 27.0883Z" fill="#7D7D7D"/>
<path d="M25.2985 7.22938L27.086 5.44229C27.3054 5.223 27.3055 4.8674 27.0862 4.64804C26.8669 4.42868 26.5113 4.42863 26.2919 4.64793L24.5043 6.43502C24.2849 6.65431 24.2849 7.00991 24.5042 7.22927C24.7235 7.44863 25.0791 7.44868 25.2985 7.22938Z" fill="#7D7D7D"/>
<path d="M16.4283 3.08991V0.561818C16.4283 0.251535 16.1768 0 15.8665 0C15.5562 0 15.3047 0.251534 15.3047 0.561818V3.08991C15.3047 3.40019 15.5562 3.65172 15.8665 3.65172C16.1768 3.65172 16.4283 3.40019 16.4283 3.08991Z" fill="#7D7D7D"/>
<path d="M27.0871 26.2966L25.2995 24.5076C25.0802 24.2882 24.7246 24.2881 24.5052 24.5074C24.2857 24.7266 24.2856 25.0823 24.5049 25.3017L26.2925 27.0906C26.5118 27.31 26.8674 27.3101 27.0868 27.0909C27.3063 26.8716 27.3064 26.516 27.0871 26.2966Z" fill="#7D7D7D"/>
<path d="M7.22896 6.43643L5.44158 4.6478C5.22224 4.4283 4.8665 4.42818 4.647 4.64752C4.42751 4.86685 4.42738 5.2226 4.64672 5.44209L6.4341 7.23073C6.65343 7.45022 7.00918 7.45035 7.22867 7.23101C7.44817 7.01167 7.44829 6.65593 7.22896 6.43643Z" fill="#7D7D7D"/>
</svg>
