<svg width="20" height="22" viewBox="0 0 20 22" fill="none" xmlns="http://www.w3.org/2000/svg">
<path d="M12.8703 17.673C12.8703 19.0068 11.789 20.0881 10.4552 20.0881H9.40008C8.06665 20.0881 6.98569 19.0072 6.98569 17.6737V17.6737C6.98569 16.7673 6.45135 15.9654 5.75922 15.3801C4.32406 14.1664 3.45522 12.3607 3.45522 10.4378C3.45522 6.86946 6.35886 3.96558 9.92811 3.96558C13.4964 3.96558 16.4001 6.86922 16.4001 10.4378C16.4001 12.3602 15.531 14.1657 14.0958 15.3799C13.4041 15.9652 12.8703 16.7669 12.8703 17.673V17.673ZM7.69198 19.3818H9.9443C11.1705 19.3818 12.1645 18.3878 12.1645 17.1616V15.9774C12.1645 15.8403 12.2436 15.7156 12.3676 15.6572V15.6572C14.388 14.7104 15.6938 12.6618 15.6938 10.438C15.6938 7.25864 13.1075 4.6721 9.92811 4.6721C6.74852 4.6721 4.1615 7.25864 4.1615 10.438C4.1615 12.6625 5.4675 14.7112 7.48835 15.6572V15.6572C7.61243 15.7151 7.69174 15.8397 7.69174 15.9766V19.3816C7.69174 19.3817 7.69185 19.3818 7.69198 19.3818V19.3818Z" fill="#3BB30B"/>
<path d="M11.5486 21.1444C11.3588 21.6585 10.8687 22 10.3206 22H9.62248C9.07437 22 8.58429 21.6585 8.39443 21.1444V21.1444C8.0788 20.2896 8.71127 19.3818 9.62248 19.3818H10.3206C11.2318 19.3818 11.8643 20.2896 11.5486 21.1444V21.1444ZM9.05704 20.8999C9.14449 21.1367 9.3702 21.2939 9.62263 21.2939H10.3203C10.5727 21.2939 10.7984 21.1367 10.8858 20.9V20.9C11.0313 20.5063 10.74 20.0881 10.3203 20.0881H9.62263C9.20294 20.0881 8.91165 20.5062 9.05704 20.8999V20.8999Z" fill="#3BB30B"/>
<path d="M10.8542 16.4982H7.69174C7.49677 16.4982 7.33871 16.6562 7.33871 16.8512C7.33871 17.0461 7.49677 17.2042 7.69174 17.2042H10.8542C11.0492 17.2042 11.2072 17.0461 11.2072 16.8512C11.2072 16.6562 11.0492 16.4982 10.8542 16.4982Z" fill="#3BB30B"/>
<path d="M10.8542 17.8662H7.69174C7.49677 17.8662 7.33871 18.0243 7.33871 18.2193C7.33871 18.4142 7.49677 18.5723 7.69174 18.5723H10.8542C11.0492 18.5723 11.2072 18.4142 11.2072 18.2193C11.2072 18.0243 11.0492 17.8662 10.8542 17.8662Z" fill="#3BB30B"/>
<path d="M9.55225 15.2556V11.6073C9.55225 11.4123 9.39414 11.2542 9.19911 11.2542C9.00407 11.2542 8.84596 11.4123 8.84596 11.6073V15.2556C8.84596 15.4506 9.00407 15.6087 9.19911 15.6087C9.39414 15.6087 9.55225 15.4506 9.55225 15.2556Z" fill="#3BB30B"/>
<path d="M10.9646 15.2556V11.6073C10.9646 11.4123 10.8065 11.2542 10.6114 11.2542C10.4164 11.2542 10.2583 11.4123 10.2583 11.6073V15.2556C10.2583 15.4506 10.4164 15.6087 10.6114 15.6087C10.8065 15.6087 10.9646 15.4506 10.9646 15.2556Z" fill="#3BB30B"/>
<path d="M10.5671 11.6072H9.17687C8.62949 11.6072 8.18393 11.1619 8.18393 10.6143C8.18393 10.0669 8.62949 9.62132 9.17687 9.62132H10.5671C11.1147 9.62132 11.56 10.0669 11.56 10.6143C11.56 11.1619 11.1147 11.6072 10.5671 11.6072ZM9.17711 10.3274C9.01915 10.3274 8.89021 10.4563 8.89021 10.6143C8.89021 10.7722 9.01915 10.9012 9.17711 10.9012H10.5673C10.7253 10.9012 10.8542 10.7722 10.8542 10.6143C10.8542 10.4563 10.7253 10.3274 10.5673 10.3274H9.17711Z" fill="#3BB30B"/>
<path d="M1.99459 9.62132H0.405987C0.211018 9.62132 0.0529633 9.77938 0.0529633 9.97435C0.0529633 10.1693 0.211018 10.3274 0.405987 10.3274H1.99459C2.18956 10.3274 2.34762 10.1693 2.34762 9.97435C2.34762 9.77938 2.18956 9.62132 1.99459 9.62132Z" fill="#3BB30B"/>
<path d="M19.647 9.62132H18.0584C17.8634 9.62132 17.7054 9.77938 17.7054 9.97435C17.7054 10.1693 17.8634 10.3274 18.0584 10.3274H19.647C19.842 10.3274 20 10.1693 20 9.97435C20 9.77938 19.842 9.62132 19.647 9.62132Z" fill="#3BB30B"/>
<path d="M3.4747 17.0268L4.59785 15.9031C4.73572 15.7651 4.73566 15.5415 4.59771 15.4036C4.45976 15.2658 4.23616 15.2658 4.09829 15.4038L2.97514 16.5276C2.83727 16.6655 2.83733 16.8891 2.97528 17.027C3.11323 17.1649 3.33682 17.1648 3.4747 17.0268Z" fill="#3BB30B"/>
<path d="M15.9549 4.54419L17.0785 3.42087C17.2164 3.28303 17.2165 3.05951 17.0786 2.92163C16.9408 2.78374 16.7172 2.78371 16.5794 2.92155L15.4557 4.04487C15.3179 4.18271 15.3178 4.40623 15.4557 4.54411C15.5935 4.682 15.817 4.68203 15.9549 4.54419Z" fill="#3BB30B"/>
<path d="M10.3794 1.94223V0.353143C10.3794 0.158107 10.2213 0 10.0262 0C9.8312 0 9.6731 0.158107 9.6731 0.353142V1.94223C9.6731 2.13726 9.8312 2.29537 10.0262 2.29537C10.2213 2.29537 10.3794 2.13726 10.3794 1.94223Z" fill="#3BB30B"/>
<path d="M17.0791 16.5292L15.9555 15.4048C15.8176 15.2669 15.5941 15.2668 15.4562 15.4046C15.3183 15.5424 15.3182 15.766 15.456 15.9039L16.5797 17.0283C16.7175 17.1663 16.941 17.1663 17.079 17.0285C17.2169 16.8907 17.217 16.6672 17.0791 16.5292Z" fill="#3BB30B"/>
<path d="M4.59687 4.04573L3.47338 2.92144C3.33551 2.78348 3.11189 2.7834 2.97393 2.92127C2.83596 3.05914 2.83588 3.28275 2.97375 3.42072L4.09724 4.545C4.23511 4.68297 4.45872 4.68305 4.59669 4.54518C4.73466 4.40731 4.73474 4.1837 4.59687 4.04573Z" fill="#3BB30B"/>
</svg>
