<svg width="14" height="19" viewBox="0 0 14 19" fill="none" xmlns="http://www.w3.org/2000/svg">
<path d="M9.87029 14.673C9.87029 16.0068 8.78903 17.0881 7.45523 17.0881H6.40008C5.06665 17.0881 3.98569 16.0072 3.98569 14.6737V14.6737C3.98569 13.7673 3.45135 12.9654 2.75922 12.3801C1.32406 11.1664 0.455215 9.36066 0.455215 7.43776C0.455215 3.86946 3.35886 0.965576 6.92811 0.965576C10.4964 0.965576 13.4001 3.86922 13.4001 7.43776C13.4001 9.36016 12.531 11.1657 11.0958 12.3799C10.4041 12.9652 9.87029 13.7669 9.87029 14.673V14.673ZM4.69198 16.3818H6.9443C8.17047 16.3818 9.16448 15.3878 9.16448 14.1616V12.9774C9.16448 12.8403 9.24363 12.7156 9.36764 12.6572V12.6572C11.388 11.7104 12.6938 9.66176 12.6938 7.438C12.6938 4.25864 10.1075 1.6721 6.92811 1.6721C3.74852 1.6721 1.1615 4.25864 1.1615 7.438C1.1615 9.66247 2.4675 11.7112 4.48835 12.6572V12.6572C4.61243 12.7151 4.69174 12.8397 4.69174 12.9766V16.3816C4.69174 16.3817 4.69185 16.3818 4.69198 16.3818V16.3818Z" fill="#B30B0B"/>
<path d="M8.54863 18.1444C8.35877 18.6585 7.8687 19 7.32059 19H6.62248C6.07437 19 5.58429 18.6585 5.39443 18.1444V18.1444C5.0788 17.2896 5.71127 16.3818 6.62248 16.3818H7.32059C8.2318 16.3818 8.86427 17.2896 8.54863 18.1444V18.1444ZM6.05704 17.8999C6.14449 18.1367 6.3702 18.2939 6.62263 18.2939H7.32028C7.57267 18.2939 7.79835 18.1367 7.88583 17.9V17.9C8.03131 17.5063 7.74001 17.0881 7.32028 17.0881H6.62263C6.20294 17.0881 5.91165 17.5062 6.05704 17.8999V17.8999Z" fill="#B30B0B"/>
<path d="M7.8542 13.4981H4.69174C4.49677 13.4981 4.33871 13.6562 4.33871 13.8512C4.33871 14.0461 4.49677 14.2042 4.69174 14.2042H7.8542C8.04917 14.2042 8.20723 14.0461 8.20723 13.8512C8.20723 13.6562 8.04917 13.4981 7.8542 13.4981Z" fill="#B30B0B"/>
<path d="M7.8542 14.8662H4.69174C4.49677 14.8662 4.33871 15.0243 4.33871 15.2193C4.33871 15.4142 4.49677 15.5723 4.69174 15.5723H7.8542C8.04917 15.5723 8.20723 15.4142 8.20723 15.2193C8.20723 15.0243 8.04917 14.8662 7.8542 14.8662Z" fill="#B30B0B"/>
<path d="M6.55225 12.2556V8.60732C6.55225 8.41229 6.39414 8.25418 6.19911 8.25418C6.00407 8.25418 5.84596 8.41229 5.84596 8.60732V12.2556C5.84596 12.4506 6.00407 12.6087 6.19911 12.6087C6.39414 12.6087 6.55225 12.4506 6.55225 12.2556Z" fill="#B30B0B"/>
<path d="M7.96459 12.2556V8.60732C7.96459 8.41229 7.80648 8.25418 7.61144 8.25418C7.41641 8.25418 7.2583 8.41229 7.2583 8.60732V12.2556C7.2583 12.4506 7.41641 12.6087 7.61144 12.6087C7.80648 12.6087 7.96459 12.4506 7.96459 12.2556Z" fill="#B30B0B"/>
<path d="M7.56706 8.60722H6.17685C5.62948 8.60722 5.18391 8.16189 5.18391 7.61428C5.18391 7.0669 5.62948 6.62134 6.17685 6.62134H7.56706C8.11468 6.62134 8.56 7.0669 8.56 7.61428C8.56 8.16189 8.11468 8.60722 7.56706 8.60722ZM6.17709 7.32739C6.01913 7.32739 5.8902 7.45632 5.8902 7.61428C5.8902 7.77223 6.01913 7.90117 6.17709 7.90117H7.5673C7.72526 7.90117 7.85419 7.77223 7.85419 7.61428C7.85419 7.45632 7.72526 7.32739 7.5673 7.32739H6.17709Z" fill="#B30B0B"/>
</svg>
