<svg width="29" height="29" viewBox="0 0 29 29" fill="none" xmlns="http://www.w3.org/2000/svg">
<path d="M16.1414 22.8122C16.1414 21.9043 15.406 21.168 14.499 21.168C13.591 21.168 12.8556 21.9043 12.8556 22.8122V27.3556C12.8556 28.2618 13.5909 28.998 14.499 28.998C15.406 28.998 16.1414 28.2618 16.1414 27.3556C16.1414 27.3539 16.1414 27.3539 16.1414 27.352V22.814V22.8122Z" fill="black" fill-opacity="0.4"/>
<path d="M16.1414 1.60532C16.1202 0.715974 15.3936 0 14.499 0C13.6043 0 12.8768 0.715974 12.8565 1.60532H12.8556V6.18583V6.18674C12.8556 7.09381 13.5909 7.83012 14.499 7.83012C15.406 7.83012 16.1414 7.09381 16.1414 6.18674V1.64593V1.64423C16.1414 1.64248 16.1414 1.64248 16.1414 1.64066V1.60532Z" fill="black" fill-opacity="0.4"/>
<path d="M24.7493 22.4265L21.5405 19.2177C21.5396 19.216 21.5396 19.216 21.5387 19.216C20.8971 18.5734 19.8565 18.5734 19.215 19.216C18.5734 19.8567 18.5734 20.8974 19.215 21.5398L22.4274 24.7523C23.0689 25.393 24.1096 25.393 24.7511 24.7523C25.3926 24.1097 25.3926 23.0689 24.7511 22.4284C24.7501 22.4265 24.7501 22.4265 24.7493 22.4265Z" fill="black" fill-opacity="0.4"/>
<path d="M4.21944 6.54419L7.4584 9.78224C7.4584 9.78224 7.4584 9.78224 7.4584 9.784C8.10086 10.4247 9.14154 10.4247 9.78219 9.78309C10.4247 9.14148 10.4247 8.1008 9.78219 7.45919L6.5716 4.24945C6.5716 4.2477 6.5716 4.2477 6.56985 4.24679C6.56985 4.24679 6.56894 4.24589 6.56815 4.24504L6.54334 4.22023V4.22114C5.89907 3.60519 4.87962 3.61408 4.246 4.24679C3.61414 4.87951 3.60525 5.89992 4.22035 6.54322L4.21944 6.54419Z" fill="black" fill-opacity="0.4"/>
<path d="M27.3537 12.8565C27.3537 12.8565 27.3527 12.8565 27.352 12.8565H22.814C22.814 12.8565 22.8123 12.8565 22.8114 12.8565C21.9041 12.8565 21.1679 13.5919 21.1679 14.499C21.1679 15.407 21.9041 16.1433 22.8114 16.1433H27.3537C28.2616 16.1433 28.9978 15.407 28.9978 14.499C28.9978 13.5919 28.2616 12.8565 27.3537 12.8565Z" fill="black" fill-opacity="0.4"/>
<path d="M6.18493 16.1433H6.18589C7.09376 16.1433 7.82921 15.407 7.82921 14.499C7.82921 13.5919 7.09381 12.8565 6.18589 12.8565H1.64604C1.64429 12.8565 1.64429 12.8565 1.64429 12.8565C1.64253 12.8565 1.64072 12.8565 1.64072 12.8565H1.60532C0.715068 12.8777 0 13.6043 0 14.499C0 15.3947 0.715068 16.1203 1.60538 16.1416V16.1433H6.18493Z" fill="black" fill-opacity="0.4"/>
<path d="M21.5387 9.78309L24.751 6.5716C25.3926 5.92915 25.3926 4.8884 24.751 4.24685C24.1096 3.6053 23.0689 3.60525 22.4273 4.24685C22.4263 4.24776 22.4263 4.24776 22.4256 4.24952L19.2168 7.4575C19.2159 7.4584 19.2159 7.4584 19.2151 7.45925C18.5735 8.10086 18.5735 9.14154 19.2151 9.78315C19.8564 10.4247 20.8971 10.4247 21.5387 9.78309Z" fill="black" fill-opacity="0.4"/>
<path d="M7.45834 19.2159L4.2477 22.4265C4.2477 22.4265 4.24679 22.4265 4.246 22.4283C4.246 22.4283 4.24504 22.4283 4.24425 22.43L4.21944 22.4548H4.2204C3.60536 23.099 3.61419 24.1185 4.24606 24.7523C4.87968 25.384 5.89912 25.393 6.54339 24.7788L9.7823 21.5398C10.4248 20.8972 10.4248 19.8565 9.7823 19.216C9.14148 18.5734 8.1008 18.5734 7.45834 19.2159Z" fill="black" fill-opacity="0.4"/>
</svg>
