<svg width="43" height="29" viewBox="0 0 43 29" fill="none" xmlns="http://www.w3.org/2000/svg">
<path d="M40.6501 0H2.85C1.69033 0 0.75 0.945708 0.75 2.112C0.75 3.2783 1.69033 4.22401 2.85 4.22401H40.6501C41.8097 4.22401 42.7501 3.2783 42.7501 2.112C42.7501 0.945708 41.8097 0 40.6501 0Z" fill="white"/>
<path d="M40.6501 23.9361H2.85C1.69033 23.9361 0.75 24.8818 0.75 26.0481C0.75 27.2144 1.69033 28.1601 2.85 28.1601H40.6501C41.8097 28.1601 42.7501 27.2144 42.7501 26.0481C42.7501 24.8818 41.8097 23.9361 40.6501 23.9361Z" fill="white"/>
<path d="M40.6501 11.7333H2.85C1.69033 11.7333 0.75 12.679 0.75 13.8453C0.75 15.0116 1.69033 15.9573 2.85 15.9573H40.6501C41.8097 15.9573 42.7501 15.0116 42.7501 13.8453C42.7501 12.679 41.8097 11.7333 40.6501 11.7333Z" fill="white"/>
</svg>
