<svg width="90" height="90" viewBox="0 0 90 90" fill="none" xmlns="http://www.w3.org/2000/svg">
<path d="M84 45.001C84 41.824 86.469 39.231 89.593 39.021C89.341 37.126 88.978 35.268 88.498 33.455C85.53 34.463 82.25 33.012 81.033 30.076C79.818 27.141 81.107 23.8 83.913 22.411C82.956 20.765 81.9 19.185 80.749 17.681C78.391 19.738 74.822 19.668 72.577 17.424C70.332 15.178 70.262 11.61 72.32 9.25296C70.815 8.10096 69.235 7.04496 67.589 6.08796C66.201 8.89396 62.86 10.183 59.926 8.96796C56.988 7.75096 55.538 4.47096 56.546 1.50296C54.733 1.02296 52.874 0.659959 50.98 0.407959C50.769 3.53096 48.175 5.99996 45 5.99996C41.823 5.99996 39.231 3.53096 39.02 0.408959C37.125 0.659959 35.266 1.02296 33.453 1.50296C34.461 4.47096 33.01 7.75096 30.075 8.96696C27.14 10.182 23.8 8.89296 22.411 6.08696C20.765 7.04496 19.185 8.09996 17.68 9.25196C19.737 11.609 19.667 15.178 17.423 17.422C15.177 19.667 11.61 19.737 9.25301 17.679C8.10101 19.184 7.04501 20.764 6.08801 22.41C8.89401 23.799 10.183 27.14 8.96801 30.073C7.75101 33.011 4.47101 34.461 1.50301 33.453C1.02301 35.266 0.660013 37.125 0.408013 39.02C3.53001 39.232 6.00001 41.826 6.00001 45C6.00001 48.177 3.53001 50.77 0.407013 50.98C0.659013 52.875 1.02201 54.734 1.50201 56.547C4.47001 55.538 7.75101 56.988 8.96701 59.926C10.182 62.862 8.89301 66.201 6.08701 67.59C7.04501 69.236 8.10001 70.816 9.25201 72.32C11.609 70.261 15.178 70.333 17.423 72.577C19.668 74.823 19.738 78.391 17.68 80.749C19.185 81.9 20.765 82.956 22.411 83.913C23.799 81.107 27.141 79.817 30.074 81.032C33.012 82.25 34.462 85.53 33.454 88.498C35.267 88.978 37.126 89.341 39.021 89.593C39.231 86.471 41.825 84 45 84C48.177 84 50.77 86.471 50.979 89.594C52.875 89.342 54.734 88.979 56.546 88.499C55.537 85.53 56.988 82.25 59.925 81.033C62.861 79.817 66.2 81.108 67.589 83.914C69.235 82.956 70.816 81.901 72.319 80.749C70.261 78.392 70.332 74.822 72.576 72.577C74.822 70.332 78.391 70.262 80.748 72.32C81.9 70.815 82.955 69.235 83.913 67.589C81.107 66.201 79.817 62.86 81.033 59.926C82.25 56.988 85.528 55.538 88.497 56.546C88.977 54.733 89.34 52.875 89.592 50.981C86.469 50.77 84 48.176 84 45.001ZM79.046 53.108L76.847 51.839L66.847 69.159L69.039 70.425C62.769 76.357 54.313 80.001 45 80.001C35.687 80.001 27.231 76.357 20.961 70.427L23.153 69.16L13.153 51.84L10.954 53.11C10.336 50.506 10 47.793 10 45.001C10 29.147 20.544 15.762 35 11.459V14H55V11.458C69.456 15.762 80 29.146 80 45C80 47.793 79.663 50.506 79.046 53.108Z" fill="#6A6A6A"/>
<path d="M62.565 46.9919L43.008 62.5649L44.839 64.8639C49.235 64.9019 53.672 63.4969 57.379 60.5449C61.086 57.5939 63.449 53.5839 64.397 49.2909L62.565 46.9919Z" fill="#6A6A6A"/>
<path d="M45.162 25.137C40.766 25.098 36.329 26.504 32.622 29.455C28.915 32.407 26.552 36.416 25.605 40.709L27.435 43.007L46.992 27.434L45.162 25.137Z" fill="#6A6A6A"/>
<path d="M35.7128 41.3619L43.5358 35.1329L43.1341 34.6284L35.3111 40.8574L35.7128 41.3619Z" fill="#6A6A6A"/>
<path d="M37.3193 43.3773L45.1423 37.1483L44.7412 36.6445L36.9182 42.8735L37.3193 43.3773Z" fill="#6A6A6A"/>
<path d="M36.5161 42.3694L44.3391 36.1404L43.9373 35.6358L36.1143 41.8648L36.5161 42.3694Z" fill="#6A6A6A"/>
<path d="M34.9095 40.3512L42.7325 34.1222L42.3308 33.6176L34.5078 39.8466L34.9095 40.3512Z" fill="#6A6A6A"/>
<path d="M41.5267 32.6127L33.7037 38.8417L34.1054 39.3463L41.9284 33.1173L41.5267 32.6127Z" fill="#6A6A6A"/>
<path d="M48.481 57.3957L56.304 51.1667L55.9029 50.6629L48.0799 56.8919L48.481 57.3957Z" fill="#6A6A6A"/>
<path d="M52.026 45.7971L54.882 43.523C54.632 41.84 53.958 40.198 52.822 38.772C51.685 37.345 50.236 36.321 48.652 35.701L45.796 37.975L45.544 37.6581L37.721 43.8871L37.973 44.204L35.117 46.4781C35.367 48.1611 36.04 49.803 37.177 51.23C38.313 52.656 39.763 53.681 41.346 54.301L44.202 52.0271L44.462 52.3531L52.285 46.1241L52.026 45.7971ZM46.558 46.9561C45.477 47.8151 43.905 47.638 43.045 46.558C42.185 45.477 42.363 43.905 43.443 43.045C44.523 42.185 46.096 42.3631 46.956 43.4431C47.815 44.5231 47.638 46.0961 46.558 46.9561Z" fill="#6A6A6A"/>
<path d="M54.2946 48.6488L46.4716 54.8778L46.8733 55.3824L54.6963 49.1534L54.2946 48.6488Z" fill="#6A6A6A"/>
<path d="M52.6869 46.6236L44.8649 52.8536L45.2661 53.3574L53.0881 47.1274L52.6869 46.6236Z" fill="#6A6A6A"/>
<path d="M53.491 47.6364L45.6688 53.8647L46.0706 54.3693L53.8928 48.141L53.491 47.6364Z" fill="#6A6A6A"/>
<path d="M55.0972 49.6555L47.275 55.8839L47.6767 56.3885L55.499 50.1601L55.0972 49.6555Z" fill="#6A6A6A"/>
<path d="M55 19.8051H35V20.4501H55V19.8051Z" fill="#6A6A6A"/>
<path d="M55 18.515H35V19.16H55V18.515Z" fill="#6A6A6A"/>
<path d="M57.5 28.163V23.349C56.695 22.884 55.857 22.47 55 22.095V21.162H35V22.095C34.142 22.47 33.305 22.884 32.5 23.349V28.163C35.995 25.562 40.309 24 45 24C49.692 24 54.006 25.562 57.5 28.163Z" fill="#6A6A6A"/>
<path d="M55 15.9351H35V16.5801H55V15.9351Z" fill="#6A6A6A"/>
<path d="M55 17.225H35V17.87H55V17.225Z" fill="#6A6A6A"/>
<path d="M55 14.645H35V15.29H55V14.645Z" fill="#6A6A6A"/>
<path d="M18.1786 48.9383L28.1786 66.2583L28.7372 65.9358L18.7372 48.6158L18.1786 48.9383Z" fill="#6A6A6A"/>
<path d="M17.0595 49.5818L27.06 66.9027L27.6186 66.5802L17.6181 49.2593L17.0595 49.5818Z" fill="#6A6A6A"/>
<path d="M26.813 55.5C24.467 51.437 23.663 46.92 24.168 42.593L20 45C19.999 45.93 20.06 46.862 20.164 47.792L19.356 48.259L29.356 65.579L30.164 65.113C30.917 65.668 31.695 66.186 32.5 66.65L36.669 64.244C32.668 62.519 29.159 59.563 26.813 55.5Z" fill="#6A6A6A"/>
<path d="M14.8283 50.8734L24.8283 68.1934L25.3869 67.8709L15.3869 50.5509L14.8283 50.8734Z" fill="#6A6A6A"/>
<path d="M15.9449 50.2291L25.9449 67.5491L26.5026 67.2271L16.5026 49.9071L15.9449 50.2291Z" fill="#6A6A6A"/>
<path d="M13.7105 51.5189L23.7105 68.8389L24.2691 68.5164L14.2691 51.1964L13.7105 51.5189Z" fill="#6A6A6A"/>
<path d="M61.821 66.2563L71.821 48.9363L71.2625 48.6138L61.2625 65.9338L61.821 66.2563Z" fill="#6A6A6A"/>
<path d="M62.9371 66.8998L72.9376 49.579L72.3791 49.2565L62.3786 66.5773L62.9371 66.8998Z" fill="#6A6A6A"/>
<path d="M65.831 42.593C66.337 46.92 65.532 51.437 63.186 55.5C60.84 59.563 57.331 62.519 53.331 64.244L57.5 66.65C58.306 66.186 59.083 65.668 59.837 65.113L60.645 65.579L70.645 48.259L69.837 47.792C69.94 46.862 70.001 45.93 70 45L65.831 42.593Z" fill="#6A6A6A"/>
<path d="M65.1722 68.1911L75.1722 50.8711L74.6136 50.5486L64.6136 67.8686L65.1722 68.1911Z" fill="#6A6A6A"/>
<path d="M64.0557 67.5461L74.0557 50.2261L73.4972 49.9036L63.4971 67.2236L64.0557 67.5461Z" fill="#6A6A6A"/>
<path d="M66.2903 68.8364L76.2903 51.5164L75.7318 51.1939L65.7318 68.5139L66.2903 68.8364Z" fill="#6A6A6A"/>
</svg>
