<svg width="52" height="27" viewBox="0 0 52 27" fill="none" xmlns="http://www.w3.org/2000/svg">
<path d="M38.8974 0H13.1021C5.87757 0 0 6.05609 0 13.5006C0 20.9445 5.87757 27 13.1021 27H38.8979C46.1224 27 52 20.9445 52 13.5C51.9994 6.05609 46.1218 0 38.8974 0ZM38.8974 24.6211H13.1021C7.15037 24.6211 2.30876 19.6319 2.30876 13.5C2.30876 7.36814 7.14979 2.37947 13.1015 2.37947H38.8974C44.8485 2.37947 49.6907 7.36814 49.6907 13.5006C49.6907 19.6319 44.849 24.6211 38.8974 24.6211Z" fill="#C3C3C3"/>
<path d="M37.5003 4.5C32.5374 4.5 28.5 8.53745 28.5 13.5003C28.5 18.462 32.5374 22.5 37.5003 22.5C42.4625 22.5 46.5 18.462 46.5 13.5003L37.5003 4.5ZM37.5003 4.5C42.4625 4.5 46.4994 8.53736 46.5 13.5003L37.5003 4.5Z" fill="#3BB30B" stroke="black"/>
</svg>
