<svg width="99" height="67" viewBox="0 0 99 67" fill="none" xmlns="http://www.w3.org/2000/svg">
<path d="M29.2301 65.5779C29.2301 65.854 29.454 66.0779 29.7301 66.0779C30.0063 66.0779 30.2301 65.854 30.2301 65.5779H29.2301ZM24.706 31.3139C24.4426 31.2311 24.1619 31.3775 24.0791 31.641C23.9963 31.9044 24.1428 32.1851 24.4062 32.2679L24.706 31.3139ZM27.86 34.222L27.9721 34.7093C28.1871 34.6599 28.3442 34.4754 28.3589 34.2553L27.86 34.222ZM18.5717 27.8013L18.5653 27.3013C18.4101 27.3033 18.2646 27.3773 18.1716 27.5015C18.0785 27.6257 18.0484 27.7861 18.0901 27.9357L18.5717 27.8013ZM29.37 47.9635C29.1784 48.1624 29.1844 48.479 29.3833 48.6705C29.5822 48.8621 29.8988 48.8561 30.0903 48.6572L29.37 47.9635ZM34.9526 43.6078C35.1442 43.4089 35.1382 43.0924 34.9393 42.9008C34.7404 42.7093 34.4239 42.7153 34.2323 42.9142L34.9526 43.6078ZM32.3483 45.6298L31.8587 45.7315C31.9055 45.9568 32.1001 46.1211 32.3301 46.1295L32.3483 45.6298ZM39.8912 37.3389L40.3879 37.2813C40.3582 37.0253 40.1387 36.8338 39.881 36.839L39.8912 37.3389ZM21.6793 45.6619C21.4905 45.4604 21.1741 45.4502 20.9726 45.6391C20.7711 45.8279 20.7609 46.1443 20.9498 46.3458L21.6793 45.6619ZM29.3654 55.3224C29.5542 55.5239 29.8707 55.5341 30.0721 55.3452C30.2736 55.1564 30.2838 54.8399 30.0949 54.6385L29.3654 55.3224ZM24.9925 49.9311L25.0296 50.4297C25.2439 50.4138 25.4241 50.2626 25.4771 50.0543L24.9925 49.9311ZM16.5146 41.0792L16.5861 40.5843C16.4493 40.5645 16.3103 40.6023 16.2023 40.6887C16.0943 40.775 16.0269 40.9022 16.0161 41.0401L16.5146 41.0792ZM34.6316 33.323C34.8925 33.2326 35.0307 32.9477 34.9403 32.6868C34.8498 32.4259 34.565 32.2877 34.3041 32.3782L34.6316 33.323ZM31.6626 34.5338L31.1742 34.6408C31.2112 34.8099 31.3332 34.9479 31.4965 35.0054L31.6626 34.5338ZM37.5224 31.1675L38.0024 31.3073C38.0422 31.1706 38.0219 31.0234 37.9465 30.9027C37.8711 30.7819 37.7478 30.699 37.6075 30.6748L37.5224 31.1675ZM30.2301 65.5779V38.835H29.2301V65.5779H30.2301ZM29.7301 38.835C30.2251 38.7643 30.2251 38.7641 30.2251 38.7639C30.225 38.7638 30.225 38.7636 30.225 38.7634C30.2249 38.7629 30.2249 38.7625 30.2248 38.7619C30.2246 38.7607 30.2244 38.7592 30.2241 38.7574C30.2236 38.7537 30.2228 38.7487 30.2218 38.7423C30.2198 38.7296 30.217 38.7115 30.2131 38.6885C30.2055 38.6426 30.1938 38.5766 30.1776 38.4932C30.1452 38.3263 30.0942 38.0891 30.0192 37.8012C29.8694 37.2265 29.6223 36.4439 29.2319 35.6143C28.456 33.9655 27.0785 32.0595 24.706 31.3139L24.4062 32.2679C26.3974 32.8937 27.6069 34.5097 28.3271 36.0401C28.6847 36.8001 28.9129 37.5215 29.0515 38.0533C29.1206 38.3186 29.1671 38.5353 29.196 38.684C29.2105 38.7584 29.2205 38.8156 29.2268 38.8534C29.23 38.8723 29.2322 38.8863 29.2336 38.8951C29.2342 38.8995 29.2347 38.9027 29.235 38.9044C29.2351 38.9053 29.2352 38.9059 29.2352 38.9061C29.2352 38.9062 29.2352 38.9062 29.2352 38.9062C29.2352 38.9061 29.2352 38.906 29.2352 38.906C29.2352 38.9059 29.2352 38.9057 29.7301 38.835ZM27.86 34.222C28.3589 34.2553 28.3589 34.2549 28.3589 34.2545C28.359 34.2543 28.359 34.2539 28.359 34.2536C28.359 34.2529 28.3591 34.2521 28.3591 34.2512C28.3593 34.2494 28.3594 34.2473 28.3595 34.2447C28.3598 34.2396 28.3601 34.2329 28.3605 34.2246C28.3612 34.2081 28.362 34.1855 28.3624 34.1571C28.3634 34.1005 28.3633 34.0207 28.3594 33.9213C28.3515 33.7226 28.3284 33.4439 28.2682 33.112C28.1479 32.449 27.8774 31.5646 27.2755 30.683C26.0515 28.8901 23.5496 27.2374 18.5653 27.3013L18.5781 28.3012C23.3185 28.2404 25.4607 29.7982 26.4497 31.2468C26.9543 31.986 27.1825 32.7301 27.2843 33.2906C27.3351 33.5703 27.3539 33.802 27.3601 33.9608C27.3633 34.0401 27.3633 34.1009 27.3626 34.14C27.3623 34.1596 27.3618 34.1737 27.3614 34.1819C27.3612 34.1861 27.3611 34.1887 27.361 34.1899C27.361 34.1905 27.361 34.1907 27.361 34.1905C27.361 34.1904 27.361 34.1902 27.361 34.1899C27.361 34.1898 27.3611 34.1895 27.3611 34.1894C27.3611 34.1891 27.3611 34.1888 27.86 34.222ZM18.5717 27.8013C18.0901 27.9357 18.0902 27.9359 18.0903 27.9362C18.0903 27.9363 18.0904 27.9366 18.0905 27.9368C18.0906 27.9374 18.0908 27.938 18.091 27.9388C18.0914 27.9403 18.092 27.9423 18.0927 27.9448C18.0941 27.9498 18.0961 27.9566 18.0987 27.9654C18.1038 27.9828 18.1113 28.0077 18.1211 28.0394C18.1408 28.1027 18.17 28.1935 18.2095 28.3074C18.2884 28.5349 18.4084 28.8554 18.5748 29.2337C18.9066 29.9881 19.4277 30.9835 20.1834 31.9312C21.7048 33.8391 24.2071 35.5756 27.9721 34.7093L27.7479 33.7348C24.4688 34.4893 22.327 33.0154 20.9652 31.3077C20.2794 30.4476 19.7992 29.5339 19.4901 28.8311C19.3361 28.4808 19.2257 28.1858 19.1543 27.9799C19.1187 27.877 19.0928 27.7966 19.0762 27.743C19.0679 27.7162 19.0618 27.696 19.0581 27.6832C19.0562 27.6767 19.0548 27.6721 19.054 27.6694C19.0537 27.668 19.0534 27.6671 19.0533 27.6667C19.0532 27.6665 19.0532 27.6664 19.0532 27.6664C19.0532 27.6664 19.0532 27.6665 19.0532 27.6665C19.0533 27.6667 19.0533 27.6669 18.5717 27.8013ZM30.0903 48.6572L34.9526 43.6078L34.2323 42.9142L29.37 47.9635L30.0903 48.6572ZM32.3483 45.6298C32.8378 45.5282 32.8379 45.5284 32.8379 45.5286C32.8379 45.5286 32.838 45.5288 32.838 45.5288C32.838 45.5289 32.838 45.5289 32.838 45.5288C32.8379 45.5285 32.8378 45.5278 32.8375 45.5265C32.837 45.5241 32.8362 45.5198 32.835 45.5136C32.8327 45.5013 32.8291 45.4816 32.8246 45.4552C32.8156 45.4022 32.8031 45.3221 32.7901 45.2187C32.7639 45.0116 32.7358 44.7124 32.7294 44.3517C32.7164 43.627 32.7913 42.6728 33.1308 41.7228C33.4683 40.7786 34.0656 39.8413 35.1043 39.1249C36.1452 38.4069 37.6683 37.8841 39.9013 37.8388L39.881 36.839C37.5011 36.8873 35.7748 37.4476 34.5365 38.3017C33.296 39.1573 32.5842 40.281 32.1891 41.3862C31.7962 42.4856 31.7152 43.569 31.7295 44.3696C31.7367 44.7716 31.768 45.107 31.7979 45.3438C31.8129 45.4624 31.8275 45.5565 31.8387 45.6224C31.8443 45.6553 31.849 45.6812 31.8525 45.6996C31.8542 45.7087 31.8556 45.716 31.8567 45.7214C31.8572 45.724 31.8577 45.7262 31.858 45.7279C31.8582 45.7288 31.8583 45.7295 31.8584 45.7301C31.8585 45.7304 31.8586 45.7307 31.8586 45.7309C31.8587 45.7312 31.8587 45.7315 32.3483 45.6298ZM39.8912 37.3389C39.3945 37.3965 39.3945 37.3963 39.3945 37.3961C39.3945 37.3961 39.3944 37.396 39.3944 37.3959C39.3944 37.3959 39.3944 37.396 39.3945 37.3962C39.3945 37.3966 39.3946 37.3975 39.3948 37.3989C39.3951 37.4017 39.3956 37.4066 39.3963 37.4133C39.3976 37.4269 39.3996 37.4482 39.402 37.4768C39.4067 37.5339 39.4129 37.6199 39.4179 37.7305C39.4279 37.9519 39.4333 38.2707 39.4142 38.6533C39.3759 39.422 39.2397 40.4306 38.8561 41.4206C38.4738 42.4075 37.8516 43.3617 36.8462 44.0541C35.8433 44.7447 34.4154 45.2049 32.3665 45.1302L32.3301 46.1295C34.5514 46.2106 36.2014 45.7123 37.4134 44.8777C38.623 44.0447 39.3527 42.9067 39.7886 41.7819C40.2232 40.6602 40.3714 39.5377 40.413 38.7031C40.4338 38.2841 40.428 37.9332 40.4168 37.6854C40.4112 37.5614 40.4043 37.4628 40.3986 37.3941C40.3957 37.3598 40.3932 37.3328 40.3913 37.3138C40.3903 37.3044 40.3896 37.2969 40.389 37.2914C40.3887 37.2887 40.3884 37.2865 40.3882 37.2848C40.3882 37.284 40.3881 37.2833 40.388 37.2827C40.388 37.2824 40.3879 37.2821 40.3879 37.2819C40.3879 37.2816 40.3879 37.2813 39.8912 37.3389ZM20.9498 46.3458L29.3654 55.3224L30.0949 54.6385L21.6793 45.6619L20.9498 46.3458ZM24.9925 49.9311C25.4771 50.0543 25.4772 50.054 25.4773 50.0536C25.4773 50.0534 25.4774 50.053 25.4775 50.0527C25.4777 50.052 25.4779 50.0512 25.4781 50.0503C25.4785 50.0486 25.4791 50.0464 25.4797 50.0437C25.481 50.0384 25.4827 50.0312 25.4848 50.0224C25.4888 50.0047 25.4943 49.9801 25.5007 49.949C25.5135 49.8868 25.5301 49.7984 25.547 49.687C25.5807 49.4646 25.6156 49.1494 25.6229 48.7679C25.6375 48.0067 25.5422 46.9693 25.0971 45.8774C24.1901 43.6527 21.8954 41.3519 16.5861 40.5843L16.443 41.574C21.4818 42.3025 23.4261 44.4277 24.1711 46.2549C24.5519 47.189 24.6358 48.0841 24.6231 48.7488C24.6168 49.0803 24.5864 49.3515 24.5583 49.5372C24.5442 49.6299 24.5308 49.701 24.5213 49.7473C24.5165 49.7704 24.5127 49.7873 24.5104 49.7975C24.5092 49.8026 24.5084 49.8061 24.5079 49.8078C24.5077 49.8087 24.5076 49.8092 24.5076 49.8092C24.5076 49.8092 24.5076 49.8091 24.5077 49.8089C24.5077 49.8088 24.5078 49.8085 24.5078 49.8085C24.5079 49.8082 24.5079 49.8079 24.9925 49.9311ZM16.5146 41.0792C16.0161 41.0401 16.0161 41.0404 16.0161 41.0407C16.016 41.0408 16.016 41.0412 16.016 41.0415C16.0159 41.0421 16.0159 41.0428 16.0158 41.0437C16.0157 41.0455 16.0155 41.0478 16.0153 41.0508C16.0149 41.0566 16.0143 41.0648 16.0137 41.0751C16.0124 41.0958 16.0107 41.1253 16.009 41.163C16.0055 41.2384 16.0017 41.3467 16.0005 41.483C15.9979 41.7554 16.0051 42.141 16.0436 42.6005C16.1203 43.516 16.3228 44.7426 16.8329 45.956C17.344 47.1722 18.1713 48.3908 19.5031 49.2565C20.8382 50.1243 22.6349 50.6077 25.0296 50.4297L24.9554 49.4325C22.7372 49.5974 21.1675 49.1457 20.0481 48.4181C18.9254 47.6883 18.2098 46.6511 17.7547 45.5685C17.2985 44.4833 17.1114 43.3683 17.0401 42.517C17.0046 42.093 16.9981 41.7388 17.0004 41.4924C17.0016 41.3692 17.0049 41.2733 17.0079 41.2092C17.0094 41.1773 17.0107 41.1533 17.0117 41.1379C17.0122 41.1302 17.0126 41.1247 17.0128 41.1214C17.0129 41.1198 17.013 41.1187 17.013 41.1181C17.0131 41.1179 17.0131 41.1178 17.0131 41.1178C17.0131 41.1178 17.0131 41.1179 17.0131 41.1179C17.013 41.1181 17.013 41.1183 16.5146 41.0792ZM29.7301 38.835C30.2301 38.8422 30.2301 38.8424 30.2301 38.8426C30.2301 38.8427 30.2301 38.8429 30.2301 38.843C30.2301 38.8432 30.2301 38.8434 30.2301 38.8435C30.2301 38.8436 30.2301 38.8436 30.2301 38.8432C30.2301 38.8425 30.2301 38.8408 30.2302 38.8381C30.2304 38.8327 30.2307 38.8234 30.2314 38.8103C30.2327 38.7841 30.2352 38.7429 30.24 38.6884C30.2497 38.5794 30.2685 38.4179 30.3049 38.2172C30.3779 37.8151 30.5209 37.2613 30.7993 36.661C31.3517 35.4701 32.4419 34.0821 34.6316 33.323L34.3041 32.3782C31.8184 33.2399 30.5397 34.8441 29.8922 36.2402C29.5706 36.9334 29.4058 37.5718 29.321 38.0385C29.2785 38.2723 29.2559 38.4643 29.2439 38.6003C29.2379 38.6683 29.2345 38.7225 29.2326 38.761C29.2316 38.7802 29.2311 38.7956 29.2307 38.8068C29.2305 38.8124 29.2304 38.817 29.2303 38.8205C29.2303 38.8223 29.2303 38.8238 29.2302 38.825C29.2302 38.8256 29.2302 38.8262 29.2302 38.8266C29.2302 38.8269 29.2302 38.8272 29.2302 38.8273C29.2302 38.8276 29.2302 38.8279 29.7301 38.835ZM31.6626 34.5338C32.151 34.4267 32.151 34.427 32.1511 34.4273C32.1511 34.4274 32.1512 34.4277 32.1512 34.4278C32.1513 34.4281 32.1513 34.4284 32.1514 34.4285C32.1515 34.4289 32.1515 34.429 32.1514 34.4288C32.1514 34.4285 32.1511 34.4271 32.1506 34.4247C32.1497 34.42 32.148 34.4113 32.1459 34.3989C32.1417 34.3742 32.1357 34.3351 32.1299 34.2841C32.1183 34.1815 32.1077 34.0332 32.1136 33.8579C32.1254 33.5031 32.2033 33.065 32.4471 32.6681C32.897 31.9356 34.0935 31.0827 37.4373 31.6602L37.6075 30.6748C34.094 30.0679 32.3606 30.8981 31.595 32.1448C31.2309 32.7375 31.1296 33.3631 31.1141 33.8245C31.1064 34.0573 31.1202 34.2553 31.1363 34.397C31.1444 34.4681 31.1531 34.5256 31.1602 34.5669C31.1637 34.5876 31.1668 34.6044 31.1692 34.6168C31.1704 34.623 31.1715 34.6281 31.1723 34.6321C31.1727 34.6341 31.1731 34.6359 31.1734 34.6373C31.1736 34.638 31.1737 34.6387 31.1738 34.6393C31.1739 34.6396 31.174 34.6399 31.174 34.6401C31.1741 34.6405 31.1742 34.6408 31.6626 34.5338ZM37.5224 31.1675C37.0423 31.0277 37.0424 31.0275 37.0424 31.0274C37.0424 31.0273 37.0425 31.0272 37.0425 31.0271C37.0425 31.027 37.0425 31.0269 37.0425 31.0269C37.0425 31.0269 37.0424 31.0272 37.0423 31.0278C37.0419 31.029 37.0412 31.0313 37.0402 31.0348C37.0381 31.0416 37.0346 31.0528 37.0296 31.0681C37.0197 31.0986 37.004 31.1453 36.9822 31.2052C36.9385 31.3253 36.8707 31.498 36.7759 31.7016C36.5851 32.1115 36.2914 32.6335 35.8768 33.1048C35.463 33.5752 34.9412 33.9813 34.2928 34.1891C33.651 34.3948 32.8439 34.4196 31.8286 34.0621L31.4965 35.0054C32.6943 35.4271 33.7261 35.4208 34.598 35.1414C35.4632 34.8641 36.1297 34.3313 36.6276 33.7653C37.1247 33.2002 37.4661 32.5885 37.6825 32.1236C37.7913 31.8899 37.87 31.69 37.922 31.5469C37.9481 31.4753 37.9675 31.4176 37.9808 31.3768C37.9874 31.3563 37.9925 31.3401 37.9961 31.3284C37.9979 31.3226 37.9993 31.3179 38.0004 31.3143C38.0009 31.3125 38.0013 31.3111 38.0017 31.3099C38.0018 31.3093 38.002 31.3088 38.0021 31.3084C38.0022 31.3081 38.0023 31.3079 38.0023 31.3078C38.0024 31.3075 38.0024 31.3073 37.5224 31.1675Z" fill="white"/>
<rect x="1" y="2" width="55" height="64" rx="1" stroke="white" stroke-width="2"/>
<path d="M9.74768 7.03539C9.67161 7.02142 9.61677 7.07595 9.59465 7.12034L8.27088 13.4985C8.25938 13.5771 8.31333 13.6355 8.35667 13.6596C8.3894 13.6494 8.40001 13.6837 8.43274 13.6735C8.46546 13.6634 8.52031 13.6089 8.5097 13.5746L9.83347 7.19648C9.88831 7.14195 9.82375 7.04935 9.74768 7.03539Z" stroke="white"/>
<path d="M13.1906 7.3619C13.1133 7.35836 13.0664 7.41982 13.0505 7.46679L12.6028 13.9655C12.602 14.0449 12.6634 14.0954 12.7096 14.1134C12.7406 14.099 12.7558 14.1315 12.7868 14.117C12.8179 14.1025 12.8648 14.041 12.8497 14.0085L13.2974 7.50988C13.3444 7.44843 13.2679 7.36543 13.1906 7.3619Z" stroke="white"/>
<path d="M24.8074 7.03539C24.8835 7.02142 24.9383 7.07595 24.9604 7.12034L26.2842 13.4985C26.2957 13.5771 26.2418 13.6355 26.1984 13.6596C26.1657 13.6494 26.1551 13.6837 26.1223 13.6735C26.0896 13.6634 26.0348 13.6089 26.0454 13.5746L24.7216 7.19648C24.6668 7.14195 24.7313 7.04935 24.8074 7.03539Z" stroke="white"/>
<path d="M21.2946 7.3619C21.3719 7.35837 21.4188 7.41982 21.4347 7.46679L21.8825 13.9655C21.8832 14.0449 21.8219 14.0954 21.7757 14.1134C21.7446 14.099 21.7295 14.1315 21.6984 14.117C21.6673 14.1025 21.6204 14.041 21.6355 14.0085L21.1878 7.50989C21.1409 7.44843 21.2174 7.36543 21.2946 7.3619Z" stroke="white"/>
<path d="M17.2736 7.90385C17.3509 7.90571 17.3934 7.97029 17.406 8.01826L17.3993 14.5323C17.3945 14.6117 17.3298 14.6578 17.2825 14.6725C17.2525 14.6559 17.2351 14.6872 17.2051 14.6706C17.1752 14.654 17.1326 14.5894 17.15 14.5581L17.1567 8.04402C17.1141 7.97944 17.1962 7.90198 17.2736 7.90385Z" stroke="white"/>
<path d="M33.7477 7.03539C33.6716 7.02142 33.6168 7.07595 33.5947 7.12034L32.2709 13.4985C32.2594 13.5771 32.3133 13.6355 32.3567 13.6596C32.3894 13.6494 32.4 13.6837 32.4327 13.6735C32.4655 13.6634 32.5203 13.6089 32.5097 13.5746L33.8335 7.19648C33.8883 7.14195 33.8237 7.04935 33.7477 7.03539Z" stroke="white"/>
<path d="M37.1906 7.3619C37.1133 7.35837 37.0664 7.41982 37.0505 7.46679L36.6028 13.9655C36.602 14.0449 36.6634 14.0954 36.7096 14.1134C36.7406 14.099 36.7558 14.1315 36.7868 14.117C36.8179 14.1025 36.8648 14.041 36.8497 14.0085L37.2974 7.50989C37.3444 7.44843 37.2679 7.36543 37.1906 7.3619Z" stroke="white"/>
<path d="M48.8074 7.03539C48.8835 7.02142 48.9383 7.07595 48.9604 7.12034L50.2842 13.4985C50.2957 13.5771 50.2418 13.6355 50.1984 13.6596C50.1657 13.6494 50.1551 13.6837 50.1223 13.6735C50.0896 13.6634 50.0348 13.6089 50.0454 13.5746L48.7216 7.19648C48.6668 7.14195 48.7313 7.04935 48.8074 7.03539Z" stroke="white"/>
<path d="M45.2946 7.3619C45.3719 7.35836 45.4188 7.41982 45.4347 7.46679L45.8825 13.9655C45.8832 14.0449 45.8219 14.0954 45.7757 14.1134C45.7446 14.099 45.7295 14.1315 45.6984 14.117C45.6674 14.1025 45.6204 14.041 45.6355 14.0085L45.1878 7.50988C45.1409 7.44843 45.2174 7.36543 45.2946 7.3619Z" stroke="white"/>
<path d="M41.2736 7.90385C41.3509 7.90571 41.3934 7.97029 41.406 8.01826L41.3993 14.5323C41.3945 14.6117 41.3298 14.6578 41.2825 14.6725C41.2525 14.6559 41.2351 14.6872 41.2051 14.6706C41.1752 14.654 41.1326 14.5894 41.15 14.5581L41.1567 8.04402C41.1141 7.97944 41.1962 7.90198 41.2736 7.90385Z" stroke="white"/>
<path d="M49.1474 4.54537C49.3828 4.62855 49.1373 4.67389 48.8944 4.6871L10.4407 4.63503C9.95745 4.62933 9.47921 4.55936 9.24136 4.50831C9.24389 4.47618 9.00351 4.45726 9.00604 4.42513C9.00856 4.393 9.25402 4.34766 9.4944 4.36658L47.948 4.41865C48.1935 4.37331 48.9121 4.46219 49.1474 4.54537Z" stroke="white"/>
<path d="M82.5036 2.375C76.6474 2.38105 70.9757 4.37298 66.4526 8.01109C66.1763 8.21875 66 8.54234 66 8.90524C66 9.52722 66.5155 10.0302 67.1506 10.0302C67.4445 10.0302 67.7115 9.92238 67.9146 9.74698L67.9136 9.74798C72.0243 6.44153 77.1804 4.63206 82.5036 4.625C87.8278 4.63105 92.985 6.43952 97.0978 9.74597C97.2978 9.91532 97.5617 10.0192 97.8494 10.0192C98.4855 10.0192 99 9.51613 99 8.89415C99 8.53528 98.8278 8.21573 98.5608 8.01008L98.5587 8.00806C94.0356 4.37198 88.3619 2.38105 82.5057 2.375C82.5046 2.375 82.5046 2.375 82.5046 2.375H82.5036ZM82.5046 9.125C78.3238 9.125 74.2678 10.5202 71.0046 13.0746C70.7386 13.2823 70.5695 13.5998 70.5695 13.9556C70.5695 14.5776 71.085 15.0806 71.7201 15.0806C71.9954 15.0806 72.248 14.9859 72.446 14.8296L72.4439 14.8317C75.2988 12.5968 78.8466 11.376 82.5036 11.375C86.1607 11.381 89.7063 12.6018 92.5592 14.8387C92.7571 15 93.0139 15.0988 93.2943 15.0988C93.9305 15.0988 94.4449 14.5958 94.4449 13.9738C94.4449 13.6129 94.2717 13.2923 94.0016 13.0867L93.9995 13.0847C90.7394 10.5282 86.6865 9.13206 82.5077 9.125C82.5067 9.125 82.5067 9.125 82.5067 9.125H82.5057H82.5046ZM82.5015 15.875C80.0075 15.881 77.5805 16.6764 75.5875 18.1472C75.3102 18.3548 75.1338 18.6784 75.1338 19.0423C75.1338 19.6643 75.6494 20.1673 76.2845 20.1673C76.5443 20.1673 76.7845 20.0827 76.9773 19.9405L76.9742 19.9425C78.5661 18.7671 80.5075 18.13 82.5046 18.125C84.5007 18.131 86.4411 18.7681 88.034 19.9446C88.2289 20.0968 88.4784 20.1885 88.7496 20.1885C89.3857 20.1885 89.9002 19.6855 89.9002 19.0635C89.9002 18.6885 89.7125 18.3569 89.4238 18.1522L89.4208 18.1502C87.4298 16.6794 85.0028 15.881 82.5067 15.876C82.5057 15.876 82.5046 15.876 82.5036 15.876C82.5026 15.876 82.5015 15.876 82.5005 15.876L82.5015 15.875ZM82.5046 22.625C81.2478 22.625 80.2034 23.6462 80.2034 24.875C80.2034 26.1038 81.2478 27.125 82.5046 27.125C83.7615 27.125 84.8059 26.1038 84.8059 24.875C84.8059 23.6462 83.7615 22.625 82.5046 22.625Z" fill="#3BB30B"/>
<path d="M82.1017 38.1305C78.339 38.2341 74.7657 39.8005 72.1432 42.4956C69.5207 45.1907 68.0565 48.8016 68.0625 52.5586C68.0585 54.4536 68.4289 56.3308 69.1526 58.0827C69.8763 59.8347 70.9391 61.4269 72.2802 62.7683C73.6212 64.1097 75.2142 65.174 76.9678 65.9001C78.7215 66.6262 80.6014 67 82.5 67C84.3986 67 86.2785 66.6262 88.0322 65.9001C89.7858 65.174 91.3788 64.1097 92.7198 62.7683C94.0609 61.4269 95.1237 59.8347 95.8474 58.0827C96.5711 56.3308 96.9415 54.4536 96.9375 52.5586C96.9406 50.6308 96.5561 48.722 95.8068 46.9452C95.0576 45.1683 93.9587 43.5596 92.5754 42.2142C91.192 40.8689 89.5523 39.8143 87.7532 39.1128C85.9542 38.4114 84.0324 38.0773 82.1017 38.1305V38.1305ZM82.1651 39.5302C83.9053 39.4855 85.6368 39.7897 87.2571 40.4249C88.8774 41.0601 90.3535 42.0133 91.5981 43.2281C92.8427 44.443 93.8304 45.8947 94.5027 47.4974C95.1751 49.1001 95.5184 50.8211 95.5124 52.5586C95.519 54.2684 95.1873 55.9627 94.5363 57.5442C93.8853 59.1257 92.9278 60.5633 91.7189 61.7746C90.5099 62.986 89.0733 63.9471 87.4913 64.603C85.9093 65.2588 84.2132 65.5964 82.5001 65.5964C80.7871 65.5964 79.091 65.2588 77.509 64.603C75.927 63.9471 74.4904 62.986 73.2814 61.7746C72.0724 60.5633 71.115 59.1257 70.464 57.5442C69.813 55.9627 69.4813 54.2684 69.4879 52.5586C69.4761 49.1642 70.7963 45.9 73.1657 43.465C75.535 41.03 78.7654 39.6176 82.1651 39.5302H82.1651Z" fill="white"/>
<path d="M83.5316 54.1874C83.69 53.9807 83.7986 53.7409 83.849 53.4864C83.8995 53.2318 83.8904 52.9693 83.8225 52.7187C83.7546 52.4682 83.6297 52.2363 83.4573 52.0408C83.2849 51.8452 83.0696 51.6912 82.8279 51.5905V44.2856C82.8278 44.1103 82.7573 43.9423 82.6319 43.8184C82.5066 43.6946 82.3366 43.625 82.1594 43.625C81.9821 43.625 81.8122 43.6946 81.6868 43.8184C81.5614 43.9423 81.491 44.1103 81.4909 44.2856V51.5905C81.1075 51.7501 80.7956 52.0416 80.6128 52.411C80.4299 52.7804 80.3885 53.2027 80.4962 53.5999C80.6039 53.9972 80.8533 54.3425 81.1985 54.5719C81.5437 54.8014 81.9612 54.8996 82.3739 54.8483L86.0682 61.1746C86.1576 61.3247 86.3035 61.4339 86.4739 61.4782C86.6444 61.5226 86.8257 61.4986 86.9783 61.4115C87.1309 61.3243 87.2426 61.1811 87.289 61.013C87.3353 60.8449 87.3126 60.6654 87.2259 60.5137L83.5316 54.1874Z" fill="white"/>
</svg>
