<svg width="50" height="50" viewBox="0 0 50 50" fill="none" xmlns="http://www.w3.org/2000/svg">
<circle cx="25" cy="25" r="25" fill="white"/>
<mask id="mask0" mask-type="alpha" maskUnits="userSpaceOnUse" x="0" y="0" width="50" height="50">
<circle cx="25" cy="25" r="25" fill="white"/>
</mask>
<g mask="url(#mask0)">
<path d="M-6.40558 27.4782H-2.52925C-2.20126 27.4782 -1.93584 27.7607 -1.93584 28.1112V33.6969H13.4817C14.0938 32.672 15.1196 32.026 16.264 31.955L18.2718 28.2447C17.8772 27.6095 17.6376 26.8801 17.5745 26.112C17.5144 25.3843 17.6169 24.664 17.8717 23.9944L12.8635 20.9101C12.7273 20.8261 12.6279 20.6883 12.5865 20.5258C12.5472 20.3643 12.5679 20.1915 12.6456 20.0456L18.454 9.31672C18.6175 9.01367 18.9803 8.91032 19.2639 9.08472L36.6468 19.7905C36.7831 19.8739 36.8825 20.0128 36.9228 20.1743C36.9637 20.3368 36.9425 20.5096 36.8638 20.655L35.3334 23.4825L40.5272 24.6274C40.7134 24.6689 40.8703 24.8029 40.948 24.9886C41.0257 25.1743 41.0162 25.3875 40.9203 25.5635L37.0697 32.6784C36.9748 32.8539 36.8058 32.9707 36.6165 32.9917C36.4278 33.0116 36.2401 32.9352 36.113 32.7823L32.5863 28.5569L31.0564 31.385C30.9782 31.5303 30.8485 31.6363 30.6966 31.6794C30.5442 31.7235 30.3832 31.7004 30.246 31.6164L25.2363 28.5321C24.43 29.6329 23.1791 30.2949 21.8484 30.2949C21.7611 30.2949 21.6744 30.2917 21.5876 30.2863L20.592 32.1262L19.6055 33.9493C19.8825 34.4973 20.0268 35.1088 20.0268 35.7396C20.0268 37.8297 18.4328 39.5296 16.4745 39.5296C15.2463 39.5296 14.1306 38.8681 13.4812 37.7813H-1.93685V43.367C-1.93685 43.7158 -2.20177 44 -2.53026 44H-6.40659C-6.73357 44 -7 43.7163 -7 43.367V28.1112C-6.99899 27.7613 -6.73256 27.4782 -6.40558 27.4782ZM-5.81318 42.7351H-3.12165V37.1488V34.3299V28.7442H-5.81318V42.7351ZM19.3461 28.7894L17.2975 32.5751C17.685 32.6897 18.0428 32.8841 18.3526 33.1408C18.3576 33.144 18.3627 33.1483 18.3667 33.1516C18.3985 33.179 18.4308 33.2065 18.4616 33.2345C18.4752 33.2469 18.4888 33.2587 18.5019 33.2711C18.5236 33.2921 18.5453 33.312 18.5665 33.333C18.567 33.3341 18.5675 33.3341 18.5685 33.3351L20.6071 29.5661C20.377 29.4822 20.155 29.374 19.9416 29.2432C19.7286 29.1124 19.5303 28.9595 19.3461 28.7894ZM30.3257 30.2045L31.9702 27.1654C31.9702 27.1654 31.9702 27.1649 31.9707 27.1649L33.8952 23.609C33.8952 23.6085 33.8952 23.6085 33.8952 23.6085L35.5397 20.5699L19.1842 10.4972L13.9696 20.1307L18.9435 23.194L30.3257 30.2045ZM18.839 35.6228C18.8385 35.6115 18.838 35.6007 18.8375 35.5889C18.8355 35.5582 18.8335 35.5291 18.8309 35.4995C18.8299 35.4899 18.8289 35.4807 18.8284 35.471C18.8198 35.3924 18.8087 35.3144 18.7951 35.2385C18.7941 35.232 18.7926 35.2261 18.7916 35.2207C18.784 35.1841 18.7764 35.148 18.7679 35.1125C18.7674 35.1104 18.7669 35.1082 18.7663 35.1061C18.6907 34.7928 18.559 34.5037 18.3844 34.2491C18.3783 34.2405 18.3723 34.2314 18.3657 34.2217C18.349 34.1985 18.3324 34.1743 18.3142 34.1512C18.3046 34.1404 18.2956 34.128 18.286 34.1156C18.2698 34.0957 18.2537 34.0747 18.237 34.0548C18.2234 34.0403 18.2093 34.0241 18.1956 34.0085C18.1825 33.9929 18.1684 33.9768 18.1543 33.9622C17.739 33.5165 17.1753 33.2452 16.5809 33.2167C16.5456 33.2146 16.5098 33.2135 16.4745 33.2135C16.4381 33.2135 16.4008 33.2146 16.365 33.2167C16.3559 33.2167 16.3473 33.2178 16.3392 33.2178C16.3029 33.2199 16.2681 33.2232 16.2338 33.2264C16.2328 33.2264 16.2328 33.2264 16.2317 33.2264C16.1934 33.2318 16.154 33.2372 16.1147 33.2431C16.1137 33.2431 16.1137 33.2431 16.1127 33.2431C14.9793 33.4293 14.1069 34.4763 14.1069 35.7391C14.1069 36.9997 14.9793 38.0488 16.1127 38.2351C16.1137 38.2351 16.1137 38.2351 16.1147 38.2351C16.154 38.2415 16.1934 38.2464 16.2317 38.2496C16.2328 38.2496 16.2328 38.2496 16.2328 38.2496C16.2681 38.2539 16.3029 38.2571 16.3392 38.2593C16.3473 38.2593 16.3559 38.2604 16.365 38.2604C16.4003 38.2625 16.4381 38.2636 16.4745 38.2636C17.7789 38.2636 18.841 37.1311 18.841 35.7396C18.8415 35.6998 18.8405 35.661 18.839 35.6228ZM36.4531 31.2875L39.4832 25.6895L34.2888 24.5445C34.2661 24.5392 34.2434 24.5327 34.2217 24.5246L32.877 27.0093C32.8941 27.0255 32.9108 27.0432 32.9264 27.0615L36.4531 31.2875ZM24.4804 27.4803L19.1029 24.1694C18.5292 25.331 18.6579 26.7752 19.437 27.8022L19.4395 27.8054C19.6792 28.1198 19.9678 28.3825 20.2978 28.5854C20.6278 28.7894 20.9851 28.925 21.361 28.988C21.5215 29.0165 21.6855 29.03 21.8484 29.03C22.9172 29.03 23.9143 28.4401 24.4804 27.4803ZM13.4847 36.5163C13.4267 36.266 13.3959 36.0066 13.3959 35.7396C13.3959 35.4715 13.4267 35.2121 13.4847 34.9618H-2.41117V36.5169H13.4847V36.5163Z" fill="#10A3AC"/>
</g>
</svg>
