<svg width="50" height="50" viewBox="0 0 50 50" fill="none" xmlns="http://www.w3.org/2000/svg">
<circle cx="25" cy="25" r="25" fill="white"/>
<mask id="mask0" mask-type="alpha" maskUnits="userSpaceOnUse" x="0" y="0" width="50" height="50">
<circle cx="25" cy="25" r="25" fill="white"/>
</mask>
<g mask="url(#mask0)">
<path d="M38.2222 44C34.6904 44 31.3701 42.6168 28.8727 40.1052C26.3754 37.5936 25 34.2543 25 30.7024C25 25.8794 27.6062 21.4245 31.8016 19.0763C32.0338 18.9463 32.3236 18.9852 32.5138 19.172C32.704 19.3588 32.7496 19.6491 32.6258 19.8858C31.7261 21.6062 31.2505 23.549 31.2505 25.5043C31.2505 32.17 36.6428 37.593 43.2707 37.593C45.3134 37.593 47.3314 37.0678 49.1067 36.0741C49.339 35.9441 49.6286 35.9831 49.8189 36.1698C50.0091 36.3567 50.0547 36.647 49.9309 36.8837C47.6352 41.2732 43.1487 44 38.2222 44ZM30.7474 21.2355C27.905 23.5088 26.202 26.9854 26.202 30.7024C26.202 37.3681 31.5942 42.7911 38.2221 42.7911C42.0364 42.7911 45.5607 40.9929 47.8116 37.9943C46.3635 38.5258 44.8234 38.8019 43.2706 38.8019C39.7388 38.8019 36.4185 37.4187 33.9211 34.9071C31.4238 32.3954 30.0484 29.0562 30.0484 25.5043C30.0485 24.0516 30.2872 22.6049 30.7474 21.2355Z" fill="#3F44B9"/>
<path d="M14.9999 7.2666C10.1853 7.2666 6.2666 11.1839 6.2666 15.9999C6.2666 20.8159 10.1839 24.7333 14.9999 24.7333C19.8159 24.7333 23.7333 20.8159 23.7333 15.9999C23.7333 11.1839 19.8146 7.2666 14.9999 7.2666ZM14.9999 23.3999C10.9199 23.3999 7.59993 20.0813 7.59993 15.9999C7.59993 11.9186 10.9199 8.59993 14.9999 8.59993C19.0799 8.59993 22.3999 11.9186 22.3999 15.9999C22.3999 20.0813 19.0799 23.3999 14.9999 23.3999Z" fill="#D4CF5D"/>
<path d="M15.6667 0H14.3334V4H15.6667V0Z" fill="#D4CF5D"/>
<path d="M15.6667 28H14.3334V32H15.6667V28Z" fill="#D4CF5D"/>
<path d="M31 15.3334H27V16.6667H31V15.3334Z" fill="#D4CF5D"/>
<path d="M3 15.3334H-1V16.6667H3V15.3334Z" fill="#D4CF5D"/>
<path d="M23.0132 7.04305L23.9561 7.98584L26.7845 5.15747L25.8417 4.21468L23.0132 7.04305Z" fill="#D4CF5D"/>
<path d="M3.21555 26.8431L4.15833 27.7859L6.98666 24.9574L6.04388 24.0146L3.21555 26.8431Z" fill="#D4CF5D"/>
<path d="M23.0124 24.957L25.8412 27.785L26.7839 26.8421L23.9551 24.0141L23.0124 24.957Z" fill="#D4CF5D"/>
<path d="M6.98651 7.042L4.15771 4.21399L3.21505 5.15693L6.04384 7.98493L6.98651 7.042Z" fill="#D4CF5D"/>
</g>
</svg>
