<svg width="50" height="50" viewBox="0 0 50 50" fill="none" xmlns="http://www.w3.org/2000/svg">
<circle cx="25" cy="25" r="25" fill="white"/>
<mask id="mask0" mask-type="alpha" maskUnits="userSpaceOnUse" x="0" y="0" width="50" height="50">
<circle cx="25" cy="25" r="25" fill="white"/>
</mask>
<g mask="url(#mask0)">
<path d="M39.2725 24.9843L29.6971 24.2006C29.3905 23.4168 28.9475 22.7012 28.3341 22.122L32.0824 13.6371C32.9684 11.5925 32.8321 9.24126 31.6735 7.33301C30.515 5.42476 28.5726 4.2321 26.3577 4.06172H26.2555C25.0287 3.9595 23.802 3.99357 22.6093 4.0958C20.3944 4.26618 18.4521 5.45884 17.2935 7.36709C16.1349 9.24126 15.9645 11.4903 16.8164 13.5348L20.3944 22.1901C19.781 22.8035 19.3381 23.5531 19.0314 24.371L10.4442 24.8821C8.22932 25.0184 6.28699 26.1429 5.09433 28.0171C3.90168 29.8913 3.66315 32.1403 4.48097 34.2189C4.92395 35.3434 5.46917 36.4679 6.04846 37.5243L6.11661 37.6265C7.24111 39.5347 9.14937 40.7615 11.3984 40.9318C11.6028 40.9318 11.8073 40.9659 11.9777 40.9659C13.9881 40.9659 15.9305 40.08 17.2254 38.5125L23.0523 31.6291C23.4953 31.7314 23.9383 31.7995 24.4154 31.7995C25.165 31.7995 25.8806 31.6632 26.5281 31.3906L32.1847 38.4443C33.4796 40.08 35.456 41 37.5346 41C37.6709 41 37.8072 41 37.9776 41C40.1925 40.8637 42.1689 39.7051 43.3275 37.7969L43.3956 37.6946C44.009 36.6724 44.5883 35.5819 45.0313 34.4574C45.8832 32.4129 45.7128 30.1298 44.5542 28.2215C43.4297 26.3474 41.4874 25.1547 39.2725 24.9843ZM18.4862 8.04861C19.4062 6.51519 20.9737 5.56106 22.7457 5.42476C23.9042 5.32253 25.0628 5.32253 26.1873 5.39068H26.2895C28.0615 5.52699 29.5949 6.48111 30.515 8.01453C31.435 9.58202 31.5713 11.4221 30.8216 13.0578L27.2096 21.236C26.3918 20.7589 25.4376 20.4863 24.4154 20.4863C23.359 20.4863 22.3708 20.793 21.553 21.2701L18.0773 12.9896C17.4298 11.354 17.5661 9.54795 18.4862 8.04861ZM16.2031 37.6606C15.0445 39.0577 13.3407 39.7392 11.5347 39.6029C9.76273 39.4666 8.22932 38.4784 7.30927 36.945L7.24111 36.8427C6.66182 35.8545 6.15069 34.7982 5.74178 33.7418C5.09433 32.0721 5.26471 30.2661 6.21884 28.7668C7.17296 27.2674 8.74045 26.3814 10.4783 26.2451L18.7588 25.734C18.7588 25.8703 18.7247 26.0066 18.7247 26.177C18.7247 28.3238 19.9174 30.1639 21.6552 31.118L16.2031 37.6606ZM20.1218 26.177C20.1218 23.8257 22.0301 21.8834 24.4154 21.8834C26.8007 21.8834 28.7089 23.7917 28.7089 26.177C28.7089 28.5623 26.8007 30.4705 24.4154 30.4705C22.0301 30.4705 20.1218 28.5282 20.1218 26.177ZM43.7705 33.9122C43.3275 34.9686 42.8164 35.9908 42.203 36.979L42.1348 37.0813C41.2148 38.5806 39.6473 39.5347 37.8754 39.637C36.0693 39.7392 34.3655 38.9895 33.241 37.5924L27.7207 30.7432C29.1178 29.7209 30.0379 28.0512 30.0379 26.177C30.0379 25.9725 30.0379 25.7681 30.0038 25.5977L39.1362 26.3474C40.9081 26.4837 42.4415 27.4378 43.3616 28.9371C44.3157 30.4705 44.4861 32.2766 43.7705 33.9122Z" fill="#525252"/>
</g>
</svg>
