<svg width="50" height="50" viewBox="0 0 50 50" fill="none" xmlns="http://www.w3.org/2000/svg">
<circle cx="25" cy="25" r="25" fill="white"/>
<mask id="mask0" mask-type="alpha" maskUnits="userSpaceOnUse" x="0" y="0" width="50" height="50">
<circle cx="25" cy="25" r="25" fill="white"/>
</mask>
<g mask="url(#mask0)">
<path d="M36.7227 15.8079C36.6022 15.6418 36.4015 15.5172 36.2008 15.5172C36.0001 15.5172 35.7994 15.6418 35.679 15.8079L27.2896 29.6773C25.5635 32.7501 25.5635 36.4874 27.3297 39.6433C29.1762 42.9237 32.548 45 36.2008 45C39.8537 45 43.2255 42.9653 45.072 39.6433C46.8382 36.4874 46.8382 32.7501 45.1121 29.6773L36.7227 15.8079ZM44.0283 39.0204C42.4227 41.9271 39.4121 43.7542 36.2008 43.7542C32.9896 43.7542 29.979 41.9271 28.3734 39.0204C26.848 36.2382 26.8079 32.9993 28.3332 30.3001L36.2008 17.3028L44.0684 30.3001C45.5938 32.9993 45.5537 36.2797 44.0283 39.0204Z" fill="#0B81B3"/>
<path d="M41.4191 34.8678C41.4191 37.5254 39.5325 39.8093 37.0036 39.8093H36.2008V41.0551H37.0036C40.2149 41.0551 42.6233 38.1898 42.6233 34.8678V34.411H41.4191V34.8678Z" fill="#0B81B3"/>
<path d="M16.9999 6.991C12.4525 6.991 8.75781 10.8131 8.75781 15.5173C8.75781 20.2214 12.4525 24.0436 16.9999 24.0436C21.5473 24.0436 25.242 20.2214 25.242 15.5173C25.242 10.8131 21.5473 6.991 16.9999 6.991ZM16.9999 22.5408C13.2736 22.5408 10.2104 19.4047 10.2104 15.5173C10.2104 11.6625 13.242 8.49371 16.9999 8.49371C20.7262 8.49371 23.7894 11.6298 23.7894 15.5173C23.7894 19.3721 20.7262 22.5408 16.9999 22.5408Z" fill="#3BB30B"/>
<path d="M17 5.25959C17.4105 5.25959 17.7263 4.93291 17.7263 4.50822V0.751367C17.7263 0.326679 17.4105 0 17 0C16.5895 0 16.2737 0.326679 16.2737 0.751367V4.50822C16.2737 4.93291 16.5895 5.25959 17 5.25959Z" fill="#3BB30B"/>
<path d="M8.97901 8.26503C9.10532 8.39571 9.29481 8.49371 9.48428 8.49371C9.67376 8.49371 9.86322 8.42837 9.98954 8.26503C10.2737 7.97102 10.2737 7.481 9.98954 7.18699L7.43165 4.54088C7.14744 4.24687 6.67376 4.24687 6.38955 4.54088C6.10534 4.8349 6.10534 5.32491 6.38955 5.61893L8.97901 8.26503Z" fill="#3BB30B"/>
<path d="M7.0842 15.5173C7.0842 15.0926 6.76842 14.766 6.35789 14.766H2.72631C2.31579 14.766 2 15.0926 2 15.5173C2 15.942 2.31579 16.2687 2.72631 16.2687H6.35789C6.76842 16.2687 7.0842 15.942 7.0842 15.5173Z" fill="#3BB30B"/>
<path d="M8.97893 22.7695L6.42104 25.4156C6.13683 25.7096 6.13683 26.1996 6.42104 26.4936C6.54736 26.6243 6.73683 26.7223 6.9263 26.7223C7.11577 26.7223 7.30526 26.657 7.43157 26.4936L9.98946 23.8475C10.2737 23.5535 10.2737 23.0635 9.98946 22.7695C9.70525 22.4755 9.26314 22.4755 8.97893 22.7695Z" fill="#3BB30B"/>
<path d="M17 25.775C16.5895 25.775 16.2737 26.1016 16.2737 26.5263V30.2831C16.2737 30.7078 16.5895 31.0345 17 31.0345C17.4105 31.0345 17.7263 30.7078 17.7263 30.2831V26.5263C17.7263 26.1016 17.4105 25.775 17 25.775Z" fill="#3BB30B"/>
<path d="M25.0211 22.7695C24.7369 22.4755 24.2632 22.4755 23.979 22.7695C23.6948 23.0635 23.6948 23.5535 23.979 23.8475L26.5369 26.4936C26.6632 26.6243 26.8527 26.7223 27.0422 26.7223C27.2317 26.7223 27.4211 26.657 27.5475 26.4936C27.8317 26.1996 27.8317 25.7096 27.5475 25.4156L25.0211 22.7695Z" fill="#3BB30B"/>
<path d="M31.2737 14.766H27.6421C27.2316 14.766 26.9158 15.0926 26.9158 15.5173C26.9158 15.942 27.2316 16.2687 27.6421 16.2687H31.2737C31.6842 16.2687 32 15.942 32 15.5173C32 15.0926 31.6842 14.766 31.2737 14.766Z" fill="#3BB30B"/>
<path d="M24.5159 8.49371C24.7053 8.49371 24.8948 8.42837 25.0211 8.26503L27.579 5.61893C27.8632 5.32491 27.8632 4.8349 27.579 4.54088C27.2948 4.24687 26.8211 4.24687 26.5369 4.54088L23.979 7.18699C23.6948 7.481 23.6948 7.97102 23.979 8.26503C24.1369 8.42837 24.3264 8.49371 24.5159 8.49371Z" fill="#3BB30B"/>
</g>
</svg>
