<svg width="50" height="50" viewBox="0 0 50 50" fill="none" xmlns="http://www.w3.org/2000/svg">
<circle cx="25" cy="25" r="25" fill="white"/>
<mask id="mask0" mask-type="alpha" maskUnits="userSpaceOnUse" x="0" y="0" width="50" height="50">
<circle cx="25" cy="25" r="25" fill="white"/>
</mask>
<g mask="url(#mask0)">
<path d="M19.1687 9.85205C11.2885 9.85205 4.7937 15.5356 4.7937 22.6521C4.7937 29.7686 11.2885 35.4521 19.1687 35.4521C20.3194 35.4521 21.3563 34.9726 22.175 34.2084C22.9937 33.4441 23.626 32.4093 24.125 31.2114C25.1229 28.8158 25.5937 25.7355 25.5937 22.6521C25.5937 19.5689 25.1229 16.4914 24.125 14.0959C23.626 12.8979 22.9937 11.8634 22.175 11.099C21.3563 10.3347 20.3194 9.85205 19.1687 9.85205ZM19.1687 11.4521C19.8926 11.4521 20.4972 11.7224 21.0843 12.2709C21.6715 12.8194 22.2117 13.6591 22.65 14.7114C23.5266 16.8158 23.9937 19.7354 23.9937 22.6521C23.9937 25.5689 23.5266 28.4915 22.65 30.5959C22.2117 31.6481 21.6715 32.4882 21.0843 33.0366C20.4972 33.5844 19.8926 33.8521 19.1687 33.8521C12.0528 33.8521 6.3937 28.7903 6.3937 22.6521C6.3937 16.5138 12.0528 11.4521 19.1687 11.4521Z" fill="#BD9224"/>
<path fill-rule="evenodd" clip-rule="evenodd" d="M28.7359 19.4553C28.5421 19.4691 28.36 19.553 28.2236 19.6915C28.0873 19.8299 28.0059 20.0134 27.9948 20.2075C27.9837 20.4016 28.0437 20.5931 28.1634 20.7462C28.2831 20.8993 28.4545 21.0036 28.6454 21.0394L43.8096 24.2326C43.9135 24.2572 44.0211 24.2606 44.1263 24.2428C44.2315 24.225 44.332 24.1864 44.422 24.1291C44.5121 24.0719 44.5897 23.9971 44.6504 23.9093C44.7111 23.8216 44.7537 23.7226 44.7756 23.6181C44.7974 23.5136 44.7982 23.4058 44.7778 23.3011C44.7574 23.1963 44.7163 23.0966 44.6568 23.008C44.5973 22.9194 44.5208 22.8436 44.4316 22.7851C44.3424 22.7265 44.2424 22.6864 44.1375 22.6671L28.9732 19.4739C28.8955 19.456 28.8155 19.45 28.7359 19.4558L28.7359 19.4553Z" fill="#BD9224"/>
<path fill-rule="evenodd" clip-rule="evenodd" d="M28.7359 13.0559C28.5421 13.0698 28.36 13.1537 28.2236 13.2921C28.0873 13.4306 28.0059 13.614 27.9948 13.8081C27.9837 14.0022 28.0437 14.1937 28.1634 14.3468C28.2831 14.4999 28.4545 14.6042 28.6454 14.6401L43.8096 17.8333C43.9135 17.858 44.0213 17.8615 44.1266 17.8438C44.2318 17.8261 44.3325 17.7876 44.4227 17.7303C44.5128 17.6731 44.5906 17.5983 44.6514 17.5105C44.7122 17.4227 44.7548 17.3235 44.7767 17.2189C44.7986 17.1144 44.7993 17.0066 44.7789 16.9017C44.7584 16.7968 44.7172 16.6971 44.6576 16.6085C44.598 16.5198 44.5213 16.444 44.432 16.3855C44.3426 16.327 44.2425 16.2871 44.1375 16.268L28.9732 13.0746C28.8955 13.0567 28.8155 13.0506 28.7359 13.0565L28.7359 13.0559Z" fill="#BD9224"/>
<path fill-rule="evenodd" clip-rule="evenodd" d="M28.7359 32.2533C28.5421 32.2672 28.36 32.3511 28.2236 32.4895C28.0873 32.628 28.0059 32.8114 27.9948 33.0055C27.9837 33.1996 28.0437 33.3911 28.1634 33.5442C28.2831 33.6973 28.4545 33.8016 28.6454 33.8375L43.8096 37.0305C43.9135 37.0552 44.0213 37.0589 44.1266 37.0412C44.2318 37.0235 44.3325 36.985 44.4227 36.9277C44.5128 36.8705 44.5906 36.7957 44.6514 36.7079C44.7122 36.6201 44.7548 36.5209 44.7767 36.4163C44.7986 36.3118 44.7993 36.2039 44.7789 36.0991C44.7584 35.9942 44.7172 35.8945 44.6576 35.8058C44.598 35.7172 44.5213 35.6414 44.432 35.5829C44.3426 35.5244 44.2425 35.4843 44.1375 35.4652L28.9732 32.2719C28.8955 32.2541 28.8155 32.248 28.7359 32.2539L28.7359 32.2533Z" fill="#BD9224"/>
<path fill-rule="evenodd" clip-rule="evenodd" d="M28.7359 25.8539C28.5421 25.8678 28.36 25.9517 28.2236 26.0901C28.0873 26.2286 28.0059 26.412 27.9948 26.6061C27.9837 26.8002 28.0437 26.9917 28.1634 27.1448C28.2831 27.2979 28.4545 27.4022 28.6454 27.438L43.8096 30.6313C43.9135 30.656 44.0213 30.6595 44.1266 30.6418C44.2318 30.6241 44.3325 30.5855 44.4227 30.5283C44.5128 30.471 44.5906 30.3963 44.6514 30.3085C44.7122 30.2207 44.7548 30.1215 44.7767 30.0169C44.7986 29.9123 44.7993 29.8045 44.7789 29.6997C44.7584 29.5948 44.7172 29.4951 44.6576 29.4064C44.598 29.3178 44.5213 29.242 44.432 29.1835C44.3426 29.125 44.2425 29.0851 44.1375 29.0659L28.9732 25.8725C28.8955 25.8547 28.8155 25.8486 28.7359 25.8544L28.7359 25.8539Z" fill="#BD9224"/>
</g>
</svg>
