<svg width="24" height="24" viewBox="0 0 24 24" fill="none" xmlns="http://www.w3.org/2000/svg">
<path d="M12.4828 0.984348C11.9189 0.987416 11.3557 1.03198 10.7984 1.11806C10.7634 1.1236 10.7304 1.1383 10.7029 1.16066C10.6753 1.18302 10.6541 1.21226 10.6415 1.24542C10.4589 1.71879 10.4641 2.24514 10.2969 2.72627C10.1297 3.20738 9.82287 3.65588 8.97303 4.00786C8.12392 4.35957 7.58995 4.25997 7.13176 4.03851C6.67357 3.81705 6.30533 3.44181 5.84224 3.23573C5.80961 3.22107 5.77367 3.21535 5.7381 3.21916C5.70253 3.22297 5.66861 3.23617 5.63983 3.2574C4.73314 3.93054 3.93111 4.73387 3.25843 5.64091C3.23702 5.6696 3.22364 5.70346 3.21964 5.73904C3.21565 5.77461 3.22119 5.8106 3.2357 5.84332C3.44198 6.30608 3.81825 6.67422 4.03954 7.13232C4.26084 7.59043 4.3594 8.12425 4.00783 8.97306C3.65642 9.82149 3.2096 10.1289 2.72941 10.2964C2.24922 10.4639 1.72314 10.459 1.25015 10.6399C1.21696 10.6524 1.18766 10.6735 1.16521 10.701C1.14275 10.7284 1.12794 10.7613 1.12226 10.7963C1.0347 11.3541 0.989134 11.9172 0.98432 12.4817C0.984312 12.4828 0.984312 12.4838 0.98432 12.4849C0.987797 13.0487 1.03196 13.6119 1.11803 14.1692C1.12357 14.2042 1.13827 14.2372 1.16063 14.2648C1.183 14.2923 1.21223 14.3135 1.2454 14.3261C1.71876 14.5087 2.24511 14.5035 2.72625 14.6707C3.20735 14.8379 3.65583 15.1448 4.00783 15.9946C4.35955 16.8437 4.25996 17.3777 4.03849 17.8359C3.81701 18.2941 3.44178 18.6623 3.2357 19.1254C3.22104 19.158 3.21532 19.194 3.21913 19.2295C3.22294 19.2651 3.23614 19.299 3.25737 19.3278C3.93052 20.2345 4.73384 21.0376 5.64088 21.7103C5.66967 21.7315 5.70358 21.7447 5.73915 21.7485C5.77472 21.7523 5.81066 21.7466 5.84329 21.7319C6.30608 21.5257 6.67473 21.1505 7.13281 20.9291C7.59092 20.7078 8.12422 20.6092 8.97303 20.9608C9.82146 21.3123 10.1289 21.7591 10.2964 22.2393C10.4638 22.7195 10.4584 23.2455 10.6394 23.7185C10.6521 23.7516 10.6733 23.7807 10.7008 23.803C10.7284 23.8252 10.7613 23.8399 10.7963 23.8454C11.354 23.9329 11.9172 23.9795 12.4817 23.9844C12.4828 23.9844 12.4838 23.9844 12.4849 23.9844C13.0487 23.9813 13.6119 23.9356 14.1692 23.8496C14.2041 23.8441 14.237 23.8296 14.2646 23.8074C14.2921 23.7853 14.3133 23.7562 14.3261 23.7233C14.5087 23.2499 14.5035 22.7225 14.6707 22.2414C14.8379 21.7603 15.1447 21.3128 15.9946 20.9608C16.8437 20.6091 17.3782 20.7077 17.8364 20.9291C18.2946 21.1506 18.6628 21.5269 19.1259 21.733C19.1586 21.7475 19.1946 21.753 19.2302 21.749C19.2657 21.745 19.2996 21.7316 19.3283 21.7102C20.235 21.0371 21.0376 20.2338 21.7102 19.3267C21.7315 19.298 21.7448 19.2641 21.7487 19.2285C21.7526 19.193 21.747 19.157 21.7324 19.1243C21.5261 18.6615 21.1504 18.2945 20.9291 17.8364C20.7078 17.3783 20.6092 16.8434 20.9608 15.9946C21.3122 15.1462 21.759 14.8387 22.2392 14.6712C22.7194 14.5038 23.2455 14.5092 23.7185 14.3282C23.7515 14.3155 23.7807 14.2943 23.8029 14.2668C23.8252 14.2392 23.8398 14.2063 23.8453 14.1713C23.9329 13.6136 23.9795 13.0505 23.9843 12.4859C23.9843 12.4849 23.9843 12.4838 23.9843 12.4828C23.9808 11.9189 23.9356 11.3557 23.8495 10.7984C23.8441 10.7635 23.8296 10.7306 23.8074 10.7031C23.7852 10.6755 23.7562 10.6543 23.7232 10.6415C23.2499 10.4589 22.7225 10.4641 22.2413 10.2969C21.7602 10.1297 21.3128 9.82287 20.9608 8.97303C20.6091 8.12393 20.7076 7.58997 20.9291 7.13176C21.1506 6.67357 21.5268 6.30533 21.7329 5.84224C21.7474 5.80952 21.753 5.77353 21.749 5.73795C21.745 5.70238 21.7316 5.66852 21.7102 5.63983C21.037 4.73314 20.2342 3.93111 19.3272 3.25843C19.2985 3.23702 19.2647 3.22364 19.2291 3.21964C19.1935 3.21565 19.1575 3.22119 19.1248 3.2357C18.6621 3.44197 18.2944 3.81825 17.8363 4.03954C17.3782 4.26084 16.8434 4.35946 15.9946 4.00783C15.1461 3.65642 14.8392 3.2096 14.6717 2.72941C14.5043 2.24922 14.5091 1.72314 14.3282 1.25015C14.3157 1.21689 14.2945 1.18755 14.2669 1.16509C14.2394 1.14263 14.2064 1.12785 14.1713 1.12226C13.6135 1.03471 13.0504 0.989129 12.4859 0.98432C12.4848 0.984312 12.4838 0.984312 12.4827 0.98432L12.4828 0.984348ZM12.4838 6.51816C15.7812 6.51816 18.4495 9.18646 18.4495 12.4838C18.4495 15.7812 15.7811 18.4506 12.4838 18.4506C9.18647 18.4506 6.51814 15.7812 6.51814 12.4838C6.51814 9.18643 9.18647 6.51816 12.4838 6.51816V6.51816Z" fill="white"/>
</svg>
