<svg width="24" height="24" viewBox="0 0 24 24" fill="none" xmlns="http://www.w3.org/2000/svg">
<path d="M12.4828 0.984287C11.919 0.987355 11.3558 1.03192 10.7985 1.118C10.7635 1.12354 10.7305 1.13824 10.7029 1.1606C10.6754 1.18296 10.6542 1.2122 10.6415 1.24536C10.4589 1.71873 10.4642 2.24508 10.297 2.72621C10.1297 3.20732 9.82293 3.65582 8.97309 4.0078C8.12399 4.35951 7.59001 4.25991 7.13182 4.03845C6.67363 3.81699 6.30539 3.44175 5.8423 3.23567C5.80967 3.22101 5.77373 3.21529 5.73816 3.2191C5.70259 3.22291 5.66867 3.2361 5.63989 3.25734C4.7332 3.93048 3.93117 4.73381 3.25849 5.64085C3.23708 5.66954 3.2237 5.7034 3.2197 5.73897C3.21571 5.77455 3.22125 5.81054 3.23577 5.84326C3.44204 6.30602 3.81832 6.67416 4.0396 7.13226C4.2609 7.59037 4.35947 8.12419 4.00789 8.973C3.65648 9.82143 3.20966 10.1289 2.72947 10.2963C2.24928 10.4638 1.7232 10.4589 1.25022 10.6398C1.21702 10.6524 1.18772 10.6734 1.16527 10.7009C1.14281 10.7284 1.128 10.7613 1.12232 10.7963C1.03476 11.354 0.989195 11.9171 0.984381 12.4816C0.984373 12.4827 0.984373 12.4838 0.984381 12.4848C0.987858 13.0487 1.03202 13.6118 1.11809 14.1691C1.12364 14.2042 1.13833 14.2371 1.16069 14.2647C1.18306 14.2923 1.21229 14.3134 1.24546 14.3261C1.71882 14.5087 2.24517 14.5034 2.72631 14.6707C3.20741 14.8379 3.65589 15.1447 4.0079 15.9945C4.35961 16.8436 4.26002 17.3776 4.03855 17.8358C3.81707 18.294 3.44185 18.6623 3.23577 19.1253C3.22111 19.158 3.21539 19.1939 3.21919 19.2295C3.223 19.265 3.2362 19.299 3.25743 19.3277C3.93058 20.2344 4.7339 21.0375 5.64094 21.7102C5.66973 21.7314 5.70365 21.7446 5.73921 21.7484C5.77478 21.7522 5.81072 21.7465 5.84336 21.7319C6.30614 21.5256 6.67479 21.1504 7.13287 20.9291C7.59098 20.7078 8.12428 20.6092 8.97309 20.9608C9.82152 21.3122 10.129 21.759 10.2964 22.2392C10.4639 22.7194 10.4585 23.2455 10.6394 23.7185C10.6522 23.7515 10.6734 23.7807 10.7009 23.8029C10.7285 23.8252 10.7614 23.8398 10.7964 23.8453C11.3541 23.9328 11.9172 23.9795 12.4818 23.9843C12.4828 23.9843 12.4839 23.9843 12.4849 23.9843C13.0488 23.9812 13.612 23.9355 14.1692 23.8495C14.2042 23.8441 14.2371 23.8295 14.2646 23.8074C14.2922 23.7852 14.3134 23.7562 14.3262 23.7232C14.5088 23.2499 14.5035 22.7224 14.6708 22.2413C14.838 21.7602 15.1448 21.3128 15.9946 20.9608C16.8438 20.6091 17.3782 20.7076 17.8364 20.9291C18.2946 21.1506 18.6629 21.5268 19.126 21.7329C19.1587 21.7474 19.1947 21.753 19.2302 21.749C19.2658 21.745 19.2997 21.7316 19.3284 21.7102C20.2351 21.037 21.0376 20.2337 21.7103 19.3267C21.7316 19.2979 21.7449 19.264 21.7488 19.2285C21.7527 19.1929 21.7471 19.1569 21.7325 19.1243C21.5262 18.6615 21.1505 18.2944 20.9291 17.8363C20.7079 17.3782 20.6093 16.8433 20.9609 15.9945C21.3123 15.1461 21.7591 14.8387 22.2393 14.6712C22.7195 14.5037 23.2455 14.5091 23.7185 14.3282C23.7516 14.3155 23.7807 14.2943 23.803 14.2667C23.8253 14.2392 23.8399 14.2062 23.8454 14.1712C23.9329 13.6135 23.9796 13.0504 23.9844 12.4859C23.9844 12.4848 23.9844 12.4837 23.9844 12.4827C23.9809 11.9188 23.9357 11.3557 23.8496 10.7984C23.8442 10.7634 23.8296 10.7306 23.8074 10.703C23.7853 10.6755 23.7563 10.6542 23.7233 10.6414C23.2499 10.4588 22.7225 10.4641 22.2414 10.2969C21.7603 10.1296 21.3129 9.82281 20.9609 8.97297C20.6091 8.12386 20.7077 7.58991 20.9291 7.1317C21.1506 6.67351 21.5269 6.30526 21.733 5.84218C21.7475 5.80946 21.753 5.77346 21.749 5.73789C21.745 5.70232 21.7317 5.66845 21.7103 5.63977C21.0371 4.73308 20.2343 3.93105 19.3273 3.25837C19.2986 3.23696 19.2647 3.22358 19.2292 3.21958C19.1936 3.21559 19.1576 3.22113 19.1249 3.23564C18.6621 3.44191 18.2945 3.81819 17.8364 4.03948C17.3783 4.26078 16.8434 4.3594 15.9946 4.00777C15.1462 3.65636 14.8393 3.20953 14.6718 2.72935C14.5043 2.24916 14.5092 1.72308 14.3283 1.25009C14.3157 1.21683 14.2946 1.18749 14.267 1.16503C14.2394 1.14257 14.2064 1.12779 14.1713 1.1222C13.6136 1.03465 13.0505 0.989068 12.486 0.984259C12.4849 0.984251 12.4838 0.984251 12.4828 0.984259L12.4828 0.984287ZM12.4839 6.5181C15.7813 6.5181 18.4495 9.1864 18.4495 12.4838C18.4495 15.7812 15.7812 18.4505 12.4839 18.4505C9.18653 18.4505 6.5182 15.7811 6.5182 12.4838C6.5182 9.18637 9.18653 6.5181 12.4839 6.5181V6.5181Z" fill="#6A6A6A"/>
</svg>
