<svg width="64" height="66" viewBox="0 0 64 66" fill="none" xmlns="http://www.w3.org/2000/svg">
<path d="M63.0298 66H1.08076C0.715883 66 0.381259 65.7881 0.216782 65.4513C0.0523053 65.1145 0.0844443 64.7113 0.300911 64.4076L6.2164 56.111C6.39883 55.8552 6.68903 55.7039 6.99624 55.7039H56.9357C57.2382 55.7039 57.5237 55.8503 57.707 56.0993L63.8012 64.3959C64.0233 64.6986 64.0602 65.1047 63.8966 65.4445C63.7331 65.7852 63.3975 66 63.0298 66ZM2.99587 64.0005H61.0807L56.4555 57.7034H7.48589L2.99587 64.0005Z" fill="white"/>
<path d="M56.8742 57.7004H7.08226C6.54724 57.7004 6.11431 57.2533 6.11431 56.7007V25.5985C6.11431 25.046 6.54724 24.5988 7.08226 24.5988C7.61728 24.5988 8.05022 25.046 8.05022 25.5985V55.701H55.9063V25.5985C55.9063 25.046 56.3392 24.5988 56.8742 24.5988C57.4093 24.5988 57.8422 25.046 57.8422 25.5985V56.7007C57.8422 57.2533 57.4093 57.7004 56.8742 57.7004Z" fill="white"/>
<path d="M44.7105 26.6285C40.6837 26.6285 37.3346 23.0807 37.2439 18.7195C37.2325 18.1669 37.657 17.71 38.191 17.6983C38.1986 17.6983 38.2052 17.6983 38.2118 17.6983C38.7374 17.6983 39.1684 18.1318 39.1798 18.6765C39.2478 21.9589 41.7292 24.6291 44.7105 24.6291C46.0613 24.6291 47.3148 24.0677 48.2411 23.0484C49.2497 21.9384 49.7706 20.3763 49.6704 18.7615C49.6363 18.2108 50.0409 17.7354 50.575 17.7002C51.0873 17.6719 51.5685 18.083 51.6025 18.6346C51.7367 20.7971 51.0259 22.9049 49.6533 24.4162C48.3574 25.8426 46.602 26.6285 44.7105 26.6285Z" fill="white"/>
<path d="M31.9995 26.6286C30.1137 26.6286 28.3347 25.8465 26.9887 24.427C25.566 22.9264 24.7758 20.8303 24.8202 18.6765C24.8316 18.1318 25.2626 17.6983 25.7882 17.6983C25.7948 17.6983 25.8014 17.6983 25.809 17.6983C26.343 17.71 26.7675 18.1669 26.7561 18.7195C26.7221 20.3382 27.3119 21.9091 28.3725 23.0289C29.3509 24.0609 30.6383 24.6291 31.9995 24.6291C33.3607 24.6291 34.6491 24.0609 35.6275 23.0279C36.6881 21.9091 37.2779 20.3382 37.2439 18.7195L35.3155 1.12942C35.256 0.580734 35.6379 0.0857476 36.1691 0.023264C36.7003 -0.0323854 37.1786 0.356184 37.2401 0.904867L39.1741 18.5858C39.2242 20.8303 38.434 22.9254 37.0113 24.427C35.6653 25.8465 33.8863 26.6286 31.9995 26.6286Z" fill="white"/>
<path d="M19.2895 26.6285C17.398 26.6285 15.6426 25.8426 14.3466 24.4162C12.9741 22.9049 12.2633 20.7981 12.3975 18.6346C12.4325 18.083 12.8957 17.6729 13.425 17.7002C13.9591 17.7354 14.3637 18.2108 14.3296 18.7615C14.2294 20.3763 14.7503 21.9384 15.7589 23.0484C16.6843 24.0677 17.9387 24.6291 19.2895 24.6291C22.2708 24.6291 24.7522 21.9589 24.8202 18.6765L26.7599 0.904867C26.8204 0.356184 27.293 -0.0333621 27.8309 0.0232637C28.3621 0.0857472 28.744 0.580734 28.6845 1.12942L26.7505 18.8103C26.6654 23.0807 23.3163 26.6285 19.2895 26.6285Z" fill="white"/>
<path d="M57.4206 26.6285C53.4155 26.6285 49.9388 23.0992 49.6704 18.7615C49.6363 18.2108 50.0409 17.7354 50.575 17.7002C51.0873 17.6719 51.5685 18.083 51.6025 18.6346C51.8067 21.9394 54.4166 24.6291 57.4206 24.6291C59.3499 24.6291 61.006 23.4634 61.7424 21.5859C62.3124 20.1351 62.0165 18.658 61.6686 17.6739L56.5916 3.31927C56.3165 2.54018 55.5915 2.01688 54.788 2.01688H17.5757L14.3249 18.8308C14.0243 23.1363 10.5627 26.6285 6.57938 26.6285C3.84472 26.6285 1.5014 24.9845 0.463497 22.3367C-0.170778 20.7219 -0.153763 18.8728 0.512651 16.9885L5.58968 2.6339C6.14267 1.06889 7.59838 0.0174062 9.21195 0.0174062H16.7618C16.7731 0.0174062 16.7864 0.0174062 16.7996 0.0174062H54.788C56.4016 0.0174062 57.8573 1.06889 58.4103 2.6339L63.4873 16.9885C64.1538 18.8728 64.1708 20.7219 63.5365 22.3377C62.4977 24.9845 60.1543 26.6285 57.4206 26.6285ZM9.21195 2.01688C8.40847 2.01688 7.68345 2.54018 7.40838 3.31927L2.33135 17.6739C1.98349 18.658 1.68762 20.1351 2.25762 21.5859C2.99398 23.4634 4.65009 24.6291 6.57938 24.6291C9.58344 24.6291 12.1933 21.9394 12.3975 18.6346C12.4003 18.5897 12.406 18.5457 12.4145 18.5018L15.601 2.01688H9.21195Z" fill="white"/>
<path d="M50.6355 19.6978C50.1761 19.6978 49.7696 19.36 49.6845 18.8767L46.567 1.18019C46.4706 0.63736 46.8194 0.116989 47.3459 0.0183824C47.8734 -0.0880348 48.3753 0.279056 48.4708 0.822858L51.5883 18.5194C51.6847 19.0622 51.3359 19.5826 50.8094 19.6812C50.7508 19.6929 50.6931 19.6978 50.6355 19.6978Z" fill="white"/>
<path d="M30.696 57.7004H13.6755C13.1405 57.7004 12.7076 57.2533 12.7076 56.7007V32.502C12.7076 31.9494 13.1405 31.5023 13.6755 31.5023H30.696C31.231 31.5023 31.664 31.9494 31.664 32.502V56.7007C31.664 57.2533 31.231 57.7004 30.696 57.7004ZM14.6435 55.701H29.728V33.5017H14.6435V55.701Z" fill="white"/>
<path d="M26.9849 46.8595C26.4499 46.8595 26.0169 46.4124 26.0169 45.8598V43.3429C26.0169 42.7903 26.4499 42.3432 26.9849 42.3432C27.5199 42.3432 27.9528 42.7903 27.9528 43.3429V45.8598C27.9528 46.4124 27.5199 46.8595 26.9849 46.8595Z" fill="white"/>
<path d="M51.8889 50.3723H35.6813C35.1463 50.3723 34.7134 49.9251 34.7134 49.3725V35.5432C34.7134 34.9906 35.1463 34.5435 35.6813 34.5435H51.8889C52.4239 34.5435 52.8569 34.9906 52.8569 35.5432V49.3725C52.8569 49.9251 52.4239 50.3723 51.8889 50.3723ZM36.6493 48.3728H50.921V36.5429H36.6493V48.3728Z" fill="white"/>
<path d="M39.2431 46.3079C38.9955 46.3079 38.7478 46.2103 38.5587 46.015C38.1806 45.6245 38.1806 44.9919 38.5587 44.6013L44.2445 38.7289C44.6226 38.3384 45.2352 38.3384 45.6133 38.7289C45.9914 39.1194 45.9914 39.752 45.6133 40.1426L39.9275 46.015C39.7384 46.2103 39.4908 46.3079 39.2431 46.3079Z" fill="white"/>
<path d="M38.4727 42.595C38.2251 42.595 37.9774 42.4974 37.7883 42.3021C37.4102 41.9116 37.4102 41.279 37.7883 40.8885L40.6506 37.9322C41.0287 37.5417 41.6413 37.5417 42.0194 37.9322C42.3975 38.3227 42.3975 38.9554 42.0194 39.3459L39.1571 42.3021C38.968 42.4974 38.7204 42.595 38.4727 42.595Z" fill="white"/>
</svg>
