<svg width="68" height="68" viewBox="0 0 68 68" fill="none" xmlns="http://www.w3.org/2000/svg">
<path d="M12.0188 1.85453L11 0L9.98121 1.85453C8.96008 3.71536 0 20.1974 0 25.8476C0 31.9973 4.93465 37 11 37C17.0653 37 22 31.9973 22 25.8476C22 20.1974 13.0399 3.71536 12.0188 1.85453ZM11 34.6357C6.21999 34.6357 2.33133 30.6935 2.33133 25.8468C2.33133 22.0472 7.88456 10.7774 11 4.89473C14.1162 10.7766 19.6687 22.0464 19.6687 25.8468C19.6687 30.6935 15.78 34.6357 11 34.6357Z" fill="#0B81B3"/>
<path d="M58.0196 11.8044L57.0008 10L55.982 11.8044C54.9609 13.615 46 29.6519 46 35.1496C46 41.1332 50.9347 46 57 46C63.0653 46 68 41.1324 68 35.1496C68.0008 29.6519 59.0407 13.615 58.0196 11.8044ZM57.0008 43.7004C52.2208 43.7004 48.3321 39.8646 48.3321 35.1496C48.3321 31.4525 53.8853 20.4871 57.0008 14.7633C60.117 20.4871 65.6694 31.4525 65.6694 35.1496C65.6694 39.8653 61.7808 43.7004 57.0008 43.7004Z" fill="#0B81B3"/>
<path d="M30.5007 32L29.5283 33.8044C28.5528 35.615 20 51.6511 20 57.1496C20 63.1332 24.7104 68 30.5 68C36.2904 68 41 63.1324 41 57.1496C41 51.6511 32.4472 35.615 31.4717 33.8044L30.5007 32ZM30.5007 65.7004C25.938 65.7004 22.2261 61.8646 22.2261 57.1496C22.2261 53.4518 27.5269 42.4863 30.5007 36.7633C33.4753 42.4863 38.7754 53.4518 38.7754 57.1496C38.7754 61.8653 35.0635 65.7004 30.5007 65.7004Z" fill="#0B81B3"/>
</svg>
