<svg width="67" height="67" viewBox="0 0 67 67" fill="none" xmlns="http://www.w3.org/2000/svg">
<path d="M34.8958 7.95625V1.39583C34.8958 0.558333 34.3375 0 33.5 0C32.6625 0 32.1042 0.558333 32.1042 1.39583V7.95625C32.1042 8.79375 32.6625 9.35208 33.5 9.35208C34.3375 9.35208 34.8958 8.79375 34.8958 7.95625Z" fill="#CEC946"/>
<path d="M67 33.5C67 32.6625 66.4417 32.1041 65.6042 32.1041H59.0438C58.2063 32.1041 57.6479 32.6625 57.6479 33.5C57.6479 34.3375 58.2063 34.8958 59.0438 34.8958H65.6042C66.4417 34.8958 67 34.3375 67 33.5Z" fill="#CEC946"/>
<path d="M12.2833 33.5C12.2833 45.225 21.775 54.7167 33.5 54.7167C45.225 54.7167 54.7167 45.225 54.7167 33.5C54.7167 21.775 45.225 12.2833 33.5 12.2833C21.775 12.2833 12.2833 21.775 12.2833 33.5ZM33.5 15.075C43.6896 15.075 51.925 23.3104 51.925 33.5C51.925 43.6896 43.6896 51.925 33.5 51.925C23.3104 51.925 15.075 43.6896 15.075 33.5C15.075 23.3104 23.3104 15.075 33.5 15.075Z" fill="#CEC946"/>
<path d="M57.2292 9.7708C56.6708 9.21247 55.8333 9.21247 55.275 9.7708L50.6687 14.3771C50.1104 14.9354 50.1104 15.7729 50.6687 16.3312C51.2271 16.8896 52.0646 16.8896 52.6229 16.3312L57.2292 11.725C57.7875 11.3062 57.7875 10.3291 57.2292 9.7708Z" fill="#CEC946"/>
<path d="M52.4833 50.5291C51.925 49.9708 51.0875 49.9708 50.5292 50.5291C49.9708 51.0874 49.9708 51.9249 50.5292 52.4833L55.1354 57.0895C55.6937 57.6479 56.5312 57.6479 57.0896 57.0895C57.6479 56.5312 57.6479 55.6937 57.0896 55.1354L52.4833 50.5291Z" fill="#CEC946"/>
<path d="M32.1042 59.0438V65.6042C32.1042 66.4417 32.6625 67 33.5 67C34.3375 67 34.8958 66.4417 34.8958 65.6042V59.0438C34.8958 58.2063 34.3375 57.6479 33.5 57.6479C32.6625 57.6479 32.1042 58.2063 32.1042 59.0438Z" fill="#CEC946"/>
<path d="M9.77083 57.2292C10.3292 57.7875 11.1667 57.7875 11.725 57.2292L16.3312 52.6229C16.8896 52.0646 16.8896 51.2271 16.3312 50.6687C15.7729 50.1104 14.9354 50.1104 14.3771 50.6687L9.77083 55.275C9.2125 55.6937 9.2125 56.6708 9.77083 57.2292Z" fill="#CEC946"/>
<path d="M1.39583 34.8958H7.95625C8.79375 34.8958 9.35208 34.3375 9.35208 33.5C9.35208 32.6625 8.79375 32.1041 7.95625 32.1041H1.39583C0.558333 32.1041 0 32.6625 0 33.5C0 34.3375 0.558333 34.8958 1.39583 34.8958Z" fill="#CEC946"/>
<path d="M11.725 9.7708C11.3062 9.21247 10.3292 9.21247 9.77083 9.7708C9.2125 10.3291 9.2125 11.1666 9.77083 11.725L14.3771 16.3312C14.9354 16.8896 15.7729 16.8896 16.3312 16.3312C16.8896 15.7729 16.8896 14.9354 16.3312 14.3771L11.725 9.7708Z" fill="#CEC946"/>
<path d="M25.9625 37.4084C25.4042 37.9667 25.4042 38.8042 25.9625 39.3625C28.0563 41.4563 30.7083 42.4334 33.5 42.4334C36.2917 42.4334 38.9438 41.4563 41.0375 39.3625C41.5958 38.8042 41.5958 37.9667 41.0375 37.4084C40.4792 36.85 39.6417 36.85 39.0833 37.4084C36.0125 40.4792 31.1271 40.4792 28.0563 37.4084C27.4979 36.85 26.5208 36.85 25.9625 37.4084Z" fill="#CEC946"/>
<path d="M25.4042 27.6375C25.9625 27.0792 26.9396 27.0792 27.4979 27.6375C28.0563 28.1959 28.8938 28.1959 29.4521 27.6375C30.0104 27.0792 30.0104 26.2417 29.4521 25.6834C27.7771 24.0084 25.125 24.0084 23.45 25.6834C22.8917 26.2417 22.8917 27.0792 23.45 27.6375C24.0083 28.1959 24.8458 28.1959 25.4042 27.6375Z" fill="#CEC946"/>
<path d="M39.5021 27.6375C40.0604 27.0792 41.0375 27.0792 41.5958 27.6375C42.1542 28.1959 42.9917 28.1959 43.55 27.6375C44.1083 27.0792 44.1083 26.2417 43.55 25.6834C41.875 24.0084 39.2229 24.0084 37.5479 25.6834C36.9896 26.2417 36.9896 27.0792 37.5479 27.6375C38.1063 28.1959 38.9438 28.1959 39.5021 27.6375Z" fill="#CEC946"/>
</svg>
