<svg width="87" height="66" viewBox="0 0 87 66" fill="none" xmlns="http://www.w3.org/2000/svg">
<path d="M86.1575 44.9218H60.7886C60.3839 35.5175 52.5976 27.9653 43.1145 27.9653C33.6302 27.9653 25.8439 35.5175 25.4392 44.9218H0.642021C0.287154 44.9218 0 45.209 0 45.5639C0 45.9187 0.287154 46.2059 0.642021 46.2059H26.0395H26.0445H60.1832H60.1883H86.1575C86.5124 46.2059 86.7995 45.9187 86.7995 45.5639C86.7995 45.209 86.5124 44.9218 86.1575 44.9218ZM43.1145 29.2494C51.8907 29.2494 59.0999 36.2246 59.5039 44.9218H26.7238C27.1278 36.2246 34.337 29.2494 43.1145 29.2494Z" fill="#96922A"/>
<path d="M66.5658 32.072C66.6837 32.2783 66.9006 32.393 67.1213 32.393C67.2304 32.393 67.3408 32.3654 67.4424 32.3071L82.669 23.5163C82.9763 23.3389 83.0816 22.9464 82.9035 22.6392C82.7267 22.3313 82.333 22.2266 82.027 22.4041L66.8003 31.1949C66.4931 31.3723 66.3878 31.7648 66.5658 32.072Z" fill="#96922A"/>
<path d="M56.1794 23.2424C56.281 23.3007 56.3913 23.3283 56.5004 23.3283C56.7211 23.3283 56.938 23.2129 57.0559 23.0073L66.4969 6.65328C66.6749 6.34607 66.5696 5.95358 66.2624 5.77615C65.9564 5.60059 65.5627 5.70404 65.3859 6.01126L55.9449 22.3653C55.7668 22.6725 55.8722 23.065 56.1794 23.2424Z" fill="#96922A"/>
<path d="M43.4004 20.1332C43.7553 20.1332 44.0424 19.846 44.0424 19.4911V0.719536C44.0424 0.364669 43.7553 0.0775146 43.4004 0.0775146C43.0455 0.0775146 42.7584 0.364669 42.7584 0.719536V19.4911C42.7584 19.846 43.0455 20.1332 43.4004 20.1332Z" fill="#96922A"/>
<path d="M29.9493 23.1733C30.0672 23.379 30.2841 23.4944 30.5048 23.4944C30.6139 23.4944 30.7242 23.4668 30.8258 23.4085C31.133 23.231 31.2384 22.8385 31.0603 22.5313L21.6469 6.22498C21.4701 5.91651 21.0764 5.81306 20.7704 5.98987C20.4632 6.1673 20.3578 6.55979 20.5359 6.86701L29.9493 23.1733Z" fill="#96922A"/>
<path d="M4.3625 23.3025L19.9641 32.3096C20.0657 32.3679 20.176 32.3955 20.2851 32.3955C20.5058 32.3955 20.7228 32.2801 20.8406 32.0745C21.0187 31.7673 20.9134 31.3748 20.6061 31.1974L5.00452 22.1902C4.69855 22.0141 4.30481 22.1181 4.12801 22.4254C3.94995 22.7326 4.05528 23.1251 4.3625 23.3025Z" fill="#96922A"/>
<path d="M65.3006 49.7345H21.5002C21.1453 49.7345 20.8582 50.0217 20.8582 50.3765C20.8582 50.7314 21.1453 51.0185 21.5002 51.0185H65.3006C65.6555 51.0185 65.9426 50.7314 65.9426 50.3765C65.9426 50.0217 65.6555 49.7345 65.3006 49.7345Z" fill="#73C253"/>
<path d="M63.2153 54.5483H23.5855C23.2306 54.5483 22.9435 54.8355 22.9435 55.1904C22.9435 55.5452 23.2306 55.8324 23.5855 55.8324H63.2153C63.5701 55.8324 63.8573 55.5452 63.8573 55.1904C63.8573 54.8355 63.5701 54.5483 63.2153 54.5483Z" fill="#73C253"/>
<path d="M59.0434 59.3623H27.7574C27.4025 59.3623 27.1154 59.6495 27.1154 60.0043C27.1154 60.3592 27.4025 60.6463 27.7574 60.6463H59.0434C59.3983 60.6463 59.6854 60.3592 59.6854 60.0043C59.6854 59.6495 59.3983 59.3623 59.0434 59.3623Z" fill="#73C253"/>
<path d="M52.7862 64.1749H34.0146C33.6597 64.1749 33.3726 64.4621 33.3726 64.8169C33.3726 65.1718 33.6597 65.459 34.0146 65.459H52.7862C53.1411 65.459 53.4282 65.1718 53.4282 64.8169C53.4282 64.4621 53.1411 64.1749 52.7862 64.1749Z" fill="#73C253"/>
</svg>
