<svg width="44" height="86" viewBox="0 0 44 86" fill="none" xmlns="http://www.w3.org/2000/svg">
<path d="M21.9 0.199951C15.4 0.199951 0.300003 2.49995 0.300003 23.6V25.2999C0.300003 29.0999 0.300004 34.4 3.6 41.5C5.2 44.9 9.4 52.6 11.8 56.4V58.7999C8.7 60.6999 6.6 63.3 6.2 66.3C6.2 66.4 6.2 66.5 6.2 66.6V75.5C6.2 80.6 12.5 86 21.9 86C29.3 86 37.6 81.7 37.6 75.5V66.6C37.6 66.5 37.6 66.4 37.6 66.3C37.2 63.3 35 60.5999 32 58.7999V56.4C34.5 52.6 38.6 44.9 40.2 41.5C43.5 34.4 43.5 29.0999 43.5 25.2999V23.6C43.5 2.49995 28.4 0.199951 21.9 0.199951ZM5.1 31.9C4.5 30.2 4.8 28.1999 5.7 26.2999C6.9 23.8999 9.3 22.2999 11.5 22.2999C12.2 22.2999 12.8 22.5 13.4 22.7C14.7 23.4 15.3 24.5 15.6 25.4C16.2 27.1 15.9 29.1 15 31C13.8 33.4 11.4 35 9.2 35C8.5 35 7.9 34.7999 7.3 34.5999C5.9 33.9999 5.3 32.8 5.1 31.9ZM21.9 82C16.1 82 10.3 78.9 10.3 75.6C10.3 72.4 16 69.2 21.9 69.2C27.7 69.2 33.4 72.3 33.4 75.6C33.5 78.8 27.8 82 21.9 82ZM33.5 66.8V68.6C30.4 66.4 26.1 65.1 22 65.1C17.9 65.1 13.5 66.4 10.4 68.6V66.8C11 63.3 16.4 60.2999 22 60.2999C27.5 60.2999 32.8 63.3 33.5 66.8ZM16 57V55.7999C16 53.5999 19.2 52.7999 21.9 52.7999C24.6 52.7999 27.8 53.5999 27.8 55.7999V57C26 56.5 24 56.0999 21.9 56.0999C19.9 56.0999 17.9 56.5 16 57ZM38.8 31.9C38.5 32.8 37.9 33.8999 36.6 34.5999C36 34.8999 35.4 35 34.7 35C32.5 35 30.1 33.4 28.9 31C28 29.2 27.7 27.1999 28.3 25.4C28.6 24.5 29.2 23.4 30.5 22.7C31.1 22.4 31.7 22.2999 32.4 22.2999C34.6 22.2999 37 23.8999 38.2 26.2999C39.1 28.1999 39.4 30.2 38.8 31.9ZM32.4 18.2C31.1 18.2 29.8 18.5 28.6 19.1C26.6 20.1 25 21.9 24.3 24.2C23.4 27 23.7 30.2 25.2 33C27.2 36.8 30.9 39.2999 34.7 39.2999C35.4 39.2999 36.1 39.2 36.8 39C36.7 39.3 36.6 39.4999 36.5 39.7999C35.3 42.2999 32.5 47.5 30.3 51.4C28.6 49.7 25.7 48.5999 22 48.5999C18.3 48.5999 15.5 49.6 13.7 51.4C11.4 47.5 8.6 42.2999 7.5 39.7999C7.4 39.4999 7.3 39.3 7.2 39C7.9 39.2 8.6 39.2999 9.3 39.2999C13.1 39.2999 16.9 36.8 18.8 33C20.2 30.2 20.6 27 19.7 24.2C19 21.9 17.4 20.1 15.4 19.1C14.2 18.5 12.9 18.2 11.6 18.2C9.1 18.2 6.7 19.2 4.7 21C5.7 7.39995 14.5 4.39995 22 4.39995C29.5 4.39995 38.3 7.39995 39.3 21C37.3 19.2 34.9 18.2 32.4 18.2Z" fill="#D04949"/>
</svg>
