<svg width="87" height="39" viewBox="0 0 87 39" fill="none" xmlns="http://www.w3.org/2000/svg">
<path d="M86.1575 17.9218H60.7886C60.3839 8.51755 52.5976 0.965332 43.1145 0.965332C33.6302 0.965332 25.8439 8.51755 25.4392 17.9218H0.642021C0.287154 17.9218 0 18.209 0 18.5639C0 18.9187 0.287154 19.2059 0.642021 19.2059H26.0395H26.0445H60.1832H60.1883H86.1575C86.5124 19.2059 86.7995 18.9187 86.7995 18.5639C86.7995 18.209 86.5124 17.9218 86.1575 17.9218ZM43.1145 2.24937C51.8907 2.24937 59.0999 9.22462 59.5039 17.9218H26.7238C27.1278 9.22462 34.337 2.24937 43.1145 2.24937Z" fill="#AE7827"/>
<path d="M65.3006 22.7345H21.5002C21.1453 22.7345 20.8582 23.0217 20.8582 23.3765C20.8582 23.7314 21.1453 24.0185 21.5002 24.0185H65.3006C65.6555 24.0185 65.9426 23.7314 65.9426 23.3765C65.9426 23.0217 65.6555 22.7345 65.3006 22.7345Z" fill="#535FC2"/>
<path d="M63.2153 27.5483H23.5855C23.2306 27.5483 22.9435 27.8355 22.9435 28.1904C22.9435 28.5452 23.2306 28.8324 23.5855 28.8324H63.2153C63.5702 28.8324 63.8573 28.5452 63.8573 28.1904C63.8573 27.8355 63.5702 27.5483 63.2153 27.5483Z" fill="#535FC2"/>
<path d="M59.0434 32.3623H27.7574C27.4025 32.3623 27.1154 32.6495 27.1154 33.0043C27.1154 33.3592 27.4025 33.6463 27.7574 33.6463H59.0434C59.3983 33.6463 59.6854 33.3592 59.6854 33.0043C59.6854 32.6495 59.3983 32.3623 59.0434 32.3623Z" fill="#535FC2"/>
<path d="M52.7862 37.1749H34.0146C33.6597 37.1749 33.3726 37.4621 33.3726 37.8169C33.3726 38.1718 33.6597 38.459 34.0146 38.459H52.7862C53.1411 38.459 53.4282 38.1718 53.4282 37.8169C53.4282 37.4621 53.1411 37.1749 52.7862 37.1749Z" fill="#535FC2"/>
</svg>
