<svg width="39" height="44" viewBox="0 0 39 44" fill="none" xmlns="http://www.w3.org/2000/svg">
<path d="M37.84 27.42L37.8 26.42L28.52 26.74L20.3 22L28.52 17.26L37.8 17.58L37.84 16.58L30.15 16.31L38.6 11.43L38.1 10.57L29.65 15.45L33.26 8.65L32.38 8.19L28.02 16.39L19.8 21.13V11.64L24.72 3.77L23.88 3.23L19.8 9.76V0H18.8V9.76L14.72 3.23L13.88 3.77L18.8 11.64V21.13L10.58 16.39L6.22 8.19L5.34 8.65L8.95 15.45L0.5 10.57L0 11.43L8.45 16.31L0.759998 16.58L0.799999 17.58L10.08 17.26L18.3 22L10.08 26.74L0.799999 26.42L0.759998 27.42L8.45 27.69L0 32.57L0.5 33.43L8.95 28.55L5.34 35.35L6.22 35.81L10.58 27.61L18.8 22.87V32.36L13.88 40.23L14.72 40.77L18.8 34.24V44H19.8V34.24L23.88 40.77L24.72 40.23L19.8 32.36V22.87L28.02 27.61L32.38 35.81L33.26 35.35L29.65 28.55L38.1 33.43L38.6 32.57L30.15 27.69L37.84 27.42Z" fill="#40DDE7"/>
</svg>
