<svg width="40" height="60" viewBox="0 0 40 60" fill="none" xmlns="http://www.w3.org/2000/svg">
<path d="M14.8125 0.999961C14.5809 1.04415 14.3724 1.16872 14.2238 1.35168C14.0751 1.53465 13.9958 1.76425 14 1.99996C14 8.66663 10.7012 12.907 7.1875 17.8125C3.67382 22.7179 0 28.2694 0 37C0 47.115 5.16137 54.2475 13.5 58.875C13.6835 58.9795 13.8955 59.0233 14.1054 59C14.3153 58.9767 14.5125 58.8875 14.6686 58.7453C14.8248 58.603 14.9319 58.415 14.9746 58.2081C15.0172 58.0012 14.9933 57.7862 14.9062 57.5937C14.4656 56.6048 14 55.18 14 54C14 50.4499 16.3785 46.9609 19.25 45.0312C19.757 47.1958 21.0914 48.6781 22.3125 49.8125C23.075 50.5209 23.7764 51.1649 24.25 51.8125C24.7236 52.4601 25 53.0915 25 54C25 55.1869 24.5371 56.6039 24.0938 57.5937C24.0067 57.7862 23.9828 58.0012 24.0254 58.2081C24.0681 58.415 24.1752 58.603 24.3314 58.7453C24.4875 58.8875 24.6847 58.9767 24.8946 59C25.1045 59.0233 25.3165 58.9795 25.5 58.875C33.7996 54.2626 40 47.1751 40 37C40 27.9637 37.8213 18.6059 30.6562 12.25C30.5118 12.1243 30.3342 12.0428 30.1448 12.0151C29.9554 11.9874 29.7619 12.0147 29.5875 12.0937C29.4131 12.1726 29.2651 12.3 29.1609 12.4607C29.0568 12.6213 29.0009 12.8085 29 13C29 15.177 27.8991 17.4858 26.375 19.5C25.3299 20.8812 24.148 21.998 23 22.9375C23.0435 19.7279 23.1137 16.5748 22.4688 13.375C21.6856 9.48951 19.8306 5.52381 15.7188 1.28121C15.6028 1.16296 15.4593 1.07535 15.3011 1.02626C15.1429 0.977174 14.975 0.968136 14.8125 0.999961ZM15.7188 4.34371C18.5355 7.68387 19.9169 10.7335 20.5312 13.7812C21.2467 17.3308 21 20.9581 21 25C21.0006 25.1783 21.049 25.3532 21.1399 25.5066C21.2309 25.6599 21.3613 25.7862 21.5174 25.8722C21.6736 25.9583 21.85 26.001 22.0282 25.996C22.2065 25.991 22.3802 25.9384 22.5312 25.8437C24.2266 24.7558 26.2817 22.9483 27.9688 20.7187C29.2079 19.0811 30.0623 17.1541 30.5312 15.1562C36.0474 20.9444 38 28.9133 38 37C38 45.3957 33.4067 51.2757 26.7812 55.5937C26.8846 55.07 27 54.5544 27 54C27 52.6489 26.5264 51.5157 25.875 50.625C25.2236 49.7343 24.425 49.0287 23.6875 48.3437C22.2126 46.9735 21 45.7929 21 43.3125C21.0012 43.1423 20.9589 42.9747 20.8773 42.8255C20.7956 42.6762 20.6772 42.5503 20.5333 42.4596C20.3894 42.3688 20.2247 42.3163 20.0548 42.307C19.8849 42.2976 19.7155 42.3318 19.5625 42.4062C15.4437 44.3904 12 49.0007 12 54C12 54.5324 12.122 55.0259 12.2188 55.5312C5.81871 51.2399 2 45.4331 2 37C2 28.8214 5.32618 23.836 8.8125 18.9687C11.8955 14.6646 15.0079 10.3394 15.7188 4.34371Z" fill="#D04949"/>
</svg>
