<svg width="43" height="43" viewBox="0 0 43 43" fill="none" xmlns="http://www.w3.org/2000/svg">
<path d="M22.7422 43C16.6676 43 10.9565 40.6209 6.66105 36.3009C2.36569 31.981 0 26.2373 0 20.1282C0 11.8326 4.48267 4.17007 11.6987 0.131219C12.0982 -0.0924047 12.5966 -0.0254526 12.9237 0.295793C13.2509 0.617142 13.3292 1.11648 13.1164 1.52359C11.5689 4.48259 10.7509 7.82426 10.7509 11.1874C10.7509 22.6524 20.0255 31.9799 31.4255 31.9799C34.939 31.9799 38.41 31.0766 41.4635 29.3675C41.8631 29.1439 42.3613 29.2109 42.6885 29.5321C43.0156 29.8535 43.0941 30.3528 42.8811 30.7599C38.9326 38.3098 31.2158 43 22.7422 43ZM9.88546 3.84509C4.99664 7.75513 2.06746 13.735 2.06746 20.1282C2.06746 31.5932 11.3421 40.9207 22.7421 40.9207C29.3025 40.9207 35.3643 37.8278 39.236 32.6703C36.7452 33.5844 34.0962 34.0592 31.4254 34.0592C25.3507 34.0592 19.6397 31.6801 15.3443 27.3601C11.0489 23.0402 8.68323 17.2966 8.68323 11.1874C8.68334 8.68872 9.09404 6.20047 9.88546 3.84509Z" fill="#3F44B9"/>
</svg>
