<svg width="87" height="88" viewBox="0 0 87 88" fill="none" xmlns="http://www.w3.org/2000/svg">
<path d="M43.499 18.915C29.667 18.915 18.414 30.168 18.414 44C18.414 57.832 29.667 69.085 43.499 69.085C57.332 69.085 68.584 57.832 68.584 44C68.584 30.168 57.331 18.915 43.499 18.915ZM43.499 64.085C32.424 64.085 23.414 55.075 23.414 44C23.414 32.925 32.424 23.915 43.499 23.915C54.574 23.915 63.584 32.925 63.584 44C63.584 55.075 54.573 64.085 43.499 64.085Z" fill="#575BC2"/>
<path d="M31.666 55.332C33.047 55.332 34.166 54.213 34.166 52.832C34.166 47.686 38.353 43.499 43.499 43.499C48.645 43.499 52.832 47.686 52.832 52.832C52.832 54.213 53.951 55.332 55.332 55.332C56.713 55.332 57.832 54.213 57.832 52.832C57.832 44.929 51.402 38.499 43.499 38.499C35.595 38.499 29.166 44.929 29.166 52.832C29.166 54.213 30.285 55.332 31.666 55.332Z" fill="#575BC2"/>
<path d="M86.763 44C86.763 37.51 82.359 32.042 76.387 30.393C77.586 28.289 78.237 25.906 78.238 23.419C78.238 19.645 76.768 16.097 74.099 13.429C71.431 10.76 67.883 9.29001 64.109 9.29001C61.622 9.29001 59.239 9.94001 57.134 11.14C55.485 5.16901 50.017 0.765015 43.528 0.765015C37.039 0.765015 31.571 5.16901 29.921 11.14C27.817 9.94001 25.434 9.29001 22.946 9.29001C19.172 9.29001 15.624 10.76 12.956 13.428C10.287 16.096 8.817 19.645 8.817 23.419C8.817 25.906 9.467 28.289 10.667 30.393C4.696 32.043 0.292 37.511 0.292 44C0.292 50.489 4.695 55.957 10.667 57.606C9.467 59.71 8.817 62.093 8.817 64.582C8.817 68.355 10.287 71.903 12.956 74.571C15.624 77.24 19.172 78.71 22.946 78.711C25.434 78.711 27.817 78.06 29.921 76.859C31.571 82.831 37.038 87.234 43.527 87.234C50.016 87.234 55.484 82.831 57.133 76.86C59.237 78.059 61.62 78.711 64.109 78.711C67.883 78.711 71.431 77.24 74.099 74.571C76.768 71.903 78.237 68.355 78.237 64.582C78.237 62.094 77.587 59.711 76.387 57.607C82.359 55.957 86.763 50.49 86.763 44ZM72.635 53.129C71.454 53.129 70.472 53.949 70.209 55.049C69.614 56.013 69.729 57.29 70.564 58.126C72.288 59.851 73.237 62.144 73.237 64.582C73.237 67.02 72.288 69.312 70.563 71.036C68.839 72.761 66.547 73.711 64.109 73.711C61.671 73.711 59.379 72.761 57.655 71.036C56.819 70.2 55.542 70.087 54.578 70.681C53.477 70.943 52.656 71.926 52.656 73.107C52.656 78.14 48.561 82.235 43.527 82.235C38.494 82.235 34.399 78.14 34.399 73.107C34.399 71.925 33.577 70.941 32.475 70.68C31.511 70.086 30.235 70.201 29.4 71.036C27.676 72.761 25.383 73.711 22.945 73.711C20.507 73.711 18.216 72.761 16.491 71.036C14.767 69.311 13.817 67.019 13.817 64.581C13.817 62.143 14.767 59.851 16.491 58.126C17.326 57.291 17.441 56.016 16.848 55.052C16.586 53.95 15.603 53.129 14.421 53.129C9.388 53.129 5.293 49.034 5.293 44C5.293 38.966 9.388 34.871 14.421 34.871C15.602 34.871 16.586 34.05 16.847 32.948C17.441 31.985 17.326 30.709 16.491 29.874C14.767 28.15 13.818 25.857 13.818 23.419C13.818 20.981 14.768 18.688 16.492 16.964C18.216 15.239 20.508 14.29 22.946 14.29C25.384 14.29 27.676 15.239 29.401 16.964C30.235 17.798 31.511 17.913 32.476 17.32C33.578 17.059 34.4 16.075 34.4 14.893C34.4 9.86001 38.495 5.76502 43.528 5.76502C48.562 5.76502 52.657 9.86001 52.657 14.893C52.657 16.074 53.477 17.057 54.578 17.319C55.542 17.914 56.818 17.799 57.654 16.964C59.379 15.24 61.672 14.29 64.109 14.29C66.547 14.29 68.839 15.239 70.564 16.964C72.289 18.688 73.238 20.98 73.238 23.418C73.238 25.856 72.288 28.149 70.563 29.874C69.725 30.712 69.611 31.995 70.212 32.959C70.478 34.055 71.458 34.871 72.635 34.871C77.668 34.871 81.763 38.966 81.763 44C81.763 49.034 77.668 53.129 72.635 53.129Z" fill="#575BC2"/>
<path d="M50.912 35.427C52.3976 35.427 53.602 34.2226 53.602 32.737C53.602 31.2513 52.3976 30.047 50.912 30.047C49.4264 30.047 48.222 31.2513 48.222 32.737C48.222 34.2226 49.4264 35.427 50.912 35.427Z" fill="#575BC2"/>
<path d="M36.042 35.384C37.5276 35.384 38.732 34.1797 38.732 32.694C38.732 31.2084 37.5276 30.004 36.042 30.004C34.5564 30.004 33.352 31.2084 33.352 32.694C33.352 34.1797 34.5564 35.384 36.042 35.384Z" fill="#575BC2"/>
</svg>
