<svg width="90" height="88" viewBox="0 0 90 88" fill="none" xmlns="http://www.w3.org/2000/svg">
<path d="M44.337 24.342H51.798C52.089 26.921 53.108 29.28 54.641 31.216L51.817 34.04C51.231 34.626 51.231 35.575 51.817 36.161C52.11 36.454 52.494 36.6 52.878 36.6C53.262 36.6 53.646 36.454 53.939 36.161L56.747 33.353C58.713 34.947 61.131 36.003 63.777 36.295V44.333C63.777 45.161 64.448 45.833 65.277 45.833C66.106 45.833 66.777 45.161 66.777 44.333V36.295C69.368 36.008 71.737 34.986 73.681 33.447L76.506 36.271C76.799 36.564 77.183 36.71 77.567 36.71C77.951 36.71 78.335 36.564 78.628 36.271C79.214 35.685 79.214 34.736 78.628 34.15L75.819 31.342C77.407 29.383 78.459 26.976 78.757 24.342H86.371C87.2 24.342 87.871 23.67 87.871 22.842C87.871 22.014 87.2 21.342 86.371 21.342H78.766C78.484 18.739 77.459 16.36 75.914 14.408L78.738 11.584C79.324 10.998 79.324 10.049 78.738 9.46304C78.152 8.87704 77.203 8.87704 76.617 9.46304L73.809 12.271C71.843 10.677 69.425 9.62104 66.779 9.32904V1.86804C66.779 1.04004 66.108 0.368042 65.279 0.368042C64.45 0.368042 63.779 1.04004 63.779 1.86804V9.32904C61.188 9.61604 58.819 10.638 56.875 12.177L54.05 9.35304C53.464 8.76704 52.514 8.76704 51.929 9.35304C51.343 9.93904 51.343 10.888 51.929 11.474L54.738 14.282C53.138 16.256 52.079 18.684 51.791 21.342H44.339C43.51 21.342 42.839 22.014 42.839 22.842C42.839 23.67 43.508 24.342 44.337 24.342ZM89.125 59.35C89.125 60.454 88.23 61.35 87.125 61.35H72.571L72.28 65.003L83.013 69.312C83.526 69.517 83.774 70.1 83.569 70.613C83.412 71.003 83.037 71.24 82.64 71.24C82.516 71.24 82.39 71.217 82.268 71.168L72.114 67.092L71.923 69.495C71.881 70.018 71.444 70.416 70.927 70.416C70.901 70.416 70.874 70.415 70.846 70.413C70.296 70.369 69.885 69.887 69.929 69.337L70.565 61.352H31.945L40.357 68.112L61.015 70.182C61.565 70.237 61.966 70.727 61.911 71.277C61.859 71.793 61.425 72.177 60.917 72.177C60.884 72.177 60.85 72.175 60.816 72.172L54.285 71.518L58.581 78.648L69.337 78.205C69.878 78.1711 70.354 78.611 70.377 79.163C70.4 79.715 69.971 80.181 69.419 80.203L59.758 80.6L60.921 82.531C61.206 83.004 61.054 83.618 60.581 83.903C60.419 84.001 60.242 84.047 60.066 84.047C59.727 84.047 59.396 83.875 59.209 83.563L52.062 71.7C51.982 71.567 51.944 71.424 51.931 71.279L40.448 70.128L34.27 79.009C34.098 79.2561 33.823 79.413 33.522 79.435L29.363 79.738L33.37 86.098C33.664 86.566 33.524 87.183 33.057 87.477C32.891 87.581 32.707 87.631 32.525 87.631C32.193 87.631 31.868 87.466 31.678 87.164L27.157 79.989C27.139 79.961 27.138 79.929 27.123 79.9L19.526 80.453C19.501 80.455 19.477 80.456 19.452 80.456C18.932 80.456 18.494 80.055 18.455 79.528C18.415 78.977 18.829 78.499 19.38 78.459L32.9 77.475L38.608 69.269L28.752 61.349H18.617L17.55 73.841C17.505 74.3621 17.068 74.756 16.554 74.756C16.526 74.756 16.497 74.755 16.468 74.752C15.918 74.705 15.51 74.221 15.556 73.671L15.848 70.248L8.998 73.635C8.855 73.705 8.704 73.739 8.556 73.739C8.187 73.739 7.833 73.535 7.659 73.182C7.414 72.687 7.617 72.087 8.112 71.842L16.048 67.919L16.609 61.349H2.265C1.161 61.349 0.265 60.453 0.265 59.349C0.265 58.245 1.161 57.349 2.265 57.349H16.26V31.456C13.826 31.156 11.203 29.949 8.581 28.893C1 25.84 0 24.088 0 23.147V9.86404C0 8.76004 1.896 7.86404 3 7.86404C4.105 7.86404 6 8.76004 6 9.86404V22.616C7.609 23.986 12.755 26.87 16.26 27.427V5.24404C16.26 4.14004 18.156 3.24404 19.26 3.24404C20.364 3.24404 22.26 4.14004 22.26 5.24404V36.044C26.278 35.644 29.575 33.915 30.84 32.883V13.494C30.84 12.39 32.736 11.494 33.84 11.494C34.944 11.494 36.84 12.39 36.84 13.494V33.335C36.84 37.384 26.855 39.562 22.26 40.032V57.35H87.125C88.23 57.35 89.125 58.245 89.125 59.35Z" fill="#D04949"/>
</svg>
