<svg width="35" height="32" viewBox="0 0 35 32" fill="none" xmlns="http://www.w3.org/2000/svg">
<path d="M17.5 0C7.85058 0 0 7.85058 0 17.5C0 17.8983 0.322818 18.2216 0.721649 18.2216C1.12048 18.2216 1.4433 17.8983 1.4433 17.5C1.4433 8.64632 8.64632 1.4433 17.5 1.4433C26.3537 1.4433 33.5567 8.64632 33.5567 17.5C33.5567 17.8983 33.88 18.2216 34.2784 18.2216C34.6767 18.2216 35 17.8983 35 17.5C35 7.85058 27.1499 0 17.5 0Z" fill="#C2718A"/>
<path d="M25.8952 9.1105C25.8784 9.0927 25.8634 9.07394 25.8442 9.05806C25.8302 9.04652 25.8144 9.03834 25.8004 9.02823C23.5474 7.15243 20.6536 6.02136 17.5 6.02136C10.3374 6.02136 4.51031 11.8484 4.51031 19.0111C4.51031 26.1737 10.3374 32.0007 17.5 32.0007C24.6626 32.0007 30.4897 26.1737 30.4897 19.0111C30.4897 15.0473 28.7029 11.4948 25.8952 9.1105ZM17.5 30.5574C11.1336 30.5574 5.95361 25.3774 5.95361 19.0111C5.95361 12.6447 11.1336 7.46466 17.5 7.46466C20.0609 7.46466 22.4294 8.30418 24.3465 9.72054L16.9472 18.5473C16.6913 18.8528 16.7312 19.3079 17.0367 19.5638C17.1719 19.6769 17.3364 19.7327 17.5 19.7327C17.7064 19.7327 17.9109 19.6447 18.0533 19.4748L25.4511 10.6505C27.6632 12.7553 29.0464 15.7237 29.0464 19.0111C29.0464 25.3774 23.8664 30.5574 17.5 30.5574Z" fill="#C2718A"/>
</svg>
