<svg width="42" height="42" viewBox="0 0 42 42" fill="none" xmlns="http://www.w3.org/2000/svg">
<path d="M21.8666 36C17.6285 36 13.6441 34.3402 10.6472 31.3262C7.65048 28.3123 6 24.3051 6 20.0429C6 14.2553 9.12744 8.90935 14.1619 6.09155C14.4406 5.93553 14.7883 5.98224 15.0165 6.20637C15.2448 6.43056 15.2995 6.77894 15.151 7.06297C14.0713 9.12739 13.5006 11.4588 13.5006 13.8051C13.5006 21.804 19.9713 28.3116 27.9248 28.3116C30.376 28.3116 32.7977 27.6814 34.928 26.4889C35.2068 26.333 35.5544 26.3797 35.7827 26.6038C36.0109 26.828 36.0656 27.1764 35.9171 27.4604C33.1623 32.7278 27.7784 36 21.8666 36ZM12.8968 8.68262C9.48603 11.4106 7.44241 15.5825 7.44241 20.0429C7.44241 28.0418 13.9131 34.5494 21.8666 34.5494C26.4436 34.5494 30.6728 32.3915 33.3739 28.7932C31.6362 29.431 29.788 29.7622 27.9247 29.7622C23.6865 29.7622 19.7021 28.1024 16.7053 25.0885C13.7086 22.0745 12.0581 18.0674 12.0581 13.8051C12.0581 12.0619 12.3447 10.3259 12.8968 8.68262Z" fill="#3F44B9"/>
</svg>
