<svg width="41" height="42" viewBox="0 0 41 42" fill="none" xmlns="http://www.w3.org/2000/svg">
<path d="M20.2998 9.46118C14.1457 9.46118 9.14551 14.6338 9.14551 21.0001C9.14551 27.3664 14.1457 32.539 20.2998 32.539C26.4539 32.539 31.4541 27.3664 31.4541 21.0001C31.4541 14.6338 26.4539 9.46118 20.2998 9.46118ZM20.2998 30.5053C15.2569 30.5053 11.1114 26.2611 11.1114 21.0001C11.1114 15.7832 15.2141 11.4948 20.2998 11.4948C25.3427 11.4948 29.4882 15.739 29.4882 21.0001C29.4882 26.2169 25.3427 30.5053 20.2998 30.5053Z" fill="#3BB30B"/>
<path d="M20.3 7.11797C20.8555 7.11797 21.2829 6.67586 21.2829 6.10112V1.01685C21.2829 0.442105 20.8555 0 20.3 0C19.7444 0 19.317 0.442105 19.317 1.01685V6.10112C19.317 6.67586 19.7444 7.11797 20.3 7.11797Z" fill="#3BB30B"/>
<path d="M9.44497 11.1853C9.61592 11.3622 9.87235 11.4948 10.1288 11.4948C10.3852 11.4948 10.6416 11.4064 10.8126 11.1853C11.1972 10.7874 11.1972 10.1243 10.8126 9.72639L7.35088 6.14533C6.96625 5.74743 6.3252 5.74743 5.94057 6.14533C5.55594 6.54323 5.55594 7.20638 5.94057 7.60428L9.44497 11.1853Z" fill="#3BB30B"/>
<path d="M6.88062 21.0001C6.88062 20.4253 6.45325 19.9832 5.89767 19.9832H0.982941C0.427363 19.9832 0 20.4253 0 21.0001C0 21.5748 0.427363 22.0169 0.982941 22.0169H5.89767C6.45325 22.0169 6.88062 21.5748 6.88062 21.0001Z" fill="#3BB30B"/>
<path d="M9.44485 30.8147L5.98318 34.3958C5.59854 34.7937 5.59854 35.4568 5.98318 35.8547C6.15412 36.0315 6.41053 36.1642 6.66695 36.1642C6.92338 36.1642 7.17981 36.0757 7.35076 35.8547L10.8124 32.2737C11.1971 31.8758 11.1971 31.2126 10.8124 30.8147C10.4278 30.4168 9.82948 30.4168 9.44485 30.8147Z" fill="#3BB30B"/>
<path d="M20.3 34.8821C19.7444 34.8821 19.317 35.3242 19.317 35.8989V40.9831C19.317 41.5578 19.7444 42 20.3 42C20.8555 42 21.2829 41.5578 21.2829 40.9831V35.8989C21.2829 35.3242 20.8555 34.8821 20.3 34.8821Z" fill="#3BB30B"/>
<path d="M31.1553 30.8147C30.7707 30.4168 30.1296 30.4168 29.745 30.8147C29.3603 31.2126 29.3603 31.8758 29.745 32.2737L33.2067 35.8547C33.3776 36.0315 33.634 36.1642 33.8904 36.1642C34.1469 36.1642 34.4033 36.0757 34.5742 35.8547C34.9589 35.4568 34.9589 34.7937 34.5742 34.3958L31.1553 30.8147Z" fill="#3BB30B"/>
<path d="M39.617 19.9832H34.7022C34.1467 19.9832 33.7193 20.4253 33.7193 21.0001C33.7193 21.5748 34.1467 22.0169 34.7022 22.0169H39.617C40.1726 22.0169 40.5999 21.5748 40.5999 21.0001C40.5999 20.4253 40.1726 19.9832 39.617 19.9832Z" fill="#3BB30B"/>
<path d="M30.4715 11.4948C30.7279 11.4948 30.9843 11.4064 31.1553 11.1853L34.617 7.60428C35.0016 7.20638 35.0016 6.54323 34.617 6.14533C34.2323 5.74743 33.5913 5.74743 33.2067 6.14533L29.745 9.72639C29.3603 10.1243 29.3603 10.7874 29.745 11.1853C29.9586 11.4064 30.2151 11.4948 30.4715 11.4948Z" fill="#3BB30B"/>
</svg>
