<svg width="31" height="30" viewBox="0 0 31 30" fill="none" xmlns="http://www.w3.org/2000/svg">
<path d="M30.6799 15C30.7126 16.9753 30.3304 18.9361 29.557 20.7609C28.7836 22.5858 27.6355 24.2358 26.1838 25.6088C24.7779 27.0253 23.0908 28.1454 21.2261 28.9003C19.3615 29.6552 17.3587 30.0288 15.3409 29.9983C13.3232 30.0288 11.3204 29.6552 9.45571 28.9003C7.59104 28.1454 5.90391 27.0253 4.49809 25.6088C3.04621 24.2359 1.89798 22.5859 1.12458 20.761C0.351177 18.9362 -0.0309252 16.9753 0.00195541 15C-0.028256 13.026 0.355091 11.0669 1.12836 9.24348C1.90164 7.42001 3.04844 5.77084 4.49809 4.39764C5.90263 2.97906 7.58937 1.85714 9.45424 1.10109C11.3191 0.345039 13.3225 -0.0290971 15.3409 0.00176514C17.3593 -0.0289059 19.3626 0.345318 21.2275 1.10136C23.0923 1.8574 24.7791 2.97922 26.1838 4.39764C27.6332 5.77096 28.7799 7.42015 29.5532 9.24359C30.3265 11.067 30.7099 13.0261 30.6799 15ZM28.1696 15C28.195 13.3479 27.8751 11.7082 27.2296 10.1814C26.584 8.65455 25.6265 7.27288 24.4157 6.12113C23.2411 4.93237 21.8297 3.99216 20.2688 3.35872C18.7078 2.72528 17.0306 2.41209 15.3409 2.43854C13.6498 2.41248 11.9713 2.72581 10.4088 3.35919C8.84628 3.99257 7.43304 4.93256 6.25629 6.12113C5.04273 7.27136 4.08273 8.65252 3.43542 10.1795C2.78811 11.7065 2.4672 13.3471 2.49248 15C2.46408 16.6548 2.78352 18.2977 3.43097 19.8267C4.07843 21.3557 5.04009 22.7383 6.25629 23.8886C7.43448 25.0746 8.84821 26.0123 10.4105 26.644C11.9728 27.2756 13.6507 27.5878 15.3409 27.5615C17.0297 27.5882 18.7062 27.2761 20.267 26.6444C21.8278 26.0127 23.2397 25.0748 24.4157 23.8886C25.6293 22.7369 26.5886 21.3538 27.2343 19.825C27.8799 18.2962 28.1983 16.654 28.1696 15ZM18.2306 7.92854C18.2341 8.28154 18.1599 8.63114 18.0131 8.9536C17.8662 9.27605 17.6501 9.56379 17.3795 9.79727C16.821 10.296 16.0921 10.5725 15.336 10.5725C14.5798 10.5725 13.851 10.296 13.2924 9.79727C13.0265 9.56042 12.8141 9.27187 12.6688 8.95008C12.5234 8.62829 12.4483 8.28035 12.4483 7.92854C12.4483 7.57672 12.5234 7.22878 12.6688 6.90699C12.8141 6.5852 13.0265 6.29665 13.2924 6.05981C13.851 5.56108 14.5798 5.28458 15.336 5.28458C16.0921 5.28458 16.821 5.56108 17.3795 6.05981C17.6501 6.29328 17.8662 6.58102 18.0131 6.90348C18.1599 7.22593 18.2341 7.57554 18.2306 7.92854ZM17.6995 25.3281H12.9659V12.205H17.6995V25.3281Z" fill="#B5B2B2"/>
</svg>
