<svg width="30" height="30" viewBox="0 0 30 30" fill="none" xmlns="http://www.w3.org/2000/svg">
<path d="M15.8666 30C11.6285 30 7.64408 28.3402 4.64724 25.3262C1.65048 22.3123 0 18.3051 0 14.0429C0 8.25527 3.12744 2.90935 8.16191 0.0915485C8.44058 -0.0644684 8.78835 -0.0177576 9.01654 0.206367C9.2448 0.430564 9.29947 0.778937 9.15097 1.06297C8.07132 3.12739 7.50063 5.45879 7.50063 7.80513C7.50063 15.804 13.9713 22.3116 21.9248 22.3116C24.376 22.3116 26.7977 21.6814 28.928 20.4889C29.2068 20.333 29.5544 20.3797 29.7827 20.6038C30.0109 20.828 30.0656 21.1764 29.9171 21.4604C27.1623 26.7278 21.7784 30 15.8666 30ZM6.89684 2.68262C3.48603 5.41056 1.44241 9.58254 1.44241 14.0429C1.44241 22.0418 7.91309 28.5494 15.8666 28.5494C20.4436 28.5494 24.6728 26.3915 27.3739 22.7932C25.6362 23.431 23.788 23.7622 21.9247 23.7622C17.6865 23.7622 13.7021 22.1024 10.7053 19.0885C7.70855 16.0745 6.05807 12.0674 6.05807 7.80513C6.05814 6.06189 6.34468 4.32591 6.89684 2.68262Z" fill="#3F44B9"/>
</svg>
