<svg width="30" height="43" viewBox="0 0 30 43" fill="none" xmlns="http://www.w3.org/2000/svg">
<path d="M15.4507 0.936087C15.2772 0.696747 14.988 0.517242 14.6988 0.517242C14.4096 0.517242 14.1204 0.696747 13.9468 0.936087L1.85819 20.9209C-0.628953 25.3487 -0.628952 30.7339 1.91603 35.2813C4.57669 40.0083 9.43529 43 14.6988 43C19.9622 43 24.8208 40.0681 27.4815 35.2813C30.0265 30.7339 30.0265 25.3487 27.5393 20.9209L15.4507 0.936087ZM25.9777 34.3838C23.664 38.5722 19.326 41.205 14.6988 41.205C10.0715 41.205 5.7335 38.5722 3.41988 34.3838C1.22194 30.3749 1.1641 25.7077 3.36204 21.8185L14.6988 3.09014L26.0355 21.8185C28.2334 25.7077 28.1756 30.4347 25.9777 34.3838Z" fill="#0B81B3"/>
<path d="M22.218 28.4002C22.218 32.2297 19.4995 35.5206 15.8556 35.5206H14.6988V37.3157H15.8556C20.4828 37.3157 23.9533 33.187 23.9533 28.4002V27.742H22.218V28.4002Z" fill="#0B81B3"/>
</svg>
