<svg width="30" height="31" viewBox="0 0 30 31" fill="none" xmlns="http://www.w3.org/2000/svg">
<path fill-rule="evenodd" clip-rule="evenodd" d="M15 30.5C6.716 30.5 0 23.784 0 15.5C0 7.2155 6.716 0.5 15 0.5C23.284 0.5 30 7.2155 30 15.5C30 23.784 23.284 30.5 15 30.5ZM15 2.5C7.8205 2.5 2 8.3205 2 15.5C2 22.6795 7.8205 28.5 15 28.5C22.1795 28.5 28 22.6795 28 15.5C28 8.3205 22.1795 2.5 15 2.5ZM15 26.5C15 21.789 15 7.434 15 4.5C21.075 4.5 26 9.425 26 15.5C26 21.575 21.075 26.5 15 26.5Z" fill="#3F44B9"/>
</svg>
