<svg width="35" height="37" viewBox="0 0 35 37" fill="none" xmlns="http://www.w3.org/2000/svg">
<path d="M16.8519 36.7284V32.8395H13.8272V20.7407H16.8519V0H18.1482V20.7407H21.1729V32.8395H18.1482V36.7284H16.8519ZM15.1235 31.5432H19.8766V22.037H15.1235V31.5432Z" fill="#D7224D"/>
<path d="M4.32099 0V3.88889H7.34568V15.9877H4.32099V36.7284H3.02469V15.9877H0V3.88889H3.02469V0H4.32099ZM1.2963 14.6914H6.04938V5.18518H1.2963V14.6914Z" fill="#3CAC3A"/>
<path d="M31.9753 0V9.93827H35V22.037H31.9753V36.7284H30.679V22.037H27.6543V9.93827H30.679V0H31.9753ZM28.9506 20.7407H33.7037V11.2346H28.9506V20.7407Z" fill="#BE962D"/>
</svg>
