<svg width="39" height="35" viewBox="0 0 39 35" fill="none" xmlns="http://www.w3.org/2000/svg">
<path d="M38.7707 16.9812C37.6752 16.2508 31.7104 7.7298 19.4767 7.7298C7.18202 7.7298 1.27816 16.19 0.182594 16.9812C0.0608645 17.1029 0 17.2855 0 17.4073C0 17.529 0.0608645 17.7116 0.182594 17.8333C1.33902 18.6854 7.30375 27.1456 19.4767 27.1456C25.9283 27.1456 32.0148 24.6501 36.5796 20.0853L38.7707 17.8942C38.8924 17.7724 38.9533 17.6507 38.9533 17.4681C38.9533 17.2855 38.8924 17.1029 38.7707 16.9812ZM35.7275 19.1723C31.4061 23.5546 25.624 25.9283 19.4767 25.9283C8.03412 25.9283 2.37372 18.0768 1.46075 17.4681C2.31285 16.8595 8.03412 9.00795 19.4767 9.00795C30.8583 9.00795 36.6405 16.9203 37.4926 17.4681L35.7275 19.1723Z" fill="#68BA7F"/>
<path d="M19.4767 10.6513C15.7639 10.6513 12.7207 13.6945 12.7207 17.4073C12.7207 21.12 15.7639 24.1632 19.4767 24.1632C23.1894 24.1632 26.2326 21.12 26.2326 17.4073C26.2326 13.6945 23.1894 10.6513 19.4767 10.6513ZM19.4767 22.9459C16.4334 22.9459 13.938 20.4505 13.938 17.4073C13.938 14.364 16.4334 11.8686 19.4767 11.8686C22.5199 11.8686 25.0153 14.364 25.0153 17.4073C25.0153 20.5114 22.5199 22.9459 19.4767 22.9459Z" fill="#68BA7F"/>
<path d="M19.4767 14.4249C17.8334 14.4249 16.4335 15.7639 16.4335 17.4682C16.4335 19.1724 17.7725 20.5114 19.4767 20.5114C21.1809 20.5114 22.5199 19.1724 22.5199 17.4682C22.5199 15.7639 21.12 14.4249 19.4767 14.4249ZM19.4767 19.2332C18.5029 19.2332 17.6508 18.442 17.6508 17.4073C17.6508 16.3726 18.442 15.5814 19.4767 15.5814C20.5114 15.5814 21.3026 16.3726 21.3026 17.4073C21.3026 18.442 20.4505 19.2332 19.4767 19.2332Z" fill="#68BA7F"/>
<path d="M13.6336 6.99941C13.8162 7.24287 14.2423 7.30374 14.4857 7.12114C14.7292 6.93855 14.7901 6.5125 14.6075 6.26904L9.86003 0.304313C9.67744 0.0608549 9.25138 -9.5404e-06 9.00793 0.182584C8.76447 0.365178 8.7036 0.79123 8.8862 1.03469L13.6336 6.99941Z" fill="#68BA7F"/>
<path d="M19.5375 7.24288C19.9027 7.24288 20.1461 6.99942 20.1461 6.63424V0.608646C20.1461 0.243458 19.9027 0 19.5375 0C19.1723 0 18.9288 0.243458 18.9288 0.608646V6.57337C18.9288 6.93856 19.2332 7.24288 19.5375 7.24288Z" fill="#68BA7F"/>
<path d="M25.4413 6.9994L30.1888 1.03468C30.3714 0.791219 30.3714 0.365167 30.067 0.182573C29.8236 -0.0608849 29.4584 -2.04318e-05 29.2149 0.243438L24.4675 6.20816C24.2849 6.45162 24.2849 6.87767 24.5892 7.06027C24.8327 7.30373 25.1979 7.24286 25.4413 6.9994Z" fill="#68BA7F"/>
<path d="M13.6338 28.0586L8.88633 34.0233C8.70374 34.2668 8.70374 34.6928 9.00806 34.8754C9.25152 35.058 9.67757 35.058 9.86016 34.7537L14.6076 28.789C14.7902 28.5455 14.7902 28.1195 14.4859 27.9369C14.2424 27.7543 13.8772 27.8151 13.6338 28.0586Z" fill="#68BA7F"/>
<path d="M19.5375 27.8151C19.1723 27.8151 18.9288 28.0585 18.9288 28.4237V34.3884C18.9288 34.7536 19.1723 34.9971 19.5375 34.9971C19.9027 34.9971 20.1461 34.7536 20.1461 34.3884V28.4237C20.1461 28.1194 19.9027 27.8151 19.5375 27.8151Z" fill="#68BA7F"/>
<path d="M25.4414 28.0586C25.2589 27.8151 24.8328 27.7543 24.5893 27.9369C24.3459 28.1195 24.285 28.5455 24.4676 28.789L29.2151 34.7537C29.3976 34.9971 29.8237 35.058 30.0672 34.8754C30.3106 34.6928 30.3715 34.2668 30.1889 34.0233L25.4414 28.0586Z" fill="#68BA7F"/>
</svg>
