<svg width="42" height="42" viewBox="0 0 42 42" fill="none" xmlns="http://www.w3.org/2000/svg">
<path d="M21 9.53748C14.6807 9.53748 9.53748 14.679 9.53748 21C9.53748 27.321 14.679 32.4625 21 32.4625C27.321 32.4625 32.4625 27.321 32.4625 21C32.4625 14.679 27.3192 9.53748 21 9.53748ZM21 30.7125C15.645 30.7125 11.2875 26.3567 11.2875 21C11.2875 15.6432 15.645 11.2875 21 11.2875C26.355 11.2875 30.7125 15.6432 30.7125 21C30.7125 26.3567 26.355 30.7125 21 30.7125Z" fill="#D4CF5D"/>
<path d="M21.875 0H20.125V5.25H21.875V0Z" fill="#D4CF5D"/>
<path d="M21.875 36.75H20.125V42H21.875V36.75Z" fill="#D4CF5D"/>
<path d="M42 20.125H36.75V21.875H42V20.125Z" fill="#D4CF5D"/>
<path d="M5.25 20.125H0V21.875H5.25V20.125Z" fill="#D4CF5D"/>
<path d="M31.5173 9.24403L32.7548 10.4814L36.4671 6.76921L35.2296 5.5318L31.5173 9.24403Z" fill="#D4CF5D"/>
<path d="M5.53299 35.2315L6.77039 36.4689L10.4826 32.7566L9.24518 31.5191L5.53299 35.2315Z" fill="#D4CF5D"/>
<path d="M31.5162 32.7561L35.229 36.4679L36.4663 35.2303L32.7535 31.5185L31.5162 32.7561Z" fill="#D4CF5D"/>
<path d="M10.4823 9.24258L6.76953 5.53082L5.53228 6.76843L9.24507 10.4802L10.4823 9.24258Z" fill="#D4CF5D"/>
</svg>
