<svg width="43" height="36" viewBox="0 0 43 36" fill="none" xmlns="http://www.w3.org/2000/svg">
<path d="M38.4312 10.5541C37.9833 6.79162 34.8479 3.92495 30.9958 3.92495C29.8312 3.92495 28.7562 4.1937 27.8604 4.64162C26.4271 2.22287 23.9187 0.699951 20.8729 0.699951C18.0958 0.699951 15.6771 2.13329 14.2437 4.1937C17.2 4.37287 19.9771 5.98537 21.6792 8.40412C22.7542 8.04578 23.8292 7.86662 24.9042 7.86662C29.4729 7.86662 33.325 11.1812 34.1312 15.6604C37.2667 17.1833 39.3271 20.4083 39.3271 23.9916C41.5667 22.7375 43 20.3187 43 17.5416C43 14.4062 41.1187 11.7187 38.4312 10.5541Z" fill="#A88713"/>
<path d="M22.3958 16.825C21.5 16.825 20.6937 17.1833 20.0667 17.8104C19.4396 18.4374 19.0812 19.2437 19.0812 20.2291C19.0812 21.125 19.4396 21.9312 20.0667 22.6479C20.6937 23.275 21.5 23.6333 22.3958 23.6333C23.2917 23.6333 24.0979 23.275 24.725 22.6479C25.3521 22.0208 25.7104 21.2145 25.7104 20.2291C25.7104 19.3333 25.3521 18.527 24.725 17.8104C24.0979 17.0937 23.3812 16.825 22.3958 16.825Z" fill="#DDB31C"/>
<path d="M33.325 16.1979C32.8771 11.9875 29.2937 8.67292 24.9937 8.67292C23.7396 8.67292 22.4854 8.94167 21.4104 9.47917C19.7979 6.79167 16.9313 5 13.6167 5C8.6 5 4.47917 9.12083 4.47917 14.0479C4.47917 14.3167 4.47917 14.5854 4.47917 14.8542C1.79167 16.6458 0 19.6917 0 23.1854C0 28.5604 4.38958 32.95 9.76458 32.95C10.9292 32.95 12.0937 32.7708 13.1687 32.3229C14.6917 34.1146 17.0208 35.2792 19.6187 35.2792C22.4854 35.2792 25.0833 33.8458 26.6063 31.6063C27.6813 32.0542 28.8458 32.3229 30.0104 32.3229C34.6687 32.3229 38.4313 28.5604 38.4313 23.9021C38.4313 20.4979 36.2812 17.4521 33.325 16.1979ZM10.4812 22.4687C11.1083 23.0958 11.825 23.4542 12.7208 23.4542C13.2583 23.4542 13.7062 23.3646 14.1542 23.1854C14.5125 23.0062 14.9604 22.7375 15.4083 22.2896L16.3937 23.3646C15.4083 24.4396 14.2437 24.9771 12.8104 24.9771C11.3771 24.9771 10.2125 24.5292 9.31667 23.6333C8.42083 22.7375 7.88333 21.5729 7.88333 20.2292C7.88333 18.8854 8.33125 17.7208 9.31667 16.7354C10.3021 15.8396 11.4667 15.3917 12.9 15.3917C14.3333 15.3917 15.5875 15.9292 16.4833 17.0042L15.4979 18.0792C15.05 17.6313 14.6021 17.3625 14.2437 17.1833C13.8854 17.0042 13.3479 16.9146 12.8104 16.9146C11.9146 16.9146 11.1083 17.1833 10.4812 17.8104C9.85417 18.4375 9.49583 19.1542 9.49583 20.1396C9.58542 21.125 9.85417 21.8417 10.4812 22.4687ZM25.8896 23.6333C24.9937 24.5292 23.8292 24.9771 22.3958 24.9771C21.0521 24.9771 19.8875 24.5292 18.9021 23.6333C17.9167 22.7375 17.4687 21.5729 17.4687 20.2292C17.4687 18.8854 17.9167 17.7208 18.9021 16.825C19.7979 15.9292 20.9625 15.4813 22.3958 15.4813C23.7396 15.4813 24.9042 15.9292 25.8896 16.825C26.875 17.7208 27.3229 18.8854 27.3229 20.2292C27.3229 21.5729 26.875 22.6479 25.8896 23.6333ZM30.8167 29.2771H26.9646V28.4708L28.6667 26.7687C29.025 26.4104 29.2938 26.0521 29.4729 25.8729C29.6521 25.6937 29.7417 25.425 29.7417 25.2458C29.7417 25.0667 29.6521 24.7979 29.4729 24.7083C29.2938 24.5292 29.1146 24.4396 28.8458 24.4396C28.3979 24.4396 28.0396 24.7083 27.6812 25.1562L26.9646 24.7083C27.2333 24.35 27.5021 24.0812 27.7708 23.9021C28.0396 23.7229 28.4875 23.6333 28.9354 23.6333C29.3833 23.6333 29.8313 23.8125 30.1896 24.0812C30.5479 24.35 30.7271 24.7979 30.7271 25.2458C30.7271 25.5146 30.6375 25.7833 30.5479 26.0521C30.3687 26.3208 30.1 26.6792 29.7417 27.0375L28.3979 28.3812H30.9062V29.2771H30.8167Z" fill="#DDB31C"/>
</svg>
