<svg width="82" height="48" viewBox="0 0 82 48" fill="none" xmlns="http://www.w3.org/2000/svg">
<path d="M49.015 33.7729C49.73 34.4879 51.127 34.4879 51.842 33.7729C52.22 33.3949 52.428 32.8929 52.428 32.3589C52.428 31.8229 52.22 31.3209 51.843 30.9449L42.414 21.5129C41.701 20.7999 40.299 20.7989 39.585 21.5129L30.156 30.9439C29.778 31.3219 29.57 31.8239 29.57 32.3589C29.57 32.8919 29.778 33.3949 30.156 33.7729C30.87 34.4889 32.27 34.4889 32.983 33.7729L37.292 29.4639C37.481 29.2759 37.732 29.1719 37.999 29.1719C38.131 29.1719 38.261 29.1969 38.384 29.2489C38.756 29.4009 39 29.7639 39 30.1719V45.6919C39 46.7949 39.897 47.6919 41 47.6919C42.103 47.6919 43 46.7949 43 45.6919V30.1719C43 29.7669 43.242 29.4039 43.617 29.2489C43.992 29.0949 44.429 29.1829 44.708 29.4659L49.015 33.7729Z" fill="#6A6A6A"/>
<path d="M68.588 14.901L68.591 14.71C68.591 6.76896 62.128 0.30896 54.184 0.30896C49.103 0.30896 44.35 3.03196 41.777 7.41296C39.467 5.93796 36.799 5.15796 34.06 5.15796C26.909 5.15796 20.777 10.494 19.784 17.576C19.022 17.392 18.272 17.298 17.492 17.287C16.467 17.061 15.429 16.947 14.409 16.947C6.463 16.948 0 23.411 0 31.355C0 34.356 0.918 37.233 2.656 39.673C2.844 39.937 3.147 40.093 3.47 40.093H36.998C37.55 40.093 37.998 39.646 37.998 39.093C37.998 38.54 37.55 38.093 36.998 38.093H3.998C2.689 36.087 2 33.769 2 31.355C2 24.513 7.566 18.948 14.408 18.948C15.284 18.948 16.177 19.047 17.051 19.239C17.177 19.268 17.307 19.284 17.466 19.289C18.094 19.297 18.699 19.372 19.306 19.519C19.98 19.687 20.708 19.485 21.2 18.995C21.292 18.904 21.387 18.789 21.459 18.681C21.628 18.428 21.739 18.137 21.777 17.844C22.621 11.752 27.902 7.15796 34.059 7.15796C36.416 7.15796 38.712 7.82896 40.7 9.09796C41.155 9.38896 41.736 9.48396 42.242 9.35796C42.771 9.23296 43.231 8.89196 43.504 8.42496C45.718 4.65196 49.811 2.30796 54.185 2.30796C61.027 2.30796 66.592 7.87096 66.592 14.693L66.589 14.855C66.559 15.926 67.372 16.829 68.449 16.911C74.926 17.363 80 22.795 80 29.279C80 32.307 78.663 35.697 76.564 38.053C76.539 38.065 76.514 38.078 76.491 38.093H45C44.447 38.093 44 38.54 44 39.093C44 39.646 44.447 40.093 45 40.093H76.777C76.827 40.1 76.877 40.104 76.926 40.104C77.203 40.104 77.482 39.995 77.681 39.789C80.346 37.034 82 33.007 82 29.279C82 21.749 76.108 15.44 68.588 14.901Z" fill="#6A6A6A"/>
</svg>
