<svg width="16" height="15" viewBox="0 0 16 15" fill="none" xmlns="http://www.w3.org/2000/svg">
<path d="M12.697 7.18298C12.326 7.30898 11.9683 7.3943 11.6163 7.4563C11.4908 7.4784 11.3781 7.38432 11.3649 7.2576V7.2576C11.355 7.1631 11.3979 7.06956 11.4801 7.02187C12.9848 6.14856 13.8682 5.19594 14.0371 4.1747C14.1805 3.30504 13.8405 2.46138 13.0253 1.66542C11.4295 0.107304 8.01486 -0.333597 5.94343 0.242567C4.61102 0.614971 4.19664 1.28868 4.08482 1.78897C3.91528 2.54766 4.32019 3.33668 5.29052 4.13438C5.58051 4.37317 5.83009 4.62034 6.05677 4.87454C6.14495 4.97344 6.12317 5.12874 6.02178 5.21405V5.21405C5.95204 5.27272 5.85379 5.28266 5.7734 5.2397C4.22732 4.4136 2.92151 4.14984 1.91148 4.52413C1.05657 4.83887 0.465892 5.54466 0.156574 6.62242C-0.458003 8.76104 0.828416 11.7632 2.41604 13.2277C3.12981 13.8858 3.74845 14.08 4.22865 14.08C4.42209 14.08 4.59343 14.0484 4.73907 14.0024C5.50831 13.7653 6.01557 13.0322 6.24959 11.8265C6.32033 11.4591 6.42057 11.1228 6.53861 10.8029C6.58375 10.6805 6.72414 10.626 6.84616 10.672V10.672C6.93738 10.7064 7.00087 10.7921 7.00275 10.8896C7.0355 12.58 7.45179 13.793 8.28856 14.4451C8.7611 14.8144 9.33104 15 9.99116 15C10.3239 15 10.6788 14.9527 11.0553 14.8591C13.2895 14.3016 15.3515 11.7273 15.8768 9.67492C16.2086 8.37693 15.8078 7.69585 15.4128 7.35249C14.8153 6.82965 13.9005 6.77373 12.697 7.18298ZM8.92658 9.21018C8.8585 9.24616 8.79582 9.28995 8.72323 9.31726C8.52213 9.39183 8.3075 9.44212 8.07889 9.44212C7.59057 9.44212 7.14959 9.25093 6.82539 8.94616C6.47594 8.61624 6.28205 8.17924 6.28205 7.71449C6.28205 7.50249 6.33481 7.30437 6.40785 7.11665C6.44483 7.02474 6.50209 6.93977 6.5562 6.8535C6.86913 6.34453 7.42103 5.98687 8.07889 5.98687C8.30209 5.98687 8.51085 6.03716 8.7079 6.10912C8.76471 6.12993 8.81701 6.15811 8.87112 6.18369C9.0109 6.25045 9.13896 6.33369 9.25529 6.43254C9.29903 6.46982 9.34502 6.50364 9.38515 6.54526C9.52087 6.68529 9.6372 6.84353 9.71882 7.02041C9.72332 7.03038 9.73099 7.03688 9.73505 7.04642C9.82523 7.25191 9.87573 7.47778 9.87573 7.71493C9.87573 7.90178 9.82207 8.07346 9.76481 8.24253C9.73054 8.34311 9.68545 8.43892 9.63405 8.52997C9.57994 8.62404 9.51816 8.71248 9.44782 8.79529C9.3874 8.86639 9.32608 8.93618 9.25529 8.99731C9.15609 9.08098 9.04337 9.14862 8.92658 9.21018ZM8.07889 4.51589C7.86916 4.51508 7.66461 4.42947 7.5335 4.26577C7.18075 3.82532 6.76824 3.41248 6.28611 3.01674C5.6553 2.4978 5.56332 2.17872 5.58135 2.09982C5.6021 2.00791 5.83476 1.80675 6.37133 1.65718C7.98646 1.20024 10.7699 1.55964 11.9341 2.69766C12.6208 3.36877 12.5491 3.80143 12.5252 3.94363C12.4365 4.48161 11.8606 5.08456 10.8793 5.67847C10.7894 5.73293 10.6626 5.7208 10.5922 5.64264V5.64264C10.5007 5.54076 10.4064 5.44278 10.3023 5.35218C10.2261 5.28541 10.1476 5.22342 10.0656 5.16402C9.95779 5.08642 9.84462 5.01836 9.72738 4.95289C9.64126 4.90564 9.55784 4.85751 9.46766 4.81763C9.32879 4.75563 9.18269 4.70968 9.03435 4.66676C8.95589 4.64378 8.88194 4.61344 8.80123 4.59696C8.56812 4.54667 8.32734 4.51589 8.07889 4.51589V4.51589ZM4.74403 11.5565C4.59253 12.3411 4.35085 12.577 4.27014 12.6013C4.17004 12.6372 3.8783 12.5367 3.47475 12.166C2.26002 11.0449 1.19004 8.55121 1.63147 7.01347C1.89209 6.10652 2.31819 5.95002 2.45797 5.89799C2.59865 5.8464 2.75917 5.82169 2.93908 5.82169C3.3495 5.82169 3.85852 5.95416 4.44325 6.21194C4.7674 6.35485 4.88966 6.7374 4.81708 7.08414V7.08414C4.77334 7.2905 4.7508 7.50076 4.7508 7.71449C4.7508 8.02143 4.81032 8.31233 4.89463 8.59413C4.91447 8.66003 4.93341 8.72419 4.95731 8.78835C5.05966 9.06234 5.19268 9.3203 5.36447 9.5544V9.5544C5.37976 9.57318 5.37632 9.60275 5.3659 9.62461C5.08565 10.2127 4.88105 10.851 4.74403 11.5565ZM14.3901 9.32333C13.9879 10.8958 12.2759 13.0344 10.6711 13.4336C9.72197 13.6678 9.36892 13.3933 9.25349 13.3027C8.80178 12.9503 8.54538 12.1385 8.5105 10.9817C8.50887 10.9276 8.54653 10.871 8.60013 10.8637V10.8637C8.82919 10.8286 9.05013 10.7731 9.26115 10.6955C9.28866 10.6855 9.31796 10.6812 9.34502 10.6703C9.58445 10.5754 9.80584 10.4505 10.0133 10.3066C10.062 10.2728 10.1043 10.2342 10.1508 10.1973C10.3104 10.0738 10.4569 9.93851 10.5904 9.78894C10.6301 9.74385 10.6693 9.7005 10.7067 9.65325V9.65325C10.9964 9.29125 11.3943 9.00633 11.8507 8.92476C12.2948 8.84537 12.7445 8.72785 13.2065 8.57115C13.987 8.308 14.323 8.38863 14.3843 8.44326C14.4578 8.50699 14.5232 8.80136 14.3901 9.32333Z" fill="#A6A6A6"/>
</svg>
