<svg width="28" height="27" viewBox="0 0 28 27" fill="none" xmlns="http://www.w3.org/2000/svg">
<path d="M22.2198 12.9294C21.5759 13.1543 20.955 13.3072 20.3438 13.4186C20.1165 13.46 19.9117 13.2894 19.8881 13.0595V13.0595C19.8709 12.8913 19.9465 12.7252 20.0916 12.6385C22.7239 11.0668 24.2693 9.35236 24.5649 7.51447C24.8158 5.94907 24.2209 4.43049 22.7942 2.99775C20.0017 0.193147 14.026 -0.600475 10.401 0.43662C8.06928 1.10695 7.34412 2.31962 7.14843 3.22015C6.85174 4.58578 7.56033 6.00603 9.25842 7.44189C9.76909 7.87441 10.2082 8.32221 10.6068 8.78283C10.7585 8.95799 10.7204 9.22786 10.545 9.3793V9.3793C10.4194 9.48779 10.2399 9.50638 10.0944 9.42651C7.39273 7.94342 5.11067 7.47047 3.34509 8.14343C1.849 8.70997 0.815311 9.9804 0.274005 11.9204C-0.801505 15.7699 1.44973 21.1738 4.22806 23.8099C5.47717 24.9945 6.55978 25.3441 7.40014 25.3441C7.73866 25.3441 8.03851 25.2871 8.29338 25.2044C9.63954 24.7775 10.5273 23.458 10.9368 21.2878C11.0608 20.625 11.2367 20.0186 11.4439 19.4416C11.5217 19.2248 11.7707 19.1283 11.9855 19.2115V19.2115C12.1427 19.2723 12.2515 19.4207 12.2546 19.5893C12.3102 22.6383 13.0387 24.8259 14.505 26.0011C15.3319 26.666 16.3293 27 17.4845 27C18.0669 27 18.6879 26.9149 19.3467 26.7464C23.2566 25.7428 26.8651 21.1091 27.7843 17.4149C28.3651 15.0785 27.6636 13.8525 26.9724 13.2345C25.9268 12.2934 24.3258 12.1927 22.2198 12.9294ZM15.6215 16.5783C15.5024 16.6431 15.3927 16.7219 15.2656 16.7711C14.9137 16.9053 14.5381 16.9958 14.1381 16.9958C13.2835 16.9958 12.5118 16.6517 11.9444 16.1031C11.3329 15.5092 10.9936 14.7226 10.9936 13.8861C10.9936 13.5045 11.0859 13.1479 11.2137 12.81C11.2784 12.6445 11.3787 12.4916 11.4734 12.3363C12.021 11.4202 12.9868 10.7764 14.1381 10.7764C14.5287 10.7764 14.894 10.8669 15.2388 10.9964C15.3382 11.0339 15.4298 11.0846 15.5245 11.1306C15.7691 11.2508 15.9932 11.4006 16.1968 11.5786C16.2733 11.6457 16.3538 11.7065 16.424 11.7815C16.6615 12.0335 16.8651 12.3183 17.0079 12.6367C17.0158 12.6547 17.0292 12.6664 17.0363 12.6836C17.1941 13.0534 17.2825 13.46 17.2825 13.8869C17.2825 14.2232 17.1886 14.5322 17.0884 14.8366C17.0284 15.0176 16.9495 15.1901 16.8596 15.3539C16.7649 15.5233 16.6568 15.6825 16.5337 15.8315C16.428 15.9595 16.3206 16.0851 16.1968 16.1952C16.0232 16.3458 15.8259 16.4675 15.6215 16.5783ZM14.1381 8.12861C13.772 8.12715 13.4149 7.97586 13.1902 7.68683C12.5714 6.89086 11.8474 6.14498 11.0007 5.43013C9.89678 4.49604 9.73581 3.9217 9.76737 3.77967C9.80367 3.61423 10.2108 3.25215 11.1498 2.98293C13.9763 2.16043 18.8473 2.80735 20.8847 4.85579C22.0864 6.06378 21.961 6.84258 21.9191 7.09853C21.764 8.06654 20.7567 9.15142 19.0407 10.2201C18.8833 10.3181 18.6585 10.2963 18.5364 10.1568V10.1568C18.3762 9.97337 18.2113 9.79701 18.029 9.63392C17.8956 9.51374 17.7583 9.40215 17.6147 9.29524C17.4261 9.15556 17.2281 9.03304 17.0229 8.91521C16.8722 8.83015 16.7262 8.74353 16.5684 8.67173C16.3254 8.56014 16.0697 8.47743 15.8101 8.40017C15.6728 8.35881 15.5434 8.30419 15.4022 8.27453C14.9942 8.18401 14.5728 8.12861 14.1381 8.12861V8.12861ZM8.30206 20.8016C8.03693 22.2141 7.61398 22.6386 7.47274 22.6823C7.29756 22.747 6.78703 22.566 6.08081 21.8988C3.95504 19.8808 2.08257 15.3922 2.85507 12.6242C3.31116 10.9917 4.05683 10.71 4.30145 10.6164C4.54764 10.5235 4.82855 10.479 5.14339 10.479C5.85687 10.479 6.74063 10.7143 7.75538 11.1723C8.33844 11.4355 8.55745 12.1246 8.42989 12.7514V12.7514C8.35335 13.1229 8.31389 13.5014 8.31389 13.8861C8.31389 14.4386 8.41805 14.9622 8.56561 15.4694C8.60033 15.588 8.63347 15.7035 8.67529 15.819C8.85441 16.3122 9.08719 16.7765 9.38782 17.1979V17.1979C9.41481 17.232 9.40865 17.2848 9.39036 17.3242C8.8999 18.3827 8.54184 19.5318 8.30206 20.8016ZM25.1827 16.782C24.4789 19.6124 21.4828 23.4619 18.6745 24.1806C17.0135 24.602 16.3956 24.108 16.1936 23.9449C15.4026 23.3101 14.9538 21.8472 14.8932 19.7626C14.8905 19.6677 14.9562 19.5679 15.0502 19.5546V19.5546C15.4511 19.4914 15.8377 19.3915 16.207 19.2518C16.2551 19.2339 16.3064 19.2261 16.3538 19.2066C16.7728 19.0357 17.1602 18.8109 17.5232 18.5518C17.6084 18.491 17.6826 18.4215 17.7639 18.3552C18.0432 18.1328 18.2996 17.8893 18.5332 17.6201C18.6026 17.5389 18.6713 17.4609 18.7368 17.3758V17.3758C19.2445 16.7233 19.9515 16.2108 20.7644 16.0598C21.5332 15.917 22.3117 15.707 23.1114 15.4281C24.4773 14.9544 25.0652 15.0995 25.1725 15.1979C25.3011 15.3126 25.4155 15.8424 25.1827 16.782Z" fill="#626262"/>
</svg>
