<svg width="34" height="26" viewBox="0 0 34 26" fill="none" xmlns="http://www.w3.org/2000/svg">
<path d="M33.2614 6.76712C28.9162 2.3863 23.1107 0 16.8778 0C10.6806 0 4.87508 2.42192 0.529876 6.76712C-0.182453 7.51506 -0.182453 8.69041 0.565492 9.43835C1.31344 10.1863 2.52439 10.1863 3.23672 9.43835C6.90521 5.80548 11.749 3.77534 16.9134 3.77534C22.1134 3.77534 26.9573 5.76986 30.5901 9.43835C30.9463 9.79451 31.4449 10.0082 31.9436 10.0082C32.4422 10.0082 32.9052 9.83013 33.297 9.43835C34.0093 8.69041 34.0093 7.51506 33.2614 6.76712Z" fill="#6A6A6A"/>
<path d="M16.9134 6.73145C12.5682 6.73145 8.36542 8.47665 5.33802 11.5753C4.59008 12.3232 4.6257 13.5342 5.37364 14.2465C5.7298 14.6027 6.22843 14.7808 6.69145 14.7808C7.19008 14.7808 7.68871 14.6027 8.04487 14.2109C10.3599 11.8602 13.601 10.5068 16.9134 10.5068C20.2969 10.5068 23.4312 11.8246 25.8175 14.1753C26.5654 14.9232 27.7764 14.9232 28.4887 14.1753C29.2366 13.4273 29.2366 12.2164 28.4887 11.504C25.4257 8.44103 21.2942 6.73145 16.9134 6.73145Z" fill="#6A6A6A"/>
<path d="M16.9135 13.463C14.3491 13.463 11.9272 14.4603 10.0751 16.3123C9.32717 17.0603 9.32717 18.2712 10.0751 18.9836C10.8231 19.7315 12.034 19.7315 12.7463 18.9836C14.9546 16.7753 18.8011 16.7753 21.045 18.9836C21.4011 19.3397 21.8998 19.5534 22.3984 19.5534C22.897 19.5534 23.36 19.3753 23.7518 18.9836C24.4998 18.2356 24.4998 17.0247 23.7518 16.3123C21.8998 14.4603 19.4779 13.463 16.9135 13.463Z" fill="#6A6A6A"/>
<path d="M16.9134 26C18.5067 26 19.7983 24.7083 19.7983 23.115C19.7983 21.5217 18.5067 20.2301 16.9134 20.2301C15.3201 20.2301 14.0284 21.5217 14.0284 23.115C14.0284 24.7083 15.3201 26 16.9134 26Z" fill="#6A6A6A"/>
</svg>
