<svg width="34" height="27" viewBox="0 0 34 27" fill="none" xmlns="http://www.w3.org/2000/svg">
<path d="M33.2614 7.67129C28.9162 3.29047 23.1107 0.904175 16.8778 0.904175C10.6806 0.904175 4.87508 3.32609 0.529876 7.67129C-0.182453 8.41924 -0.182453 9.59458 0.565492 10.3425C1.31344 11.0905 2.52439 11.0905 3.23672 10.3425C6.90521 6.70965 11.749 4.67952 16.9134 4.67952C22.1134 4.67952 26.9573 6.67403 30.5901 10.3425C30.9463 10.6987 31.4449 10.9124 31.9436 10.9124C32.4422 10.9124 32.9052 10.7343 33.297 10.3425C34.0093 9.59458 34.0093 8.41924 33.2614 7.67129Z" fill="white"/>
<path d="M16.9134 7.63562C12.5682 7.63562 8.36548 9.38082 5.33808 12.4795C4.59014 13.2274 4.62576 14.4384 5.3737 15.1507C5.72987 15.5068 6.2285 15.6849 6.69151 15.6849C7.19014 15.6849 7.68877 15.5068 8.04493 15.1151C10.36 12.7644 13.6011 11.411 16.9134 11.411C20.297 11.411 23.4312 12.7288 25.8175 15.0795C26.5655 15.8274 27.7764 15.8274 28.4888 15.0795C29.2367 14.3315 29.2367 13.1205 28.4888 12.4082C25.4257 9.34521 21.2942 7.63562 16.9134 7.63562Z" fill="white"/>
<path d="M16.9134 14.3672C14.3491 14.3672 11.9271 15.3644 10.0751 17.2165C9.32714 17.9644 9.32714 19.1754 10.0751 19.8877C10.823 20.6357 12.034 20.6357 12.7463 19.8877C14.9545 17.6795 18.8011 17.6795 21.0449 19.8877C21.4011 20.2439 21.8997 20.4576 22.3984 20.4576C22.897 20.4576 23.36 20.2795 23.7518 19.8877C24.4997 19.1398 24.4997 17.9288 23.7518 17.2165C21.8997 15.3644 19.4778 14.3672 16.9134 14.3672Z" fill="white"/>
<path d="M16.9134 26.9041C18.5067 26.9041 19.7984 25.6125 19.7984 24.0192C19.7984 22.4259 18.5067 21.1343 16.9134 21.1343C15.3201 21.1343 14.0285 22.4259 14.0285 24.0192C14.0285 25.6125 15.3201 26.9041 16.9134 26.9041Z" fill="white"/>
</svg>
